<svg width="25" height="25" viewBox="0 0 25 25" fill="none" xmlns="http://www.w3.org/2000/svg">
<path d="M16.1987 13.5376L14.1049 15.6385C13.2559 16.4905 11.7619 16.5089 10.8945 15.6385L8.80059 13.5376L1.28027 21.0823C1.56021 21.2118 1.86885 21.289 2.19697 21.289H22.8024C23.1306 21.289 23.4391 21.2119 23.7189 21.0824L16.1987 13.5376Z" fill="#00730C"/>
<path d="M22.8028 3.71094H2.19736C1.86924 3.71094 1.5606 3.78818 1.28076 3.91763L9.31675 11.9803C9.31728 11.9808 9.31792 11.9809 9.31846 11.9814C9.31899 11.982 9.31909 11.9827 9.31909 11.9827L11.932 14.6043C12.2096 14.8818 12.7907 14.8818 13.0683 14.6043L15.6807 11.9832C15.6807 11.9832 15.6813 11.982 15.6818 11.9814C15.6818 11.9814 15.683 11.9808 15.6835 11.9803L23.7193 3.91758C23.4395 3.78809 23.131 3.71094 22.8028 3.71094Z" fill="#00730C"/>
<path d="M0.233691 4.94202C0.0888672 5.23489 0 5.55999 0 5.90823V19.0918C0 19.4401 0.0887695 19.7652 0.233643 20.058L7.76699 12.5003L0.233691 4.94202Z" fill="#00730C"/>
<path d="M24.7661 4.94189L17.2329 12.5002L24.7661 20.0581C24.911 19.7652 24.9998 19.4401 24.9998 19.0918V5.9082C24.9998 5.55986 24.911 5.23477 24.7661 4.94189Z" fill="#00730C"/>
</svg>
