<svg width="25" height="25" viewBox="0 0 25 25" fill="none" xmlns="http://www.w3.org/2000/svg">
<path d="M12.499 0.0012207C5.6068 0.0012207 0 5.60803 0 12.5002C0 19.3923 5.6068 24.9991 12.499 24.9991C15.2779 24.9991 17.9089 24.1065 20.1337 22.3952C21.017 21.6203 21.0014 20.5141 20.593 19.7621C20.3347 19.2861 19.941 18.96 19.4838 18.7996L19.6931 18.5653C20.0056 18.2143 20.1431 17.7466 20.0691 17.2831C19.9962 16.8196 19.7212 16.4165 19.3161 16.178L16.5653 14.5677C15.9413 14.2032 15.0894 14.3375 14.6092 14.8771L13.9988 15.5635C13.8988 15.676 13.7603 15.7385 13.6103 15.7385C13.4322 15.7385 13.2739 15.6531 13.176 15.5051L9.82315 10.4462C9.73776 10.3181 9.71481 10.165 9.75651 10.0171C9.79815 9.86812 9.89814 9.75148 10.0388 9.68688L10.9981 9.24107C11.672 8.92962 12.0344 8.17866 11.8605 7.45787L11.1137 4.36023C10.8908 3.43428 9.80962 2.9041 8.93782 3.30929L8.08165 3.70613C6.81613 4.29358 5.88393 5.40287 5.52351 6.75065L5.36727 7.3381C5.08502 8.39529 5.18291 9.52439 5.64328 10.517L6.41299 12.1772C7.54204 14.6135 9.08361 16.805 10.9939 18.6923L11.6292 19.3194C12.5729 20.2516 13.8217 20.789 15.1477 20.8317L15.3195 20.8349C16.4673 20.8349 17.5735 20.4547 18.4765 19.7746C18.4942 19.7714 18.5119 19.7756 18.5307 19.7704C19.239 19.5725 19.5889 20.0954 19.6785 20.26C19.8889 20.6495 19.8993 21.2182 19.4743 21.5932C17.4599 23.141 15.0487 23.9597 12.501 23.9597C6.18376 23.9597 1.04356 18.8195 1.04356 12.5023C1.04356 6.18508 6.18386 1.04488 12.501 1.04488C18.8182 1.04488 23.9584 6.18508 23.9584 12.5023C23.9584 12.7897 24.1918 13.0231 24.4792 13.0231C24.7667 13.0231 25 12.7897 25 12.5023C24.9979 5.60807 19.39 0.0012207 12.499 0.0012207Z" fill="#00730C"/>
</svg>
