<svg width="317" height="160" viewBox="0 0 317 160" fill="none" xmlns="http://www.w3.org/2000/svg">
<rect x="7" y="43.5" width="303" height="44" rx="5" fill="#00730C"/>
<path d="M118.656 70.66C117.408 70.66 116.352 70.4253 115.488 69.956C114.635 69.4867 113.984 68.82 113.536 67.956C113.088 67.092 112.864 66.068 112.864 64.884C112.864 63.6893 113.093 62.66 113.552 61.796C114.011 60.9213 114.672 60.2493 115.536 59.78C116.4 59.3 117.435 59.06 118.64 59.06C119.237 59.06 119.835 59.1347 120.432 59.284C121.04 59.4227 121.611 59.6627 122.144 60.004C122.379 60.1427 122.512 60.3293 122.544 60.564C122.587 60.788 122.555 61.0013 122.448 61.204C122.341 61.4067 122.181 61.5507 121.968 61.636C121.755 61.7107 121.52 61.6733 121.264 61.524C120.859 61.2893 120.448 61.1187 120.032 61.012C119.616 60.9053 119.152 60.852 118.64 60.852C117.445 60.852 116.539 61.1987 115.92 61.892C115.312 62.5853 115.008 63.5827 115.008 64.884C115.008 66.196 115.323 67.1933 115.952 67.876C116.581 68.5587 117.515 68.9 118.752 68.9C119.104 68.9 119.461 68.8733 119.824 68.82C120.197 68.756 120.565 68.6653 120.928 68.548V65.924H119.168C118.613 65.924 118.336 65.668 118.336 65.156C118.336 64.6547 118.613 64.404 119.168 64.404H121.808C122.363 64.404 122.64 64.6813 122.64 65.236V69.124C122.64 69.6147 122.448 69.9293 122.064 70.068C121.595 70.2387 121.056 70.3827 120.448 70.5C119.84 70.6067 119.243 70.66 118.656 70.66ZM128.677 70.66C127.792 70.66 127.029 70.4947 126.389 70.164C125.749 69.8333 125.253 69.364 124.901 68.756C124.56 68.148 124.389 67.428 124.389 66.596C124.389 65.7853 124.555 65.076 124.885 64.468C125.227 63.86 125.691 63.3853 126.277 63.044C126.875 62.692 127.552 62.516 128.309 62.516C129.419 62.516 130.293 62.868 130.933 63.572C131.584 64.276 131.909 65.236 131.909 66.452C131.909 66.8467 131.653 67.044 131.141 67.044H126.309C126.459 68.4413 127.259 69.14 128.709 69.14C128.987 69.14 129.296 69.108 129.637 69.044C129.989 68.9693 130.32 68.8467 130.629 68.676C130.907 68.516 131.141 68.468 131.333 68.532C131.525 68.5853 131.659 68.6973 131.733 68.868C131.819 69.0387 131.829 69.2307 131.765 69.444C131.712 69.6467 131.563 69.8227 131.317 69.972C130.944 70.2067 130.512 70.3827 130.021 70.5C129.541 70.6067 129.093 70.66 128.677 70.66ZM128.389 63.876C127.803 63.876 127.328 64.0573 126.965 64.42C126.603 64.7827 126.384 65.2733 126.309 65.892H130.245C130.203 65.2413 130.021 64.7453 129.701 64.404C129.392 64.052 128.955 63.876 128.389 63.876ZM137.046 70.66C134.977 70.66 133.942 69.636 133.942 67.588V64.18H133.11C132.577 64.18 132.31 63.9293 132.31 63.428C132.31 62.9267 132.577 62.676 133.11 62.676H133.942V61.22C133.942 60.548 134.278 60.212 134.95 60.212C135.611 60.212 135.942 60.548 135.942 61.22V62.676H137.638C138.171 62.676 138.438 62.9267 138.438 63.428C138.438 63.9293 138.171 64.18 137.638 64.18H135.942V67.476C135.942 67.988 136.054 68.372 136.278 68.628C136.502 68.884 136.865 69.012 137.366 69.012C137.547 69.012 137.707 68.996 137.846 68.964C137.985 68.932 138.107 68.9107 138.214 68.9C138.342 68.8893 138.449 68.932 138.534 69.028C138.619 69.1133 138.662 69.2947 138.662 69.572C138.662 69.7853 138.625 69.9773 138.55 70.148C138.486 70.308 138.363 70.42 138.182 70.484C138.043 70.5267 137.862 70.564 137.638 70.596C137.414 70.6387 137.217 70.66 137.046 70.66ZM144.25 70.628C143.877 70.628 143.61 70.5 143.45 70.244C143.29 69.988 143.296 69.6787 143.466 69.316L147.69 59.956C147.829 59.6467 147.994 59.428 148.186 59.3C148.389 59.1613 148.618 59.092 148.874 59.092C149.12 59.092 149.338 59.1613 149.53 59.3C149.733 59.428 149.904 59.6467 150.042 59.956L154.282 69.316C154.453 69.6893 154.464 70.004 154.314 70.26C154.165 70.5053 153.909 70.628 153.546 70.628C153.248 70.628 153.013 70.5587 152.842 70.42C152.682 70.2707 152.538 70.0467 152.41 69.748L151.61 67.892H146.106L145.322 69.748C145.184 70.0573 145.04 70.2813 144.89 70.42C144.741 70.5587 144.528 70.628 144.25 70.628ZM148.842 61.444L146.81 66.26H150.906L148.874 61.444H148.842ZM169.764 72.308C169.946 72.596 169.994 72.852 169.908 73.076C169.834 73.3107 169.679 73.4813 169.444 73.588C169.22 73.7053 168.975 73.7373 168.708 73.684C168.452 73.6307 168.234 73.46 168.052 73.172L166.948 71.396C166.65 70.9053 166.143 70.66 165.428 70.66C164.34 70.66 163.391 70.42 162.58 69.94C161.77 69.46 161.14 68.788 160.692 67.924C160.244 67.0493 160.02 66.0253 160.02 64.852C160.02 63.668 160.244 62.644 160.692 61.78C161.14 60.916 161.77 60.2493 162.58 59.78C163.391 59.3 164.346 59.06 165.444 59.06C166.543 59.06 167.498 59.3 168.308 59.78C169.119 60.2493 169.748 60.916 170.196 61.78C170.644 62.644 170.868 63.6627 170.868 64.836C170.868 66.116 170.602 67.2147 170.068 68.132C169.546 69.0493 168.82 69.7213 167.892 70.148C168.127 70.2333 168.335 70.3613 168.516 70.532C168.708 70.7027 168.895 70.932 169.076 71.22L169.764 72.308ZM165.444 68.9C166.479 68.9 167.284 68.5427 167.86 67.828C168.436 67.1133 168.724 66.1213 168.724 64.852C168.724 63.572 168.436 62.58 167.86 61.876C167.295 61.172 166.49 60.82 165.444 60.82C164.41 60.82 163.604 61.172 163.028 61.876C162.452 62.58 162.164 63.572 162.164 64.852C162.164 66.1213 162.452 67.1133 163.028 67.828C163.604 68.5427 164.41 68.9 165.444 68.9ZM175.591 70.66C173.671 70.66 172.711 69.5827 172.711 67.428V63.556C172.711 62.884 173.041 62.548 173.703 62.548C174.375 62.548 174.711 62.884 174.711 63.556V67.46C174.711 68.0147 174.823 68.4253 175.047 68.692C175.271 68.9587 175.628 69.092 176.119 69.092C176.652 69.092 177.089 68.9107 177.431 68.548C177.772 68.1747 177.943 67.684 177.943 67.076V63.556C177.943 62.884 178.273 62.548 178.935 62.548C179.607 62.548 179.943 62.884 179.943 63.556V69.604C179.943 70.2867 179.617 70.628 178.967 70.628C178.316 70.628 177.991 70.2867 177.991 69.604V69.332C177.468 70.2173 176.668 70.66 175.591 70.66ZM184.6 70.66C184.035 70.66 183.528 70.5533 183.08 70.34C182.643 70.116 182.296 69.8173 182.04 69.444C181.795 69.0707 181.672 68.6493 181.672 68.18C181.672 67.604 181.822 67.1507 182.12 66.82C182.419 66.4787 182.904 66.2333 183.576 66.084C184.248 65.9347 185.15 65.86 186.28 65.86H186.84V65.524C186.84 64.9907 186.723 64.6067 186.488 64.372C186.254 64.1373 185.859 64.02 185.304 64.02C184.995 64.02 184.659 64.0573 184.296 64.132C183.944 64.2067 183.571 64.3347 183.176 64.516C182.92 64.6333 182.707 64.6493 182.536 64.564C182.366 64.468 182.248 64.324 182.184 64.132C182.131 63.9293 182.142 63.7267 182.216 63.524C182.302 63.3213 182.467 63.172 182.712 63.076C183.203 62.8733 183.672 62.7293 184.12 62.644C184.579 62.5587 184.995 62.516 185.368 62.516C186.51 62.516 187.358 62.7827 187.912 63.316C188.467 63.8387 188.744 64.6547 188.744 65.764V69.604C188.744 70.2867 188.435 70.628 187.816 70.628C187.187 70.628 186.872 70.2867 186.872 69.604V69.252C186.691 69.6893 186.403 70.036 186.008 70.292C185.614 70.5373 185.144 70.66 184.6 70.66ZM185.016 69.284C185.539 69.284 185.971 69.1027 186.312 68.74C186.664 68.3773 186.84 67.9187 186.84 67.364V67.012H186.296C185.294 67.012 184.595 67.092 184.2 67.252C183.816 67.4013 183.624 67.6787 183.624 68.084C183.624 68.436 183.747 68.724 183.992 68.948C184.238 69.172 184.579 69.284 185.016 69.284ZM194.358 70.66C192.289 70.66 191.254 69.636 191.254 67.588V64.18H190.422C189.889 64.18 189.622 63.9293 189.622 63.428C189.622 62.9267 189.889 62.676 190.422 62.676H191.254V61.22C191.254 60.548 191.59 60.212 192.262 60.212C192.924 60.212 193.254 60.548 193.254 61.22V62.676H194.95C195.484 62.676 195.75 62.9267 195.75 63.428C195.75 63.9293 195.484 64.18 194.95 64.18H193.254V67.476C193.254 67.988 193.366 68.372 193.59 68.628C193.814 68.884 194.177 69.012 194.678 69.012C194.86 69.012 195.02 68.996 195.158 68.964C195.297 68.932 195.42 68.9107 195.526 68.9C195.654 68.8893 195.761 68.932 195.846 69.028C195.932 69.1133 195.974 69.2947 195.974 69.572C195.974 69.7853 195.937 69.9773 195.862 70.148C195.798 70.308 195.676 70.42 195.494 70.484C195.356 70.5267 195.174 70.564 194.95 70.596C194.726 70.6387 194.529 70.66 194.358 70.66ZM200.693 70.66C199.808 70.66 199.045 70.4947 198.405 70.164C197.765 69.8333 197.269 69.364 196.917 68.756C196.576 68.148 196.405 67.428 196.405 66.596C196.405 65.7853 196.57 65.076 196.901 64.468C197.242 63.86 197.706 63.3853 198.293 63.044C198.89 62.692 199.568 62.516 200.325 62.516C201.434 62.516 202.309 62.868 202.949 63.572C203.6 64.276 203.925 65.236 203.925 66.452C203.925 66.8467 203.669 67.044 203.157 67.044H198.325C198.474 68.4413 199.274 69.14 200.725 69.14C201.002 69.14 201.312 69.108 201.653 69.044C202.005 68.9693 202.336 68.8467 202.645 68.676C202.922 68.516 203.157 68.468 203.349 68.532C203.541 68.5853 203.674 68.6973 203.749 68.868C203.834 69.0387 203.845 69.2307 203.781 69.444C203.728 69.6467 203.578 69.8227 203.333 69.972C202.96 70.2067 202.528 70.3827 202.037 70.5C201.557 70.6067 201.109 70.66 200.693 70.66ZM200.405 63.876C199.818 63.876 199.344 64.0573 198.981 64.42C198.618 64.7827 198.4 65.2733 198.325 65.892H202.261C202.218 65.2413 202.037 64.7453 201.717 64.404C201.408 64.052 200.97 63.876 200.405 63.876Z" fill="white"/>
<g opacity="0.5">
<g filter="url(#filter0_f_673_25713)">
<rect x="74" y="74" width="169" height="12" rx="5" fill="#00730C"/>
</g>
</g>
<defs>
<filter id="filter0_f_673_25713" x="0" y="0" width="317" height="160" filterUnits="userSpaceOnUse" color-interpolation-filters="sRGB">
<feFlood flood-opacity="0" result="BackgroundImageFix"/>
<feBlend mode="normal" in="SourceGraphic" in2="BackgroundImageFix" result="shape"/>
<feGaussianBlur stdDeviation="37" result="effect1_foregroundBlur_673_25713"/>
</filter>
</defs>
</svg>
