<svg width="40" height="40" viewBox="0 0 40 40" fill="none" xmlns="http://www.w3.org/2000/svg">
<g filter="url(#filter0_d_18045_28891)">
<path d="M20 0C8.95374 0 0 8.95374 0 20C0 31.045 8.95374 40 20 40C31.045 40 40 31.045 40 20C40 8.95374 31.045 0 20 0ZM20 37.5C10.35 37.5 2.50004 29.65 2.50004 20C2.50004 10.35 10.35 2.46128 20 2.46128C29.65 2.46128 37.5 10.35 37.5 20C37.5 29.65 29.65 37.5 20 37.5Z" fill="white"/>
</g>
<g filter="url(#filter1_d_18045_28891)">
<path d="M17.26 10.3389C16.7712 9.84636 15.98 9.84636 15.4924 10.3389C15.0037 10.8326 15.0037 11.6313 15.4924 12.1251L23.2362 19.9813L15.4912 27.8375C15.0024 28.33 15.0024 29.1299 15.4912 29.6237C15.98 30.1162 16.7712 30.1162 17.2587 29.6237L25.8837 20.875C26.3587 20.3937 26.36 19.5699 25.8837 19.0887L17.26 10.3389Z" fill="white"/>
</g>
<defs>
<filter id="filter0_d_18045_28891" x="-4" y="-1" width="50" height="50" filterUnits="userSpaceOnUse" color-interpolation-filters="sRGB">
<feFlood flood-opacity="0" result="BackgroundImageFix"/>
<feColorMatrix in="SourceAlpha" type="matrix" values="0 0 0 0 0 0 0 0 0 0 0 0 0 0 0 0 0 0 127 0" result="hardAlpha"/>
<feOffset dx="1" dy="4"/>
<feGaussianBlur stdDeviation="2.5"/>
<feComposite in2="hardAlpha" operator="out"/>
<feColorMatrix type="matrix" values="0 0 0 0 0 0 0 0 0 0 0 0 0 0 0 0 0 0 0.2 0"/>
<feBlend mode="normal" in2="BackgroundImageFix" result="effect1_dropShadow_18045_28891"/>
<feBlend mode="normal" in="SourceGraphic" in2="effect1_dropShadow_18045_28891" result="shape"/>
</filter>
<filter id="filter1_d_18045_28891" x="11.1246" y="8.96948" width="21.1158" height="30.0237" filterUnits="userSpaceOnUse" color-interpolation-filters="sRGB">
<feFlood flood-opacity="0" result="BackgroundImageFix"/>
<feColorMatrix in="SourceAlpha" type="matrix" values="0 0 0 0 0 0 0 0 0 0 0 0 0 0 0 0 0 0 127 0" result="hardAlpha"/>
<feOffset dx="1" dy="4"/>
<feGaussianBlur stdDeviation="2.5"/>
<feComposite in2="hardAlpha" operator="out"/>
<feColorMatrix type="matrix" values="0 0 0 0 0 0 0 0 0 0 0 0 0 0 0 0 0 0 0.2 0"/>
<feBlend mode="normal" in2="BackgroundImageFix" result="effect1_dropShadow_18045_28891"/>
<feBlend mode="normal" in="SourceGraphic" in2="effect1_dropShadow_18045_28891" result="shape"/>
</filter>
</defs>
</svg>
