<svg width="60" height="60" viewBox="0 0 60 60" fill="none" xmlns="http://www.w3.org/2000/svg">
<path d="M6.65625 32.5776H11.1562V53.3425H6.65625V32.5776Z" fill="#966342"/>
<path d="M31.9103 39.8665H33.1208C33.5666 39.8665 33.9974 39.7049 34.3333 39.4117C34.6693 39.1184 34.8875 38.7134 34.9478 38.2716L34.9669 38.1317C35.0026 37.8709 34.9821 37.6053 34.9067 37.3531C34.8313 37.1008 34.7027 36.8676 34.5296 36.6691C34.3565 36.4707 34.1429 36.3116 33.9032 36.2027C33.6635 36.0937 33.4032 36.0373 33.1399 36.0374H27.5149L28.6875 28.3739C28.7642 27.8723 28.6939 27.3593 28.4851 26.8969C28.2763 26.4345 27.938 26.0425 27.5111 25.7684L25.6406 24.5684L24.0217 28.7691C23.3113 30.6121 22.1458 32.2452 20.6338 33.5161C19.1219 34.7871 17.3127 35.6544 15.375 36.0374H11.1562V49.8805H14.7097C15.2123 49.8805 15.7074 50.0012 16.1536 50.2323C16.5998 50.4634 16.9841 50.7983 17.274 51.2087C17.5638 51.6191 17.9479 51.954 18.394 52.1852C18.84 52.4164 19.3351 52.5372 19.8375 52.5374H31.3916C31.8374 52.5373 32.2681 52.3757 32.604 52.0826C32.9399 51.7895 33.1583 51.3846 33.2186 50.9429C33.2542 50.682 33.2336 50.4166 33.1581 50.1645C33.0826 49.9123 32.9539 49.6792 32.7809 49.4809C32.6078 49.2826 32.3943 49.1236 32.1546 49.0146C31.915 48.9057 31.6549 48.8493 31.3916 48.8492H31.8949C32.3407 48.8492 32.7714 48.6876 33.1073 48.3945C33.4432 48.1013 33.6615 47.6964 33.7219 47.2547L33.8314 46.4507C33.867 46.1899 33.8463 45.9245 33.7708 45.6723C33.6953 45.4202 33.5667 45.1871 33.3936 44.9888C33.2205 44.7904 33.007 44.6314 32.7674 44.5225C32.5278 44.4135 32.2676 44.3572 32.0044 44.3571H32.508C32.9538 44.357 33.3845 44.1955 33.7204 43.9024C34.0563 43.6092 34.2746 43.2043 34.335 42.7626L34.4445 41.9586C34.4801 41.6978 34.4594 41.4324 34.3839 41.1803C34.3084 40.9281 34.1798 40.6951 34.0067 40.4968C33.8337 40.2985 33.6201 40.1395 33.3805 40.0306C33.1409 39.9217 32.8807 39.8653 32.6175 39.8654L31.9103 39.8665Z" fill="#C4D4E0"/>
<path d="M51.4687 6.65503H31.9219C31.4246 6.65503 30.9477 6.85257 30.596 7.2042C30.2444 7.55583 30.0469 8.03275 30.0469 8.53003V21.5272C30.0469 22.0244 30.2444 22.5013 30.596 22.853C30.9477 23.2046 31.4246 23.4022 31.9219 23.4022H38.1094V28.7343L45.2812 23.4022H51.4687C51.966 23.4022 52.4429 23.2046 52.7946 22.853C53.1462 22.5013 53.3437 22.0244 53.3437 21.5272V8.53003C53.3437 8.2838 53.2952 8.03998 53.201 7.8125C53.1068 7.58501 52.9687 7.37831 52.7946 7.2042C52.6205 7.03009 52.4138 6.89198 52.1863 6.79776C51.9588 6.70353 51.715 6.65503 51.4687 6.65503Z" fill="#349966"/>
<path d="M41.6721 11.637L42.7742 13.8697L45.2387 14.2278L43.4552 15.9663L43.8763 18.4207L41.6721 17.262L39.4678 18.4207L39.889 15.9663L38.1055 14.2278L40.57 13.8697L41.6721 11.637Z" fill="#FFF06D"/>
<path d="M33.1399 35.3824H28.2799L29.3366 28.4734C29.4321 27.8464 29.3441 27.2052 29.0831 26.6272C28.8221 26.0492 28.3993 25.5591 27.8659 25.2161L25.9954 24.0161C25.9134 23.9636 25.8208 23.93 25.7242 23.9176C25.6276 23.9053 25.5295 23.9146 25.437 23.9449C25.3445 23.9751 25.2598 24.0256 25.1892 24.0926C25.1186 24.1596 25.0637 24.2414 25.0286 24.3323L23.4094 28.5323C22.7475 30.265 21.6575 31.802 20.2411 32.9997C18.8247 34.1974 17.1281 35.0168 15.3094 35.3816H11.8125V32.5778C11.8124 32.4037 11.7432 32.2369 11.6202 32.1138C11.4971 31.9908 11.3303 31.9216 11.1562 31.9215H6.65625C6.48223 31.9216 6.31537 31.9908 6.19232 32.1138C6.06927 32.2369 6.0001 32.4037 6 32.5778V53.3426C5.9999 53.4289 6.0168 53.5143 6.04973 53.594C6.08266 53.6738 6.13098 53.7462 6.19192 53.8073C6.25287 53.8683 6.32524 53.9168 6.40491 53.9498C6.48458 53.9829 6.56999 54 6.65625 54H11.1562C11.3303 53.9999 11.4971 53.9307 11.6202 53.8077C11.7432 53.6846 11.8124 53.5178 11.8125 53.3438V50.5391H14.7097C15.1072 50.5393 15.4987 50.6347 15.8516 50.8174C16.2046 51.0001 16.5086 51.2647 16.7381 51.5891C17.0889 52.0851 17.5536 52.4898 18.093 52.7692C18.6325 53.0486 19.2311 53.1945 19.8386 53.1949H30.0469C30.2209 53.1949 30.3878 53.1257 30.5109 53.0027C30.634 52.8796 30.7031 52.7127 30.7031 52.5386C30.7031 52.3646 30.634 52.1977 30.5109 52.0746C30.3878 51.9515 30.2209 51.8824 30.0469 51.8824H19.8375C19.4401 51.8822 19.0485 51.7867 18.6956 51.604C18.3427 51.4214 18.0387 51.1567 17.8091 50.8324C17.4583 50.3363 16.9937 49.9316 16.4542 49.6522C15.9148 49.3727 15.3162 49.2267 14.7086 49.2262H11.8125V36.6949H15.375C15.4178 36.6949 15.4605 36.6907 15.5025 36.6825C17.5513 36.2837 19.4648 35.3695 21.0625 34.0263C22.6601 32.6831 23.8893 30.955 24.6341 29.0051L25.9639 25.5551L27.1567 26.3213C27.4767 26.527 27.7303 26.8209 27.8869 27.1676C28.0435 27.5143 28.0964 27.8989 28.0391 28.275L26.8669 35.9393C26.8525 36.0327 26.8586 36.1282 26.8846 36.2192C26.9107 36.3101 26.956 36.3944 27.0176 36.4661C27.0793 36.5379 27.1557 36.5955 27.2416 36.635C27.3276 36.6745 27.421 36.6949 27.5156 36.6949H33.1406C33.3103 36.6948 33.4781 36.7311 33.6326 36.8013C33.7871 36.8715 33.9248 36.9741 34.0363 37.102C34.1478 37.2299 34.2306 37.3803 34.2791 37.543C34.3276 37.7056 34.3406 37.8768 34.3174 38.0449L34.2982 38.1848C34.2585 38.4689 34.1177 38.7291 33.9015 38.9177C33.6853 39.1063 33.4084 39.2107 33.1215 39.2115H31.9102C31.7362 39.2115 31.5693 39.2806 31.4462 39.4037C31.3231 39.5268 31.254 39.6937 31.254 39.8678C31.254 40.0418 31.3231 40.2087 31.4462 40.3318C31.5693 40.4549 31.7362 40.524 31.9102 40.524H32.6175C32.7872 40.524 32.9549 40.5604 33.1093 40.6307C33.2638 40.7009 33.4014 40.8035 33.5129 40.9314C33.6244 41.0593 33.7072 41.2096 33.7557 41.3722C33.8042 41.5348 33.8174 41.7059 33.7942 41.874L33.6844 42.675C33.6447 42.9592 33.5039 43.2195 33.2877 43.4082C33.0716 43.5969 32.7946 43.7013 32.5076 43.7021H31.5349C31.3608 43.7021 31.1939 43.7713 31.0708 43.8943C30.9478 44.0174 30.8786 44.1843 30.8786 44.3584C30.8786 44.5324 30.9478 44.6993 31.0708 44.8224C31.1939 44.9455 31.3608 45.0146 31.5349 45.0146H32.0047C32.1743 45.0146 32.3418 45.0509 32.4961 45.121C32.6504 45.1912 32.7879 45.2936 32.8994 45.4213C33.0108 45.549 33.0936 45.6991 33.1422 45.8615C33.1908 46.0239 33.2041 46.1948 33.1811 46.3628L33.0712 47.1671C33.0316 47.4513 32.8908 47.7115 32.6747 47.9002C32.4586 48.0889 32.1817 48.1933 31.8949 48.1942H31.1595C30.9854 48.1942 30.8185 48.2634 30.6955 48.3865C30.5724 48.5095 30.5032 48.6765 30.5032 48.8505C30.5032 49.0245 30.5724 49.1915 30.6955 49.3145C30.8185 49.4376 30.9854 49.5067 31.1595 49.5067H31.3916C31.5612 49.5067 31.7287 49.5429 31.8831 49.6131C32.0375 49.6832 32.175 49.7855 32.2865 49.9133C32.398 50.041 32.4808 50.1911 32.5295 50.3535C32.5781 50.516 32.5913 50.6869 32.5684 50.8549C32.5448 51.0273 32.5908 51.2021 32.6961 51.3406C32.8014 51.4792 32.9575 51.5703 33.1299 51.5938C33.3024 51.6173 33.4771 51.5714 33.6157 51.4661C33.7543 51.3608 33.8454 51.2047 33.8689 51.0322C33.9164 50.6839 33.8899 50.3294 33.7911 49.992C33.6923 49.6545 33.5234 49.3417 33.2955 49.074C33.5862 48.8773 33.8322 48.6217 34.0177 48.3237C34.2032 48.0258 34.3239 47.6921 34.3721 47.3445L34.482 46.5401C34.5295 46.1918 34.5029 45.8373 34.4041 45.4999C34.3053 45.1624 34.1365 44.8496 33.9086 44.5819C34.1993 44.3852 34.4453 44.1295 34.6308 43.8316C34.8163 43.5336 34.937 43.2 34.9852 42.8524L35.0951 42.048C35.1426 41.6996 35.1161 41.3452 35.0173 41.0077C34.9185 40.6703 34.7496 40.3575 34.5217 40.0898C34.8125 39.893 35.0586 39.6373 35.244 39.3393C35.4295 39.0413 35.5502 38.7076 35.5984 38.3599L35.6171 38.2204C35.6654 37.8668 35.6374 37.5069 35.535 37.165C35.4327 36.8231 35.2583 36.5071 35.0236 36.2382C34.7889 35.9693 34.4994 35.7537 34.1745 35.6061C33.8495 35.4584 33.4968 35.382 33.1399 35.382V35.3824ZM10.5 52.6875H7.3125V33.234H10.5V52.6875Z" fill="black"/>
<path d="M35.4883 7.3125H38.105C38.2791 7.3125 38.446 7.24336 38.5691 7.12029C38.6921 6.99722 38.7613 6.8303 38.7613 6.65625C38.7613 6.4822 38.6921 6.31528 38.5691 6.19221C38.446 6.06914 38.2791 6 38.105 6H35.4883C35.3142 6 35.1473 6.06914 35.0242 6.19221C34.9012 6.31528 34.832 6.4822 34.832 6.65625C34.832 6.8303 34.9012 6.99722 35.0242 7.12029C35.1473 7.24336 35.3142 7.3125 35.4883 7.3125Z" fill="black"/>
<path d="M51.4687 5.9999H41.6719C41.4978 5.9999 41.3309 6.06904 41.2078 6.19212C41.0848 6.31519 41.0156 6.48211 41.0156 6.65615C41.0156 6.8302 41.0848 6.99712 41.2078 7.12019C41.3309 7.24326 41.4978 7.3124 41.6719 7.3124H51.4687C51.7919 7.3128 52.1016 7.44133 52.3301 7.66981C52.5586 7.89828 52.6871 8.20804 52.6875 8.53115V21.5272C52.6871 21.8503 52.5586 22.16 52.3301 22.3885C52.1016 22.617 51.7919 22.7455 51.4687 22.7459H45.2812C45.1402 22.7459 45.0029 22.7914 44.8897 22.8757L38.7656 27.4285V23.4022C38.7656 23.2281 38.6965 23.0612 38.5734 22.9381C38.4503 22.815 38.2834 22.7459 38.1094 22.7459H31.9219C31.5988 22.7455 31.289 22.617 31.0605 22.3885C30.8321 22.16 30.7035 21.8503 30.7031 21.5272V8.53003C30.7035 8.20692 30.8321 7.89715 31.0605 7.66868C31.289 7.44021 31.5988 7.31168 31.9219 7.31128C32.0959 7.31128 32.2628 7.24214 32.3859 7.11907C32.509 6.996 32.5781 6.82908 32.5781 6.65503C32.5781 6.48098 32.509 6.31406 32.3859 6.19099C32.2628 6.06792 32.0959 5.99878 31.9219 5.99878C31.2508 5.99957 30.6074 6.26651 30.1329 6.74104C29.6584 7.21557 29.3914 7.85894 29.3906 8.53003V21.5272C29.3914 22.1982 29.6584 22.8416 30.1329 23.3161C30.6074 23.7907 31.2508 24.0576 31.9219 24.0584H37.4531V28.7343C37.4534 28.8558 37.4875 28.9748 37.5514 29.0781C37.6154 29.1814 37.7068 29.2649 37.8154 29.3193C37.924 29.3737 38.0456 29.3969 38.1666 29.3863C38.2877 29.3757 38.4034 29.3318 38.5009 29.2593L45.4984 24.0569H51.4687C52.1398 24.0561 52.7832 23.7892 53.2577 23.3146C53.7323 22.8401 53.9992 22.1967 54 21.5257V8.53003C53.9989 7.85914 53.7318 7.21606 53.2573 6.74177C52.7828 6.26748 52.1396 6.0007 51.4687 5.9999Z" fill="black"/>
<path d="M45.8625 14.0248C45.8248 13.9083 45.7552 13.8047 45.6616 13.7257C45.568 13.6467 45.4542 13.5955 45.333 13.5778L43.2097 13.2696L42.2602 11.3458C42.206 11.2361 42.1222 11.1437 42.0182 11.0791C41.9142 11.0145 41.7943 10.9802 41.6719 10.9802C41.5494 10.9802 41.4295 11.0145 41.3255 11.0791C41.2215 11.1437 41.1377 11.2361 41.0835 11.3458L40.134 13.2696L38.0107 13.5778C37.8896 13.5956 37.7758 13.6468 37.6822 13.7258C37.5887 13.8048 37.5191 13.9084 37.4813 14.0248C37.4435 14.1413 37.439 14.266 37.4684 14.3849C37.4977 14.5038 37.5597 14.6121 37.6474 14.6976L39.1849 16.1949L38.8222 18.3092C38.8016 18.4299 38.8151 18.5539 38.8613 18.6672C38.9075 18.7806 38.9844 18.8788 39.0835 18.9507C39.1825 19.0227 39.2997 19.0655 39.4218 19.0743C39.5439 19.0831 39.666 19.0576 39.7744 19.0007L41.6734 18.0028L43.572 19.0007C43.6803 19.0576 43.8025 19.0831 43.9246 19.0743C44.0466 19.0655 44.1638 19.0227 44.2629 18.9507C44.3619 18.8788 44.4389 18.7806 44.485 18.6672C44.5312 18.5539 44.5447 18.4299 44.5241 18.3092L44.1619 16.1949L45.6994 14.6976C45.7865 14.6118 45.848 14.5033 45.8768 14.3845C45.9057 14.2656 45.9007 14.141 45.8625 14.0248ZM42.9967 15.4956C42.9208 15.5701 42.8641 15.6619 42.8315 15.7631C42.7988 15.8644 42.7912 15.972 42.8092 16.0768L43.0057 17.2206L41.9782 16.6806C41.884 16.6311 41.7792 16.6052 41.6728 16.6052C41.5664 16.6052 41.4616 16.6311 41.3674 16.6806L40.3402 17.2206L40.5367 16.0768C40.5548 15.972 40.5471 15.8644 40.5145 15.7631C40.4818 15.6619 40.4251 15.5701 40.3492 15.4956L39.5179 14.6856L40.6665 14.5187C40.7718 14.5034 40.8718 14.4627 40.9578 14.4002C41.0439 14.3377 41.1136 14.2552 41.1607 14.1598L41.6741 13.1192L42.1875 14.1598C42.2346 14.2551 42.3042 14.3376 42.3902 14.4001C42.4762 14.4626 42.5761 14.5033 42.6814 14.5187L43.8304 14.6856L42.9967 15.4956Z" fill="black"/>
</svg>
