<svg width="57" height="46" viewBox="0 0 57 46" fill="none" xmlns="http://www.w3.org/2000/svg">
<path d="M31.8125 13.625V17.375C31.8124 19.8614 30.8246 22.2459 29.0665 24.004C27.3084 25.7621 24.9239 26.7499 22.4375 26.75H13.0625V21.3594C13.0635 18.8111 14.0762 16.3675 15.8781 14.5656C17.68 12.7637 20.1236 11.751 22.6719 11.75H29.9375C30.1837 11.7499 30.4276 11.7984 30.6551 11.8926C30.8826 11.9868 31.0894 12.1249 31.2635 12.299C31.4376 12.4731 31.5757 12.6799 31.6699 12.9074C31.7641 13.1349 31.8126 13.3788 31.8125 13.625Z" fill="#349966"/>
<path d="M20.5625 25.1094V38H16.8125V30.5H11.1875C8.70113 30.4999 6.31663 29.5121 4.5585 27.754C2.80037 25.9959 1.81261 23.6114 1.8125 21.125V17.375C1.81243 17.1288 1.86088 16.8849 1.95508 16.6574C2.04929 16.4299 2.1874 16.2231 2.36152 16.049C2.53564 15.8749 2.74237 15.7368 2.96989 15.6426C3.1974 15.5484 3.44125 15.4999 3.6875 15.5H10.9531C12.2151 15.4999 13.4646 15.7485 14.6305 16.2314C15.7964 16.7143 16.8558 17.4221 17.7481 18.3144C18.6404 19.2067 19.3482 20.2661 19.8311 21.432C20.314 22.5979 20.5626 23.8474 20.5625 25.1094Z" fill="#349966"/>
<path d="M46.8125 29.5625L42.0875 39.6875C41.5607 40.8164 40.814 41.829 39.8913 42.6661C38.9685 43.5031 37.8881 44.1478 36.7133 44.5625H29.5673C29.5567 44.5215 29.5461 44.4793 29.538 44.4371L28.7505 40.5043C28.3073 38.2848 28.6815 35.9798 29.8039 34.0145L35.5626 23.9375L46.8125 29.5625Z" fill="#C4D4E0"/>
<path d="M46.8125 11.75L37.2017 30.098C37.009 30.4657 36.9593 30.8917 37.0621 31.2939C37.1648 31.6961 37.4128 32.046 37.7582 32.2763C37.9543 32.407 38.1756 32.495 38.4079 32.5346C38.6402 32.5743 38.8782 32.5646 39.1065 32.5063C39.3348 32.4479 39.5483 32.3422 39.7331 32.1961C39.9179 32.0499 40.07 31.8665 40.1793 31.6577L49.625 13.625L46.8125 11.75Z" fill="#A6B2BC"/>
<path d="M43.7855 21.7029H43.7856C44.6093 22.0559 45.5358 22.0852 46.3802 21.7849C47.2245 21.4846 47.9245 20.8768 48.3404 20.083L55.3399 6.72013C55.5676 6.2855 55.703 5.80849 55.7375 5.31905C55.772 4.82962 55.7049 4.33833 55.5405 3.87605C55.3761 3.41377 55.1179 2.99047 54.7821 2.63274C54.4463 2.27501 54.0401 1.99058 53.5892 1.7973H53.5892C52.7655 1.44428 51.8389 1.41499 50.9945 1.71528C50.1502 2.01557 49.4502 2.62334 49.0343 3.4172L42.0348 16.7801C41.8071 17.2147 41.6718 17.6917 41.6372 18.1811C41.6027 18.6706 41.6698 19.1618 41.8342 19.6241C41.9986 20.0864 42.2568 20.5097 42.5926 20.8674C42.9284 21.2252 43.3346 21.5096 43.7855 21.7029Z" fill="#966342"/>
<path d="M24.3125 38.9376V42.6876H5.5625C5.5625 42.1297 5.72845 41.5843 6.03925 41.1209C6.35006 40.6576 6.79166 40.2971 7.30789 40.0854C7.82413 39.8737 8.39166 39.8204 8.93831 39.9321C9.48496 40.0439 9.98601 40.3157 10.3777 40.713C10.2095 40.1751 10.2068 39.599 10.3701 39.0596C10.5333 38.5201 10.8549 38.0422 11.2932 37.6878C11.7315 37.3334 12.2661 37.119 12.8278 37.0723C13.3895 37.0256 13.9522 37.1488 14.443 37.4259C14.6945 37.0307 15.0408 36.7047 15.4505 36.4776C15.8601 36.2504 16.3201 36.1293 16.7885 36.1252C17.2569 36.1211 17.7188 36.2342 18.1324 36.4542C18.5459 36.6742 18.8979 36.9941 19.1562 37.3849C19.4898 36.8809 19.9768 36.4978 20.5452 36.2924C21.1135 36.087 21.7329 36.0702 22.3116 36.2444C22.8903 36.4187 23.3974 36.7747 23.7578 37.2599C24.1182 37.745 24.3127 38.3333 24.3125 38.9376Z" fill="#AD7D4D"/>
<path d="M24.3125 41.75H2.75V43.625H24.3125V41.75Z" fill="#966342"/>
<path d="M46.8125 44.5626H20.6563C20.594 44.254 20.5626 43.94 20.5625 43.6251C20.5636 42.5463 20.9367 41.5009 21.6188 40.6652C22.3009 39.8294 23.2504 39.2544 24.3071 39.0372C25.3638 38.82 26.463 38.9738 27.4195 39.4727C28.376 39.9716 29.1313 40.785 29.5578 41.7759C29.6836 41.7584 29.8105 41.7498 29.9375 41.7501C30.3458 41.7497 30.7492 41.8384 31.1196 42.01C31.49 42.1817 31.8185 42.4321 32.082 42.7439C32.7746 42.1045 33.6825 41.7495 34.625 41.7495C35.5675 41.7495 36.4755 42.1045 37.168 42.7439C37.45 42.411 37.8056 42.1484 38.2066 41.9768C38.6077 41.8051 39.0432 41.7292 39.4786 41.755C39.9141 41.7808 40.3376 41.9077 40.7155 42.1255C41.0935 42.3433 41.4156 42.6461 41.6563 43.0099C41.9898 42.506 42.4769 42.1229 43.0452 41.9175C43.6135 41.7121 44.2329 41.6953 44.8116 41.8695C45.3902 42.0438 45.8974 42.3998 46.2578 42.8849C46.6182 43.37 46.8127 43.9583 46.8125 44.5626Z" fill="#AD7D4D"/>
<path d="M54.3125 43.625H17.75V45.5H54.3125V43.625Z" fill="#966342"/>
<path d="M49.1715 20.518L56.1711 7.15511C56.724 6.09859 56.8347 4.86573 56.4788 3.72763C56.1229 2.58952 55.3295 1.63937 54.2732 1.0861C53.2168 0.532838 51.984 0.421764 50.8458 0.777306C49.7076 1.13285 48.7571 1.92589 48.2035 2.98205L41.2039 16.3449C40.8687 16.9809 40.6919 17.6884 40.6884 18.4073C40.6849 19.1263 40.8549 19.8354 41.184 20.4746L39.016 24.6149L35.982 23.0984C35.7675 22.9915 35.5202 22.9706 35.2908 23.0402C35.0613 23.1097 34.8672 23.2643 34.7481 23.4723L28.9895 33.5492C28.1232 35.0678 27.6571 36.7816 27.6348 38.5297C26.8882 38.1807 26.0741 37.9999 25.25 38C25.2101 38 25.1715 38.0024 25.1316 38.0035C24.9234 37.1984 24.4539 36.4851 23.7967 35.9754C23.1394 35.4658 22.3317 35.1887 21.5 35.1875V27.6875H22.4375C25.1716 27.6843 27.7927 26.5968 29.726 24.6635C31.6592 22.7302 32.7468 20.1091 32.75 17.375V13.625C32.749 12.8794 32.4524 12.1646 31.9251 11.6374C31.3979 11.1101 30.6831 10.8135 29.9375 10.8125H22.6719C21.0247 10.8086 19.3997 11.1925 17.9284 11.9332C16.4571 12.6738 15.1808 13.7504 14.2027 15.0758C13.1532 14.735 12.0566 14.5618 10.9531 14.5625H3.6875C2.94188 14.5635 2.22709 14.8601 1.69985 15.3874C1.17262 15.9146 0.875989 16.6294 0.875 17.375V21.125C0.878225 23.8591 1.96575 26.4802 3.89902 28.4135C5.83229 30.3468 8.45344 31.4343 11.1875 31.4375H15.875V35.3059C15.226 35.4747 14.634 35.8142 14.1606 36.2891C13.6644 36.1373 13.1422 36.0901 12.6269 36.1505C12.1116 36.2109 11.6145 36.3775 11.1669 36.6399C10.7193 36.9022 10.331 37.2546 10.0265 37.6747C9.72204 38.0948 9.50804 38.5735 9.39805 39.0805C8.9171 38.9437 8.41363 38.9045 7.91732 38.9653C7.421 39.0261 6.94185 39.1855 6.5081 39.4343C6.07434 39.683 5.69475 40.0161 5.39168 40.4138C5.0886 40.8115 4.86817 41.2658 4.74336 41.75H2.75V43.625H5.5625C5.68562 43.6251 5.80755 43.6008 5.9213 43.5537C6.03506 43.5066 6.13842 43.4376 6.22548 43.3505C6.31255 43.2634 6.3816 43.1601 6.4287 43.0463C6.47581 42.9326 6.50003 42.8106 6.5 42.6875C6.5 42.1902 6.69754 41.7133 7.04918 41.3617C7.40081 41.0101 7.87772 40.8125 8.375 40.8125C8.87228 40.8125 9.34919 41.0101 9.70082 41.3617C10.0525 41.7133 10.25 42.1902 10.25 42.6875H12.125C12.1256 41.7962 11.8072 40.934 11.2274 40.2571C11.1702 39.9843 11.1746 39.7021 11.2403 39.4313C11.306 39.1604 11.4313 38.9076 11.6072 38.6913C11.783 38.475 12.0049 38.3008 12.2567 38.1812C12.5085 38.0616 12.7838 37.9997 13.0625 38C13.1024 38 13.141 38.0035 13.1797 38.0059C13.655 38.0368 14.1008 38.2469 14.4271 38.5939C14.7534 38.9408 14.9358 39.3987 14.9375 39.875H16.8125C16.8129 38.9381 16.4616 38.0352 15.8281 37.3449C16.1654 37.1347 16.5611 37.0376 16.9574 37.068C17.3537 37.0983 17.7299 37.2545 18.0312 37.5137C17.8454 37.9654 17.7499 38.4491 17.75 38.9375H19.625C19.6248 38.4913 19.7838 38.0597 20.0734 37.7202C20.363 37.3808 20.7643 37.1558 21.2049 37.0858C21.6456 37.0157 22.0968 37.1052 22.4774 37.3381C22.858 37.571 23.1431 37.932 23.2812 38.3563C22.2084 38.7585 21.2836 39.4783 20.6303 40.4197C19.9771 41.361 19.6264 42.4792 19.625 43.625H21.5C21.4998 42.8504 21.7396 42.0946 22.1863 41.4618C22.6331 40.829 23.265 40.3501 23.995 40.0909C24.7251 39.8318 25.5175 39.8052 26.2633 40.0148C27.009 40.2244 27.6716 40.6599 28.1598 41.2614C27.5639 41.5826 27.066 42.059 26.7188 42.6402C26.3715 43.2213 26.188 43.8856 26.1875 44.5625H28.0625C28.0625 44.0652 28.26 43.5883 28.6117 43.2367C28.9633 42.8851 29.4402 42.6875 29.9375 42.6875C30.4348 42.6875 30.9117 42.8851 31.2633 43.2367C31.615 43.5883 31.8125 44.0652 31.8125 44.5625H33.6875C33.6877 44.0214 33.5702 43.4868 33.343 42.9957C33.7397 42.7929 34.179 42.6873 34.6246 42.6875C35.0701 42.6877 35.5093 42.7938 35.9059 42.9969C35.6796 43.4878 35.5625 44.022 35.5625 44.5625H37.4375C37.4375 44.0652 37.635 43.5883 37.9867 43.2367C38.3383 42.8851 38.8152 42.6875 39.3125 42.6875C39.8098 42.6875 40.2867 42.8851 40.6383 43.2367C40.99 43.5883 41.1875 44.0652 41.1875 44.5625H43.0625C43.0626 44.0741 42.9671 43.5904 42.7813 43.1387C43.0534 42.9054 43.3868 42.7551 43.7419 42.7055C44.0969 42.656 44.4588 42.7093 44.7844 42.8592C45.1101 43.009 45.3859 43.2492 45.5792 43.5511C45.7725 43.853 45.8752 44.204 45.875 44.5625C45.875 44.6856 45.8992 44.8076 45.9463 44.9213C45.9934 45.0351 46.0625 45.1384 46.1495 45.2255C46.2366 45.3126 46.3399 45.3816 46.4537 45.4287C46.5675 45.4758 46.6894 45.5001 46.8125 45.5H54.3125V43.625H47.6316C47.4919 43.0834 47.2328 42.58 46.8732 42.1516C46.5137 41.7231 46.0628 41.3806 45.5537 41.149C45.0446 40.9174 44.4901 40.8027 43.9309 40.8132C43.3717 40.8237 42.8219 40.9592 42.3219 41.2098C42.55 40.8475 42.7555 40.4714 42.9371 40.0836L47.6621 29.9586C47.7651 29.7372 47.7778 29.4844 47.6975 29.2538C47.6172 29.0232 47.4502 28.833 47.232 28.7234L43.7 26.9574L45.8398 22.8723C46.5412 22.7696 47.2085 22.5029 47.7874 22.0938C48.3663 21.6847 48.8405 21.1448 49.1715 20.518ZM19.625 35.6926C19.4618 35.787 19.3059 35.8936 19.1586 36.0114C18.7442 35.6796 18.2641 35.4396 17.75 35.3071V30.5C17.75 30.3769 17.7258 30.255 17.6787 30.1412C17.6316 30.0275 17.5625 29.9241 17.4755 29.837C17.3884 29.75 17.2851 29.6809 17.1713 29.6338C17.0575 29.5867 16.9356 29.5625 16.8125 29.5625H14.9375C12.7005 29.56 10.5559 28.6702 8.97412 27.0884C7.39234 25.5066 6.50257 23.362 6.5 21.125V20.1875H4.625V21.125C4.62471 22.6467 4.96171 24.1496 5.61175 25.5254C6.26179 26.9013 7.20871 28.1159 8.38438 29.082C6.73831 28.5002 5.31284 27.4229 4.30392 25.9981C3.29499 24.5732 2.75215 22.8709 2.75 21.125V17.375C2.75033 17.1265 2.84921 16.8882 3.02495 16.7125C3.20069 16.5367 3.43896 16.4379 3.6875 16.4375H10.9531C13.2522 16.4403 15.4563 17.3548 17.082 18.9805C18.7077 20.6062 19.6223 22.8103 19.625 25.1094V35.6926ZM15.9828 15.841C16.7944 14.8525 17.8155 14.0568 18.9724 13.5114C20.1293 12.966 21.3929 12.6846 22.6719 12.6875H29.9375C30.186 12.6879 30.4243 12.7867 30.6 12.9625C30.7758 13.1382 30.8747 13.3765 30.875 13.625V17.375C30.8729 19.1217 30.3295 20.8248 29.3197 22.2499C28.3098 23.6751 26.8831 24.7522 25.2359 25.3332C26.4105 24.3656 27.3569 23.1506 28.0075 21.7749C28.6582 20.3992 28.9971 18.8968 29 17.375V16.4375H27.125V17.375C27.121 19.1192 26.5786 20.8195 25.5718 22.2437C24.565 23.668 23.1429 24.7465 21.5 25.332V25.1094C21.4987 23.2112 20.9855 21.3484 20.0146 19.7173C19.0436 18.0862 17.6508 16.7471 15.9828 15.841ZM45.5773 29.9926L41.2379 39.2914C40.9661 39.8733 40.6288 40.4221 40.2324 40.9274C39.7005 40.7924 39.1453 40.7762 38.6064 40.8799C38.0675 40.9836 37.558 41.2046 37.1141 41.5274C36.3684 41.0592 35.5055 40.8114 34.625 40.8125C34.5828 40.8125 34.5406 40.8149 34.4984 40.816L37.3227 35.6364L35.6773 34.7387L32.0188 41.4453C31.4563 41.0678 30.8016 40.8507 30.125 40.8172C29.9792 40.5637 29.8139 40.322 29.6305 40.0942C29.2979 38.1647 29.6472 36.1797 30.6184 34.4797L35.9363 25.1727L38.1453 26.2766L36.3723 29.6621C36.2125 29.9667 36.1143 30.2998 36.0834 30.6423C36.0524 30.9848 36.0891 31.3301 36.1916 31.6584C36.2941 31.9867 36.4602 32.2915 36.6806 32.5556C36.9009 32.8197 37.1711 33.0378 37.4757 33.1974C37.7803 33.357 38.1134 33.4551 38.456 33.4859C38.7985 33.5168 39.1438 33.4799 39.472 33.3773C39.8003 33.2747 40.1051 33.1084 40.3691 32.888C40.6331 32.6676 40.851 32.3973 41.0105 32.0926L42.8293 28.6192L45.5773 29.9926ZM39.35 31.2219C39.2866 31.3426 39.1914 31.4436 39.0747 31.514C38.958 31.5845 38.8242 31.6217 38.6879 31.6215C38.5421 31.6214 38.3997 31.5778 38.2789 31.4961C38.1255 31.3948 38.0154 31.2401 37.9699 31.062C37.9244 30.8839 37.9468 30.6953 38.0328 30.5328L42.4883 22.025C42.7748 22.2414 43.0865 22.4224 43.4164 22.5641C43.5443 22.6194 43.675 22.6683 43.8078 22.7106L39.35 31.2219ZM44.1547 20.8414C43.8226 20.6989 43.5235 20.4892 43.2763 20.2256C43.029 19.962 42.8389 19.6501 42.7179 19.3095C42.5968 18.969 42.5475 18.6071 42.5729 18.2466C42.5983 17.886 42.698 17.5347 42.8656 17.2145L49.8652 3.8516C50.1738 3.269 50.6895 2.82326 51.3107 2.60239C51.9318 2.38152 52.6132 2.40158 53.2203 2.65861C53.5524 2.80119 53.8515 3.01087 54.0987 3.27448C54.346 3.5381 54.5361 3.84996 54.6571 4.19052C54.7781 4.53107 54.8275 4.89296 54.8021 5.25348C54.7767 5.61401 54.677 5.96539 54.5094 6.28559L47.5098 19.6485C47.2012 20.2311 46.6855 20.6768 46.0643 20.8977C45.4432 21.1185 44.7618 21.0985 44.1547 20.8414Z" fill="black"/>
</svg>
