<svg width="47" height="46" viewBox="0 0 47 46" fill="none" xmlns="http://www.w3.org/2000/svg">
<path d="M44.3233 13.0681C41.5583 13.1167 31.3224 13.8535 30.2112 22.0553C30.1775 22.3044 30.418 22.5393 30.7347 22.5663C42.0182 23.5271 44.4581 15.7508 44.9142 13.6073C44.9737 13.3277 44.6823 13.0618 44.3233 13.0681Z" fill="#349966"/>
<path d="M11.0333 13.0681C13.7983 13.1167 24.0342 13.8535 25.1454 22.0553C25.1791 22.3044 24.9386 22.5393 24.6219 22.5663C13.3384 23.5271 10.8985 15.7508 10.4423 13.6073C10.3827 13.3277 10.6742 13.0618 11.0333 13.0681Z" fill="#349966"/>
<path d="M27.9661 0.843619C27.8104 0.617394 27.46 0.617394 27.3042 0.843619C25.8586 2.94416 20.482 11.755 27.6234 17.4563H27.6469C34.7883 11.7549 29.4116 2.94407 27.9661 0.843619Z" fill="#349966"/>
<path d="M16.7019 30.6293L12.23 33.9181L27.6353 40.7205L43.0406 33.9181L38.5687 30.6293C32.1985 25.9444 23.0721 25.9444 16.7019 30.6293Z" fill="#CE9875"/>
<path d="M32.5532 32.9064L37.0251 36.1952L37.366 36.4238L43.0405 33.9182L38.5686 30.6294C32.6382 26.2679 24.3198 25.9676 18.0596 29.7266C23.0416 28.7826 28.3868 29.8422 32.5532 32.9064Z" fill="#C6865C"/>
<path d="M43.064 32.6493L37.8083 35.197C36.4242 35.868 34.9075 36.241 33.3617 36.2906L33.4296 35.2568C33.3018 34.008 32.3128 33.0058 31.0347 32.8299L25.1606 32.1725C23.8055 31.986 23.1285 31.5446 21.9472 30.8728C20.7944 30.2172 18.6512 29.4199 17.4903 29.0994C15.452 28.5364 13.2496 28.8012 11.3937 29.7608L3.11426 34.0423L9.60174 43.5837L13.1407 40.6887C13.7075 40.225 14.4976 40.0718 15.2189 40.2856L21.1445 42.0421C21.7969 42.2787 22.4962 42.3674 23.1891 42.3019L34.9856 41.1856C35.7204 41.1161 36.4272 40.875 37.0455 40.4826L45.1885 35.3164C45.8421 34.7521 45.9633 33.8038 45.4716 33.1013C44.9335 32.3327 43.8578 32.1307 43.064 32.6493Z" fill="#FFDDCE"/>
<path d="M3.14443 34.0266L3.11426 34.0423L3.17568 34.1326L3.14443 34.0266Z" fill="#FFCBBE"/>
<path d="M45.4715 33.1014C44.9335 32.3326 43.8578 32.1306 43.064 32.6493L39.3371 34.4559C39.3371 34.4559 38.9682 35.2265 38.5581 36.0446C37.7955 37.5659 36.1808 38.5965 35.3718 38.673L23.1431 39.8302C22.4247 39.8982 21.6998 39.8061 21.0236 39.5609L14.8809 37.74C14.1332 37.5183 13.3141 37.6772 12.7266 38.1578L8.31592 41.6926L9.60172 43.5838L13.1407 40.6887C13.7075 40.2251 14.4976 40.0718 15.2189 40.2856L21.1445 42.0421C21.7969 42.2787 22.4961 42.3675 23.1891 42.302L34.9856 41.1857C35.7204 41.1161 36.4272 40.875 37.0455 40.4826L45.1884 35.3165C45.8421 34.7522 45.9633 33.804 45.4715 33.1014Z" fill="#FFCBBE"/>
<path d="M11.1873 44.251L9.4852 45.1573C8.8329 45.5046 7.99891 45.2985 7.62229 44.6969L1.41293 34.778C1.03632 34.1764 1.2598 33.4073 1.9121 33.06L3.61417 32.1537C4.26647 31.8064 5.10046 32.0125 5.47707 32.6141L11.6864 42.533C12.063 43.1345 11.8395 43.9037 11.1873 44.251Z" fill="#966342"/>
<path d="M46.0856 32.7357C45.328 31.6529 43.81 31.3688 42.6851 32.0715L42.0926 32.3587L39.0244 30.1023C35.9661 27.8531 32.2651 26.6286 28.5046 26.4635C28.6843 25.5618 29.1744 24.354 30.4295 23.1961C30.8004 23.2904 32.1671 23.3215 32.5943 23.3215C35.0969 23.3215 37.3123 22.8712 39.1995 21.9769C39.5585 21.8067 39.6998 21.4005 39.5154 21.0695C39.3308 20.7383 38.8902 20.6081 38.5316 20.7782C36.6965 21.6479 34.4862 22.0439 31.9503 21.9621C36.5292 18.4353 41.6562 15.6379 43.9346 14.4592C43.5423 15.6879 42.7289 17.5067 41.0978 19.0374C40.8149 19.3028 40.819 19.7294 41.1068 19.9903C41.3944 20.2508 41.8569 20.2475 42.14 19.9819C44.5789 17.6931 45.3942 14.8522 45.6315 13.7371C45.7842 13.0198 45.119 12.3847 44.3098 12.3943C37.1468 12.5203 30.3845 15.3451 29.4866 21.9717C29.4778 22.0368 29.4765 22.1018 29.4807 22.1663C29.0372 22.5649 28.6695 22.9705 28.3653 23.3731V17.7673C31.5288 15.1113 32.527 11.6062 31.7456 7.67777C31.0888 4.37638 29.3154 1.54587 28.5833 0.482304C28.1532 -0.142736 27.1423 -0.178404 26.6877 0.482214C25.9556 1.54587 24.1822 4.37629 23.5254 7.67777C22.7459 11.5963 23.7353 15.1048 26.904 17.7661V23.2591C26.6176 22.894 26.2782 22.5273 25.8765 22.1663C25.8807 22.1018 25.8795 22.0368 25.8706 21.9717C24.9741 15.3552 18.2077 12.5201 11.0474 12.3942C10.2307 12.3869 9.57381 13.0236 9.72568 13.7369C10.8649 19.0911 15.256 23.3228 22.7338 23.3228C23.1635 23.3228 24.5587 23.2898 24.9278 23.1959C26.1854 24.3548 26.6763 25.5587 26.8557 26.4592C23.9625 26.5705 21.0845 27.3096 18.4859 28.6937C18.1913 28.5971 17.9236 28.5152 17.6998 28.4535C15.5154 27.85 13.0868 28.1124 11.0363 29.1727L5.78643 31.8875C5.13325 31.2743 4.09537 31.1187 3.24881 31.5697L1.54665 32.476C0.546661 33.0086 0.202779 34.1922 0.780169 35.1145L6.98992 45.0336C7.5676 45.9563 8.84639 46.2753 9.85086 45.7405L11.5529 44.8343C12.5369 44.3102 12.8836 43.1563 12.3444 42.2408L13.6258 41.1926C13.9977 40.8884 14.5226 40.7866 14.9956 40.927L20.9 42.6772C21.6356 42.9401 22.4502 43.0488 23.2639 42.9721L35.0603 41.8557C35.9137 41.775 36.7433 41.4921 37.4598 41.0376C46.1325 35.5322 45.6122 35.8737 45.6879 35.8082C46.5935 35.0266 46.7645 33.7057 46.0856 32.7357ZM42.0705 13.8905C39.478 15.2823 35.1836 17.749 31.238 20.7563C32.7695 15.7395 38.4541 14.2947 42.0705 13.8905ZM24.1219 20.7582C20.1809 17.7541 15.8914 15.2893 13.2973 13.8962C18.1695 14.4536 22.7901 16.378 24.1219 20.7582ZM11.4201 14.4582C13.6975 15.6361 18.827 18.4344 23.4076 21.9629C14.9994 22.2337 12.2716 17.1505 11.4201 14.4582ZM30.3083 7.92106C30.9346 11.0694 30.2804 13.722 28.3653 15.8291V2.84887C29.0886 4.148 29.9158 5.94783 30.3083 7.92106ZM24.9628 7.92106C25.3551 5.94909 26.1814 4.15043 26.9042 2.85165V15.8274C24.9903 13.7205 24.3366 11.0686 24.9628 7.92106ZM38.1134 31.1561L40.6799 33.0436L37.4685 34.6004C36.4152 35.1112 35.2994 35.4327 34.1419 35.5601L34.1591 35.2973C34.1614 35.2626 34.1608 35.228 34.1572 35.1934C33.9973 33.6315 32.7578 32.3855 31.1426 32.1634C31.1361 32.1625 31.1295 32.1616 31.1228 32.161L25.2591 31.5046C23.4016 31.2465 23.1489 30.4956 20.2726 29.345C26.0458 26.7594 33.0404 27.4252 38.1134 31.1561ZM44.7236 34.7935L36.6316 39.9274C36.1164 40.2543 35.5217 40.4574 34.9113 40.5152L23.1149 41.6316C22.3083 41.7078 21.8087 41.5316 21.3683 41.4006L15.4426 39.6439C14.48 39.3589 13.4122 39.5658 12.6561 40.1845L11.6008 41.0478L9.23655 37.2713C9.0348 36.9489 8.58775 36.8388 8.23851 37.0247C7.88908 37.2107 7.76935 37.6228 7.9711 37.9451C8.37645 38.5926 10.2293 41.5523 11.054 42.8696C11.2284 43.1485 11.1245 43.5062 10.8222 43.6672L9.12014 44.5735C8.81649 44.735 8.43003 44.639 8.25527 44.3597L2.04591 34.4408C1.87143 34.1621 1.97528 33.8042 2.27766 33.6432L3.97973 32.737C4.28406 32.5749 4.67032 32.6722 4.8446 32.9507L6.25968 35.2112C6.46153 35.5334 6.90838 35.6438 7.25772 35.4578C7.60715 35.2717 7.72688 34.8596 7.52513 34.5373L6.57755 33.0238L11.7513 30.3483C13.4584 29.4654 15.474 29.2456 17.2809 29.7446C21.8168 30.9972 22.362 32.4684 25.0531 32.8386C25.0596 32.8395 25.0662 32.8404 25.0729 32.841L30.9362 33.4973C31.8642 33.6291 32.5812 34.3539 32.6969 35.2713L32.6716 35.6566L25.2181 36.1056C24.8154 36.1299 24.5103 36.4506 24.5366 36.822C24.5619 37.1784 24.8832 37.4519 25.265 37.4519C25.281 37.4519 25.2971 37.4514 25.3134 37.4504C33.2018 36.7931 34.9482 37.3448 38.1485 35.7932C43.7267 33.0867 43.4127 33.2472 43.4866 33.1988C43.9378 32.904 44.5433 33.0167 44.8581 33.4664C45.1507 33.8847 45.091 34.447 44.7236 34.7935Z" fill="black"/>
</svg>
