<svg width="51" height="50" viewBox="0 0 51 50" fill="none" xmlns="http://www.w3.org/2000/svg">
<g clip-path="url(#clip0_17901_2224)">
<path d="M29.792 42.6948V49.0234H36.5093V48.9659" fill="#E0B78E"/>
<path d="M36.5093 35.1644V31.0063L33.1459 28.4104L29.792 31.0063V48.6653" fill="#E0B78E"/>
<path d="M38.2373 25.5402C37.6473 25.5402 37.0697 25.4865 36.5093 25.3839V35.1645C37.5899 33.5339 38.9585 32.4722 38.9585 32.4722C38.9585 32.4722 39.3924 32.8088 39.9645 33.394V25.3841C39.4043 25.4865 38.8271 25.5402 38.2373 25.5402Z" fill="#F2D788"/>
<path d="M44.5007 8.81089C44.5937 8.37661 44.6426 7.92593 44.6426 7.46391C44.6426 3.92622 41.7749 1.05835 38.2374 1.05835C34.6999 1.05835 31.8321 3.92622 31.8321 7.46391C31.8321 7.92593 31.8811 8.37661 31.974 8.81089C29.9683 10.5593 28.7007 13.1331 28.7007 16.0029C28.7007 21.2701 32.9704 25.54 38.2373 25.54C43.5043 25.54 47.7739 21.2701 47.7739 16.0029C47.774 13.1331 46.5064 10.5593 44.5007 8.81089Z" fill="#00730C"/>
<path d="M25.0602 9.16611C24.9436 7.34414 23.4624 5.86943 21.6402 5.7585C21.3898 5.74326 21.1446 5.75381 20.9068 5.78682C20.9068 5.77705 20.9074 5.76748 20.9074 5.75771C20.9074 4.48262 19.8737 3.44893 18.5987 3.44893C17.9666 3.44893 17.3941 3.70322 16.9772 4.11475C16.2822 2.28096 14.5113 0.976562 12.434 0.976562C9.82306 0.976562 7.69367 3.03613 7.58029 5.61924C7.58019 5.6207 7.5796 5.62158 7.5796 5.62305C7.55304 5.9625 7.15695 5.89629 7.15695 5.89629L7.15753 5.89717C6.86554 5.84316 6.56144 5.82344 6.24923 5.84443C4.46281 5.96426 3.01427 7.41104 2.89327 9.19746C2.88517 9.31777 2.88292 9.43691 2.88624 9.55469C2.9421 11.5011 4.53751 13.0618 6.49757 13.0618H21.4132C23.382 13.0619 24.9874 11.5047 25.0651 9.55469C25.07 9.42666 25.0686 9.29707 25.0602 9.16611Z" fill="#73BEBC"/>
<path d="M21.4134 14.0384C21.4132 14.0384 21.4133 14.0384 21.4131 14.0384H6.49762C3.99703 14.0384 1.9819 12.0813 1.91012 9.58272C1.90582 9.43428 1.90875 9.28252 1.91891 9.13184C2.07321 6.85479 3.9067 5.02275 6.18395 4.87002C6.34879 4.85908 6.51412 4.85693 6.67936 4.86348C7.14186 2.08506 9.54508 0 12.4342 0C14.4445 0 16.304 1.05439 17.3609 2.71299C17.7492 2.55508 18.1679 2.47236 18.5989 2.47236C20.0723 2.47236 21.3223 3.44746 21.7377 4.78613C24.0428 4.94521 25.8871 6.79482 26.0349 9.10361C26.0453 9.26602 26.0473 9.43076 26.041 9.59316C25.9416 12.0859 23.9089 14.0384 21.4134 14.0384ZM6.49274 6.81279C6.43336 6.81279 6.37399 6.81484 6.31481 6.81885C5.00807 6.90645 3.95602 7.95732 3.86764 9.26338C3.86158 9.35127 3.85992 9.43984 3.86246 9.52617C3.90367 10.9612 5.0611 12.0852 6.49752 12.0852H21.4131C22.8563 12.0853 24.0318 10.9565 24.0891 9.51572C24.0929 9.42051 24.0917 9.32373 24.0856 9.22842V9.22832C23.9998 7.8876 22.923 6.81484 21.5809 6.73311C21.4016 6.72227 21.2197 6.7292 21.041 6.754C20.7586 6.79287 20.4751 6.70752 20.2618 6.52002C20.0484 6.33242 19.9274 6.06123 19.9301 5.77725C19.9303 5.76699 19.9305 5.75674 19.9309 5.74668C19.9248 5.01719 19.3296 4.42559 18.5987 4.42559C18.2464 4.42559 17.9141 4.56201 17.663 4.80986C17.4279 5.04199 17.0914 5.13916 16.7689 5.06894C16.4462 4.99844 16.1809 4.76973 16.0638 4.46074C15.4957 2.96084 14.037 1.95312 12.4342 1.95312C10.3509 1.95312 8.64742 3.58232 8.55602 5.66201C8.55572 5.66943 8.55524 5.67676 8.55475 5.68418C8.55367 5.70098 8.55211 5.71787 8.55006 5.73477C8.51363 6.08437 8.34742 6.39072 8.07936 6.60019C7.71139 6.88789 7.28756 6.89111 7.08112 6.8708C7.04752 6.86816 7.01393 6.86377 6.98033 6.85752C6.8192 6.82773 6.65582 6.81279 6.49274 6.81279Z" fill="black"/>
<path d="M9.60215 49.0234H2.87549V31.0063L6.23877 28.4104L9.60215 31.0063V49.0234Z" fill="#E0B78E"/>
<path d="M16.3293 49.0234H9.60254V31.0063L12.9659 28.4104L16.3293 31.0063V49.0234Z" fill="#C6865C"/>
<path d="M23.0559 49.0234H16.3291V31.0063L19.6925 28.4104L23.0559 31.0063V49.0234Z" fill="#E0B78E"/>
<path d="M29.7919 49.0234H23.0557V31.0063L26.419 28.4104L29.7919 31.0063V49.0234Z" fill="#C6865C"/>
<path d="M19.6919 33.9678C19.6285 33.9678 19.5649 33.9618 19.5015 33.9492C19.439 33.9365 19.3774 33.918 19.3189 33.8936C19.2603 33.8692 19.2036 33.8389 19.15 33.8037C19.0973 33.7676 19.0465 33.7266 19.0016 33.6817C18.8199 33.5001 18.7153 33.2482 18.7153 32.9913C18.7153 32.9279 18.7222 32.8643 18.7349 32.8009C18.7476 32.7384 18.7661 32.6768 18.7905 32.6183C18.8149 32.5598 18.8452 32.5031 18.8804 32.4493C18.9154 32.3967 18.9565 32.3458 19.0015 32.3009C19.0464 32.256 19.0971 32.215 19.1499 32.1798C19.2036 32.1447 19.2603 32.1144 19.3188 32.09C19.3774 32.0656 19.4389 32.0471 19.5014 32.0343C19.6273 32.0089 19.7572 32.0089 19.8832 32.0343C19.9458 32.0471 20.0073 32.0656 20.0658 32.09C20.1245 32.1144 20.1812 32.1447 20.2348 32.1798C20.2875 32.215 20.3383 32.256 20.3832 32.3009C20.4281 32.3458 20.4691 32.3966 20.5043 32.4493C20.5395 32.5031 20.5697 32.5598 20.5941 32.6183C20.6186 32.6768 20.6371 32.7384 20.6498 32.8009C20.6625 32.8643 20.6693 32.9279 20.6693 32.9913C20.6693 33.0558 20.6625 33.1193 20.6498 33.1827C20.6371 33.2452 20.6186 33.3058 20.5941 33.3654C20.5697 33.4239 20.5395 33.4806 20.5043 33.5333C20.4691 33.587 20.4281 33.6368 20.3832 33.6818C20.3383 33.7267 20.2876 33.7677 20.2348 33.8038C20.1811 33.839 20.1244 33.8693 20.0658 33.8937C20.0072 33.9181 19.9458 33.9366 19.8832 33.9493C19.8199 33.9619 19.7563 33.9678 19.6919 33.9678Z" fill="black"/>
<path d="M6.23867 33.9678C6.1752 33.9678 6.11074 33.9618 6.04824 33.9492C5.98574 33.9365 5.92422 33.918 5.86563 33.8936C5.80615 33.8691 5.74951 33.8389 5.69678 33.8037C5.64307 33.7676 5.59316 33.7266 5.54824 33.6816C5.50332 33.6367 5.4623 33.5869 5.42725 33.5332C5.39209 33.4805 5.36182 33.4238 5.3374 33.3652C5.31299 33.3057 5.29443 33.2451 5.28174 33.1826C5.26904 33.1191 5.26221 33.0557 5.26221 32.9912C5.26221 32.9277 5.26904 32.8642 5.28174 32.8008C5.29443 32.7383 5.31299 32.6767 5.3374 32.6182C5.36182 32.5597 5.39209 32.5029 5.42725 32.4492C5.4623 32.3966 5.50332 32.3457 5.54824 32.3008C5.59316 32.2559 5.64307 32.2148 5.69678 32.1797C5.74951 32.1446 5.80615 32.1143 5.86563 32.0898C5.92432 32.0654 5.98574 32.047 6.04824 32.0342C6.17422 32.0088 6.3041 32.0088 6.43008 32.0342C6.4916 32.047 6.55313 32.0654 6.6127 32.0898C6.67129 32.1143 6.72793 32.1446 6.78066 32.1797C6.83438 32.2148 6.88428 32.2559 6.9292 32.3008C6.97412 32.3457 7.01514 32.3965 7.05127 32.4492C7.08633 32.503 7.1167 32.5597 7.14111 32.6182C7.16553 32.6767 7.18398 32.7383 7.19668 32.8008C7.20947 32.8642 7.21523 32.9277 7.21523 32.9912C7.21523 33.248 7.11074 33.5 6.9291 33.6815C6.88418 33.7265 6.83428 33.7675 6.78057 33.8036C6.72783 33.8388 6.67119 33.869 6.6126 33.8935C6.55303 33.9179 6.4915 33.9364 6.42998 33.9491C6.3666 33.9619 6.30225 33.9678 6.23867 33.9678Z" fill="black"/>
<path d="M34.9439 39.9398C35.8926 40.1806 36.8048 40.6042 37.4915 41.3198C37.9849 41.8339 38.3229 42.458 38.5489 43.1237C38.684 43.1367 38.8207 43.1433 38.9589 43.1433C39.0971 43.1433 39.2339 43.1367 39.369 43.1237C39.5951 42.4579 39.9331 41.8339 40.4264 41.3198C41.114 40.6034 42.0275 40.1797 42.9773 39.939C43.0096 39.7486 43.0264 39.5534 43.0264 39.3544V36.0731C40.793 36.0731 38.9808 36.3206 38.96 38.4709H38.9584C38.9378 36.3205 37.1253 36.0731 34.8916 36.0731L34.8951 39.3544C34.8951 39.5536 34.9118 39.7491 34.9439 39.9398Z" fill="#FF6F52"/>
<path d="M38.958 38.4709H38.9596C38.9769 36.6772 40.2407 36.2075 41.9557 36.1011C40.8663 33.952 38.9585 32.4722 38.9585 32.4722C38.9585 32.4722 37.0507 33.9521 35.9614 36.1011C37.6767 36.2075 38.9407 36.6771 38.958 38.4709Z" fill="#F5E996"/>
<path d="M46.6577 47.3013C44.2948 49.7633 39.2634 48.7684 39.2634 48.7684C39.2634 48.7684 38.063 43.7818 40.4259 41.3198C42.7888 38.8578 47.8202 39.8527 47.8202 39.8527C47.8202 39.8527 49.0207 44.8392 46.6577 47.3013Z" fill="#00730C"/>
<path d="M31.2594 47.3013C33.6223 49.7633 38.6538 48.7684 38.6538 48.7684C38.6538 48.7684 39.8541 43.7818 37.4913 41.3198C35.1284 38.8578 30.0969 39.8527 30.0969 39.8527C30.0969 39.8527 28.8964 44.8392 31.2594 47.3013Z" fill="#00730C"/>
<path d="M48.7701 39.624C48.6809 39.2534 48.3841 38.9685 48.0101 38.8946C47.8795 38.8687 46.0486 38.5194 44.0028 38.7643V36.073C44.0028 35.5338 43.5655 35.0965 43.0263 35.0965C42.8717 35.0965 42.7013 35.0965 42.5194 35.0994C42.0303 34.2719 41.4546 33.5595 40.9413 33.0038V26.1643C45.4324 24.9682 48.7509 20.8659 48.7509 16.003C48.7509 13.1498 47.5922 10.4288 45.5536 8.45261C45.5974 8.12576 45.6194 7.79509 45.6194 7.46404C45.6194 3.39353 42.308 0.0819092 38.2377 0.0819092C34.1673 0.0819092 30.8559 3.39353 30.8559 7.46404C30.8559 7.79509 30.878 8.12576 30.9217 8.45261C28.8831 10.4288 27.7244 13.1499 27.7244 16.003C27.7244 20.8655 31.0424 24.9677 35.5331 26.164V29.019L33.743 27.6374C33.3909 27.3657 32.9 27.3661 32.5485 27.6382L29.7907 29.7727L27.0152 27.6366C26.6635 27.366 26.174 27.3663 25.8229 27.6375L23.0563 29.7728L20.2896 27.6375C19.938 27.3661 19.4477 27.3661 19.0961 27.6375L16.3295 29.7728L13.5628 27.6375C13.2112 27.3661 12.7209 27.3661 12.3693 27.6375L9.60273 29.7728L6.83603 27.6375C6.48447 27.3661 5.99414 27.3661 5.64258 27.6375L2.2793 30.2334C2.03975 30.4183 1.89941 30.7038 1.89941 31.0064V49.0234C1.89941 49.5627 2.33672 50 2.87598 50H36.5097C36.6343 50 36.7535 49.9765 36.8631 49.934C37.9657 49.8946 38.7593 49.743 38.8437 49.7263C38.8831 49.7185 38.9216 49.7084 38.9592 49.6961C38.9967 49.7084 39.0353 49.7185 39.0747 49.7263C39.1717 49.7456 40.2069 49.9433 41.5718 49.9433C43.3988 49.9433 45.8165 49.5888 47.363 47.9774V47.9775C50.0645 45.1625 48.8242 39.8489 48.7701 39.624ZM8.62598 48.0468H7.21562V36.8936C7.21562 36.3544 6.77832 35.9171 6.23906 35.9171C5.6998 35.9171 5.2625 36.3544 5.2625 36.8936V48.0468H3.85234V31.4862L6.23906 29.644L8.62588 31.4862L8.62598 48.0468ZM15.3527 48.0468H10.5791V31.4862L12.9658 29.644L15.3526 31.4862L15.3527 48.0468ZM22.0794 48.0468H20.6691V36.8936C20.6691 36.3544 20.2318 35.9171 19.6926 35.9171C19.1533 35.9171 18.716 36.3544 18.716 36.8936V48.0468H17.3059V31.4862L19.6926 29.644L22.0794 31.4862V48.0468ZM28.8156 48.0468H24.0325V31.4862L26.4201 29.6434L28.8155 31.4871V48.0468H28.8156ZM38.9881 31.4961C38.7672 31.4894 38.5444 31.5576 38.3601 31.7006C38.3255 31.7274 37.9722 32.0042 37.486 32.4793V26.4901C37.7343 26.5077 37.9849 26.5167 38.2375 26.5167C38.4898 26.5167 38.7401 26.5077 38.9881 26.4901V31.4961ZM38.9598 33.7729C39.3485 34.143 39.8715 34.6911 40.3591 35.3641C39.8467 35.5095 39.3583 35.734 38.9591 36.0802C38.56 35.7342 38.0718 35.5098 37.5596 35.3644C38.0469 34.6933 38.5707 34.1441 38.9598 33.7729ZM29.6773 16.003C29.6773 13.528 30.7484 11.175 32.6159 9.54714C32.8835 9.31384 33.0034 8.95369 32.9291 8.60652C32.8493 8.23386 32.8089 7.84939 32.8089 7.46404C32.8089 4.47048 35.2442 2.03503 38.2376 2.03503C41.2309 2.03503 43.6662 4.47039 43.6662 7.46404C43.6662 7.84939 43.6258 8.23386 43.546 8.60652C43.4717 8.95369 43.5916 9.31384 43.8593 9.54714C45.7267 11.175 46.7978 13.5281 46.7978 16.003C46.7978 20.3931 43.4762 24.022 39.2143 24.5082V19.5877C39.219 19.5835 39.2238 19.5792 39.2285 19.5748L42.9493 16.1468C43.3461 15.7814 43.3713 15.1636 43.0059 14.767C42.6404 14.3702 42.0227 14.3449 41.626 14.7104L39.2143 16.9323V14.386L41.8426 11.9488C42.2381 11.582 42.2613 10.9641 41.8946 10.5686C41.5277 10.1731 40.9099 10.1502 40.5145 10.5166L39.2143 11.7222V9.52605C39.2143 8.98679 38.777 8.54949 38.2377 8.54949C37.6984 8.54949 37.2611 8.98679 37.2611 9.52605V16.9325L34.8493 14.7105C34.4525 14.345 33.8348 14.3705 33.4694 14.7671C33.104 15.1637 33.1293 15.7815 33.526 16.1469L37.2468 19.5749C37.2516 19.5793 37.2563 19.5836 37.2611 19.5879V24.5083C32.999 24.022 29.6773 20.3931 29.6773 16.003ZM30.7687 31.4853L33.147 29.6446L35.533 31.4861V34.8774C35.4874 34.9505 35.4425 35.0244 35.3981 35.0993C35.2163 35.0964 35.046 35.0964 34.8915 35.0964C34.6323 35.0964 34.3838 35.1994 34.2006 35.3828C34.0175 35.5662 33.9146 35.8148 33.9149 36.074L33.9179 38.7645C32.6802 38.616 31.5209 38.6851 30.7687 38.7686V31.4853ZM37.827 47.9085C37.4687 47.9511 37.042 47.984 36.5801 47.9919C36.5567 47.9902 36.5332 47.9893 36.5095 47.9893C36.4787 47.9893 36.4482 47.9908 36.4181 47.9936C34.8845 47.9998 33.0154 47.7207 31.9642 46.6252V46.6251C30.5595 45.1616 30.6755 42.275 30.9241 40.7126C32.4937 40.5258 35.3764 40.5262 36.7869 41.9961C38.1916 43.4594 38.0756 46.3461 37.827 47.9085ZM39.7218 40.6434C39.421 40.9568 39.169 41.3012 38.9589 41.6661C38.7487 41.3011 38.4969 40.9568 38.196 40.6434C37.5404 39.9604 36.7285 39.5033 35.8714 39.2032L35.869 37.0759C37.812 37.1939 37.9743 37.7043 37.9817 38.4803C37.987 39.0159 38.4241 39.4474 38.9599 39.4474C39.4956 39.4474 39.9312 39.016 39.9364 38.4803C39.9438 37.7042 40.1062 37.1938 42.0497 37.0759V39.2021C41.1913 39.5022 40.3781 39.9596 39.7218 40.6434ZM45.9535 46.625C44.5488 48.0887 41.6601 48.091 40.0891 47.9068C40.0052 47.3853 39.9361 46.7165 39.9341 46.0021C39.9342 45.9749 39.9342 45.9475 39.9341 45.9201C39.9401 44.5175 40.2095 42.9559 41.1309 41.996C42.5354 40.5324 45.4239 40.5297 46.9953 40.7141C47.2464 42.2747 47.3644 45.1551 45.9535 46.625Z" fill="black"/>
</g>
<defs>
<clipPath id="clip0_17901_2224">
<rect width="50" height="50" fill="white" transform="translate(0.5)"/>
</clipPath>
</defs>
</svg>
