<svg width="60" height="60" viewBox="0 0 60 60" fill="none" xmlns="http://www.w3.org/2000/svg">
<path d="M5.4541 50.4885H36.618C36.618 47.0893 33.8624 44.3337 30.4632 44.3337H5.4541V50.4885Z" fill="#C36F46"/>
<path d="M30.4631 44.3337H28.1528C31.552 44.3337 34.3076 47.0893 34.3076 50.4885H36.6179C36.6178 47.0893 33.8623 44.3337 30.4631 44.3337Z" fill="#B75423"/>
<path d="M29.483 14.191L26.7075 15.3064L28.8317 20.5921L31.6072 19.4767L29.483 14.191Z" fill="#4890E3"/>
<path d="M35.5732 12.2256L38.9873 20.5482C40.3269 22.4468 42.855 22.9896 44.6051 21.7546L51.4744 16.9074C53.2246 15.6724 53.5604 13.1087 52.2207 11.2101L45.5238 5.2041L35.5732 12.2256Z" fill="#C4D4E0"/>
<path d="M36.6986 15.4763H30.0723L31.1858 18.5403H37.8901L36.6986 15.4763Z" fill="#C4D4E0"/>
<path d="M43.8421 54.7959H5.58643V48.6411H37.6874C41.0866 48.6411 43.8421 51.3967 43.8421 54.7959Z" fill="#AD7D4D"/>
<path d="M23.613 19.5922C23.613 20.4701 22.9012 21.1819 22.0233 21.1819C21.1454 21.1819 20.4336 20.4701 20.4336 19.5922C20.4336 18.7143 22.0233 16.0789 22.0233 16.0789C22.0233 16.0789 23.613 18.7143 23.613 19.5922Z" fill="#1BACD6"/>
<path d="M19.558 31.6341H19.013C18.172 31.6341 17.4902 30.9524 17.4902 30.1113V24.7241C19.4732 24.7241 21.0807 26.3317 21.0807 28.3146V30.1113C21.0807 30.9524 20.3989 31.6341 19.558 31.6341Z" fill="#F45A3C"/>
<path d="M22.6034 31.6341H23.1483C23.9893 31.6341 24.6711 30.9524 24.6711 30.1113V24.7241C22.6881 24.7241 21.0806 26.3317 21.0806 28.3146V30.1113C21.0806 30.9524 21.7623 31.6341 22.6034 31.6341Z" fill="#F45A3C"/>
<path d="M17.4902 30.6689V32.8015C17.4902 34.7217 19.0613 36.2929 20.9816 36.2929H21.1798C23.1001 36.2929 24.6713 34.7218 24.6713 32.8015V30.6689H17.4902Z" fill="#66AB53"/>
<path d="M52.221 11.2101L45.5241 5.2041L44.2312 6.11647L49.9108 11.2102C51.2505 13.1088 50.9147 15.6725 49.1645 16.9075L42.2952 21.7547C41.9888 21.971 41.6581 22.1315 41.3145 22.241C42.4273 22.5766 43.6358 22.439 44.6055 21.7547L51.4748 16.9075C53.2249 15.6724 53.5607 13.1086 52.221 11.2101Z" fill="#67ADE1"/>
<path d="M37.6877 48.6411H35.3774C38.7766 48.6411 41.5322 51.3967 41.5322 54.7959H43.8425C43.8424 51.3967 41.0869 48.6411 37.6877 48.6411Z" fill="#B75423"/>
<path d="M22.3607 30.6689V32.8015C22.3607 34.354 21.3335 35.6779 19.9253 36.1282C20.2589 36.2349 20.6136 36.2929 20.9814 36.2929H21.1796C23.0998 36.2929 24.6711 34.7218 24.6711 32.8015V30.6689H22.3607Z" fill="#008653"/>
<path d="M31.9631 33.5847C31.9631 34.4626 31.2513 35.1744 30.3734 35.1744C29.4955 35.1744 28.7837 34.4626 28.7837 33.5847C28.7837 32.7067 30.3734 30.0713 30.3734 30.0713C30.3734 30.0713 31.9631 32.7066 31.9631 33.5847Z" fill="#1BACD6"/>
<path d="M11.8962 28.2375C11.8962 29.1154 11.1844 29.8272 10.3065 29.8272C9.42857 29.8272 8.7168 29.1154 8.7168 28.2375C8.7168 27.3596 10.3065 24.7241 10.3065 24.7241C10.3065 24.7241 11.8962 27.3595 11.8962 28.2375Z" fill="#1BACD6"/>
<path d="M20.4337 44.7726C19.3059 44.9532 17.7514 44.3088 16.1688 42.7261C14.0108 40.5682 14.1508 36.9296 14.1508 36.9296C14.1508 36.9296 17.7894 36.7897 19.9473 38.9476C20.313 39.3133 20.6287 39.6775 20.8955 40.0352" fill="#349966"/>
<path d="M19.9473 38.9474C17.7894 36.7895 14.1508 36.9293 14.1508 36.9293C14.1508 36.9293 14.1473 37.0179 14.1498 37.1756C15.2856 37.4282 16.6244 37.9347 17.637 38.9474C18.0027 39.3132 18.3183 39.6773 18.5852 40.0351L18.1733 44.2608C19.0155 44.7107 19.7935 44.8749 20.4338 44.7723L20.8955 40.0351C20.6286 39.6774 20.313 39.3132 19.9473 38.9474Z" fill="#66AB53"/>
<path d="M24.7097 43.4127C22.9854 45.137 21.3032 45.4674 20.4695 44.6337C19.6358 43.8 19.9663 42.1178 21.6906 40.3935C23.4148 38.6692 26.3223 38.781 26.3223 38.781C26.3223 38.781 26.434 41.6884 24.7097 43.4127Z" fill="#ACCD51"/>
<path d="M26.3224 38.7809C26.3224 38.7809 25.243 38.7403 24.0098 39.0977C23.9834 39.8965 23.7796 42.0326 22.3996 43.4126C21.7794 44.033 21.1647 44.4719 20.5928 44.7421C21.4614 45.4325 23.0663 45.0562 24.7099 43.4126C26.4342 41.6884 26.3224 38.7809 26.3224 38.7809Z" fill="#66AB53"/>
<path d="M22.0237 21.9355C23.3157 21.9355 24.3668 20.8844 24.3668 19.5924C24.3668 18.5833 23.0672 16.3504 22.6688 15.6899C22.5325 15.4639 22.2878 15.3257 22.0237 15.3257C21.7597 15.3257 21.515 15.4638 21.3786 15.6899C20.9803 16.3503 19.6807 18.5832 19.6807 19.5924C19.6806 20.8844 20.7316 21.9355 22.0237 21.9355ZM22.0238 17.61C22.5079 18.5251 22.8577 19.3358 22.86 19.5925C22.86 20.0537 22.4849 20.4287 22.0237 20.4287C21.5626 20.4287 21.1874 20.0536 21.1874 19.5925C21.1896 19.3363 21.5396 18.5254 22.0238 17.61Z" fill="black"/>
<path d="M32.7168 33.5848C32.7168 32.5756 31.4172 30.3427 31.0188 29.6823C30.8825 29.4563 30.6377 29.3181 30.3737 29.3181C30.1097 29.3181 29.865 29.4563 29.7286 29.6823C29.3304 30.3427 28.0308 32.5756 28.0308 33.5848C28.0308 34.8768 29.0818 35.9279 30.3738 35.9279C31.6657 35.9278 32.7168 34.8768 32.7168 33.5848ZM29.5374 33.5849C29.5397 33.3287 29.8896 32.5178 30.3738 31.6024C30.858 32.5175 31.2077 33.3283 31.21 33.5849C31.21 34.046 30.8349 34.4212 30.3737 34.4212C29.9126 34.4212 29.5374 34.046 29.5374 33.5849Z" fill="black"/>
<path d="M10.3064 30.5805C11.5984 30.5805 12.6495 29.5294 12.6495 28.2374C12.6495 27.2283 11.3499 24.9954 10.9515 24.3349C10.8152 24.1089 10.5704 23.9707 10.3064 23.9707C10.0425 23.9707 9.79776 24.1089 9.66135 24.3349C9.26297 24.9953 7.96338 27.2282 7.96338 28.2374C7.96338 29.5294 9.01447 30.5805 10.3064 30.5805ZM10.3064 26.2552C10.7906 27.1705 11.1404 27.9813 11.1428 28.2375C11.1428 28.6987 10.7676 29.0738 10.3064 29.0738C9.84527 29.0738 9.4701 28.6986 9.4701 28.2375C9.47241 27.9813 9.82237 27.1705 10.3064 26.2552Z" fill="black"/>
<path d="M53.9502 6.1271C52.2079 4.2656 49.2825 4.16023 47.4101 5.88372L46.0269 4.64318C45.7655 4.40874 45.3766 4.38594 45.0895 4.58854L35.1389 11.6101C34.852 11.8126 34.743 12.1865 34.8763 12.5115L35.7834 14.7229H30.5075L30.1812 13.911C30.1067 13.7256 29.9617 13.5774 29.7778 13.499C29.594 13.4205 29.3866 13.4184 29.2013 13.4928L26.4258 14.6081C26.0398 14.7632 25.8525 15.202 26.0076 15.588L28.1316 20.8737C28.2061 21.0591 28.3512 21.2073 28.535 21.2857C28.6293 21.326 28.73 21.3462 28.8306 21.3462C28.9259 21.3462 29.0214 21.3281 29.1115 21.2918L31.8869 20.1766C32.241 20.0342 32.4269 19.6534 32.3358 19.2935H37.6583L38.2902 20.834C38.3117 20.8863 38.339 20.9362 38.3717 20.9824C39.129 22.0557 40.2343 22.7945 41.484 23.0629C41.8227 23.1357 42.1607 23.1716 42.4935 23.1716C43.4113 23.1716 44.2907 22.8984 45.0394 22.37L51.9086 17.5228C53.4329 16.4472 54.0669 14.5509 53.6894 12.7335C53.7041 12.7216 53.7188 12.7097 53.7329 12.6965C54.6362 11.851 55.1562 10.7004 55.1974 9.45655C55.2387 8.2128 54.7957 7.03033 53.9502 6.1271ZM29.249 19.613L27.6868 15.7254L29.0643 15.1719L30.0666 17.6665L30.4778 18.7977C30.5091 18.8839 30.5563 18.9604 30.6135 19.0275L30.6264 19.0597L29.249 19.613ZM31.7388 17.7869L31.4742 17.1284L31.1476 16.2298H36.1833L36.7889 17.7869H31.7388ZM51.0402 16.2919L44.1709 21.1391C43.4984 21.6137 42.6566 21.7738 41.8005 21.59C40.9474 21.4067 40.187 20.9073 39.6506 20.18L36.4981 12.4951L45.4677 6.16567L51.6515 11.7115C52.7015 13.2675 52.4353 15.3074 51.0402 16.2919ZM53.086 11.1654C53.0089 11.0334 52.9264 10.9031 52.8365 10.7757C52.8038 10.7295 52.766 10.687 52.7239 10.6493L48.5391 6.89623C49.1303 6.40022 49.8775 6.14317 50.6606 6.16849C51.5022 6.19631 52.2799 6.54728 52.8503 7.15669C53.8999 8.27809 53.9661 9.97094 53.086 11.1654Z" fill="black"/>
<path d="M37.6877 47.8876H36.8655C35.8154 45.2894 33.3086 43.5802 30.4632 43.5802H25.5728C27.1655 41.6415 27.0799 38.876 27.0751 38.7519C27.06 38.3585 26.7447 38.0431 26.3513 38.0279C26.2318 38.0237 23.657 37.9435 21.7349 39.3649V37.0087C23.8139 36.7358 25.4245 34.9537 25.4245 32.8013V30.7137V30.6687V24.7238C25.4245 24.3078 25.0872 23.9705 24.6711 23.9705C23.1806 23.9705 21.8633 24.7253 21.0806 25.8726C20.2979 24.7254 18.9806 23.9705 17.4901 23.9705C17.074 23.9705 16.7367 24.3078 16.7367 24.7238V30.5128C16.7367 30.5391 16.7381 30.5652 16.7408 30.5908C16.7381 30.6164 16.7367 30.6424 16.7367 30.6687V32.8012C16.7367 34.8846 18.2459 36.6211 20.2281 36.9778V38.1777C17.8542 36.0599 14.2782 36.1701 14.1219 36.1764C13.7285 36.1916 13.4131 36.5069 13.3979 36.9003C13.3917 37.0623 13.2727 40.895 15.6361 43.2585C15.7475 43.3699 15.8596 43.4762 15.9718 43.5801H5.55457C5.13852 43.5801 4.80121 43.9174 4.80121 44.3335L4.7998 54.7957C4.7998 55.2118 5.13711 55.5491 5.55316 55.5491H24.6594C25.0754 55.5491 25.4127 55.2118 25.4127 54.7957C25.4127 54.3797 25.0754 54.0423 24.6594 54.0423H6.30652V49.3944H9.69855C10.1146 49.3944 10.4519 49.0571 10.4519 48.6411C10.4519 48.225 10.1146 47.8877 9.69855 47.8877H6.30793V45.087H18.1177C18.1246 45.087 18.1315 45.0861 18.1383 45.086C18.7987 45.3941 19.4446 45.5553 20.0511 45.5553C20.0617 45.5553 20.0725 45.5553 20.0831 45.5552C20.1327 45.5547 20.1812 45.5492 20.228 45.5395V47.8878H12.712C12.2959 47.8878 11.9586 48.2251 11.9586 48.6412C11.9586 49.0572 12.2959 49.3945 12.712 49.3945H37.6877C40.4104 49.3945 42.6691 51.4195 43.0367 54.0424H27.6728C27.2567 54.0424 26.9194 54.3798 26.9194 54.7958C26.9194 55.2119 27.2567 55.5492 27.6728 55.5492H43.8424C44.2585 55.5492 44.5958 55.2119 44.5958 54.7958C44.5957 50.9865 41.4967 47.8876 37.6877 47.8876ZM21.8341 28.3144C21.8341 27.0107 22.7179 25.9097 23.9179 25.5788V29.9155H21.8341V28.3144ZM18.2436 25.5788C19.4434 25.9097 20.3273 27.0108 20.3273 28.3144V29.9155H18.2436V25.5788ZM18.2436 32.8013V31.4222H23.9179V32.8013C23.9179 34.3112 22.6896 35.5394 21.1798 35.5394H20.9817C19.4718 35.5394 18.2436 34.3112 18.2436 32.8013ZM19.3921 42.6565C19.2733 43.1096 19.2485 43.5393 19.3125 43.9315C18.5091 43.6905 17.594 43.0854 16.7016 42.1931C15.3616 40.853 15.0172 38.802 14.9308 37.7074C16.0238 37.7918 18.0684 38.1337 19.4147 39.4799C19.7466 39.8118 20.0417 40.1501 20.2918 40.4854C20.3394 40.5492 20.3953 40.6032 20.4568 40.6472C19.9274 41.319 19.5636 42.0016 19.3921 42.6565ZM21.0024 44.1008C20.72 43.8185 20.7635 43.3671 20.8497 43.0383C21.0187 42.3929 21.5066 41.6428 22.2234 40.926C23.1918 39.9575 24.6493 39.6606 25.5322 39.5709C25.4424 40.4543 25.1454 41.9116 24.1772 42.8798C23.4604 43.5966 22.7103 44.0844 22.0649 44.2534C21.736 44.3398 21.2846 44.3831 21.0024 44.1008ZM21.7349 47.8876V45.821C21.964 45.8106 22.2018 45.7752 22.4467 45.7111C22.9006 45.5922 23.3678 45.3813 23.8355 45.0869H30.4633C32.474 45.0869 34.268 46.1784 35.201 47.8876H21.7349Z" fill="black"/>
</svg>
