<svg width="57" height="49" viewBox="0 0 57 49" fill="none" xmlns="http://www.w3.org/2000/svg">
<path d="M26.7958 22.5236C26.7958 22.5236 26.1962 20.0326 22.42 21.0092C22.42 21.0092 24.1872 24.4141 26.8063 23.1346C26.8063 23.1346 25.2706 21.6411 24.0452 21.3904C24.0399 21.3904 26.07 21.6411 26.7958 22.5236Z" fill="white"/>
<path d="M24.4818 6.60561C24.4818 6.60561 23.4878 4.51148 22.3361 3.80126C22.3361 3.80126 24.303 4.81437 24.7027 5.98416C24.7027 5.98416 25.0393 3.22681 20.8319 2.79858C20.8319 2.79858 21.3315 6.91894 24.4818 6.60561Z" fill="white"/>
<path d="M19.9537 12.4813C19.9537 12.4813 19.0701 11.1079 18.1129 10.4916C18.6441 10.7998 19.7328 11.4891 20.0851 12.1993C20.0851 12.1993 20.4691 9.44719 16.4194 9.63519C16.4194 9.63519 17.303 13.0976 19.9537 12.4813Z" fill="white"/>
<path d="M34.2374 9.45654C31.6236 10.3287 32.2337 12.0363 32.2337 12.0363C32.3178 11.2373 33.4223 10.3078 33.4223 10.3078C32.7911 10.924 32.4651 12.4019 32.4651 12.4019C34.5162 12.1512 34.2374 9.45654 34.2374 9.45654Z" fill="white"/>
<path d="M34.3585 1.51967C33.0437 2.59024 31.9813 4.88281 31.9813 4.88281C36.925 4.66347 36.5726 0 36.5726 0C30.6612 1.02878 31.7394 4.45458 31.7394 4.45458C32.1233 3.29524 33.6853 2.02623 34.3585 1.51967Z" fill="white"/>
<path d="M25.8177 7.98462C26.0123 7.38929 26.8169 6.74173 27.1535 6.49106C26.4804 7.03417 25.9386 8.20396 25.9386 8.20396C28.4526 8.09429 28.2738 5.72339 28.2738 5.72339C25.2707 6.24561 25.8177 7.98462 25.8177 7.98462ZM27.3061 6.37617C27.285 6.39184 27.264 6.4075 27.2429 6.42317C27.285 6.39184 27.3061 6.37617 27.3061 6.37617Z" fill="white"/>
<path d="M34.6112 28.0015C33.4436 26.0954 32.7073 27.9754 31.6765 26.4505C30.9349 25.3591 29.7358 25.0718 29.0416 24.9987C29.0889 23.8968 28.9995 22.8002 28.7891 21.7348C30.4143 16.899 32.9177 16.8363 32.9177 16.8363C31.9289 17.1653 30.6772 18.5388 30.6772 18.5388C33.3016 20.5598 35.0004 16.4551 35.0004 16.4551C31.8237 15.7449 29.9251 18.262 29.0205 19.9958C29.3045 18.7163 29.8042 17.4787 30.4774 16.3402C30.856 15.7135 31.2768 15.113 31.7501 14.549C32.2287 13.9902 32.7283 13.4471 33.2858 12.9614C33.3332 12.9196 33.3805 12.8831 33.4226 12.8413C32.0709 14.2722 32.0183 15.5203 32.0183 15.5203C37.2934 15.019 36.9042 10.3816 36.9042 10.3816C35.5578 11.0292 34.2693 11.8125 33.0912 12.7473C32.844 12.9405 32.6074 13.1442 32.3707 13.3531C32.0131 13.656 31.8553 13.8283 31.8553 13.8283L31.8816 13.8074C31.7291 13.9589 31.5766 14.1051 31.424 14.2618C31.8606 13.1651 32.0394 11.7237 30.835 10.5801C30.835 10.5801 29.2204 12.951 31.2557 13.6299C31.2557 13.6299 31.5503 12.4705 31.3767 11.8282C31.3767 11.8282 32.092 12.951 30.6877 15.1078C30.4405 15.4107 30.2039 15.724 29.9777 16.0478C29.2309 17.1444 28.6366 18.3612 28.2422 19.6459C28.2001 19.5154 28.158 19.3848 28.1159 19.2542C28.0108 18.9096 27.874 18.5753 27.7478 18.2359C27.6163 17.8912 27.5059 17.5831 27.3849 17.2541L27.0325 16.288L26.9431 16.0478L26.8695 15.8023L26.7275 15.3114C26.6328 14.9824 26.5382 14.6534 26.4382 14.3244C26.4172 14.2513 26.4014 14.173 26.3804 14.0999C26.3804 14.0842 26.3804 14.0685 26.3856 14.0581C26.3909 13.9954 26.3962 13.9328 26.4067 13.8649C26.4225 13.7343 26.4435 13.6038 26.4698 13.4732C26.5171 13.2121 26.5855 12.951 26.6591 12.6899C26.8116 12.1729 27.0115 11.6611 27.2534 11.1702C27.7373 10.1832 28.4052 9.27971 29.1888 8.48071C29.5833 8.07859 30.0093 7.71304 30.4563 7.36314C30.9139 7.02892 31.3767 6.69469 31.8711 6.41269C32.1183 6.26647 32.3707 6.12547 32.6284 5.99491C31.2452 6.90881 30.1197 8.26137 30.1197 8.26137C35.4211 8.9246 36.5887 4.94523 36.5887 4.94523C35.1055 4.59012 33.0123 5.49879 32.0341 5.98969C31.9289 6.03669 31.829 6.08369 31.7238 6.13069C31.1926 6.37091 30.6825 6.66336 30.1828 6.97147C30.0461 7.06025 29.9146 7.14903 29.7779 7.24303C30.004 6.80958 30.1986 6.36569 30.3669 5.91135C32.1919 2.32888 30.0724 0.135527 30.0724 0.135527C27.043 3.65533 29.0205 5.90613 29.0205 5.90613C30.1092 5.06535 30.6351 3.22189 30.7666 2.68399C30.7666 2.7101 30.7666 2.73622 30.7666 2.76233C30.7614 3.09133 30.7351 3.41511 30.6772 3.73889C30.5668 4.38123 30.3617 5.00268 30.0987 5.59802C29.8305 6.19335 29.5097 6.75736 29.1468 7.29525C28.8365 7.75481 28.4841 8.1987 28.1212 8.60082C27.4743 9.23271 26.8958 9.93772 26.4172 10.7158C26.2226 11.0344 26.0438 11.3634 25.886 11.7028C25.7598 10.8986 25.6756 10.0892 25.623 9.27449C25.5389 7.90626 25.5757 6.52236 25.7703 5.15412C25.7966 4.98179 25.8176 4.80945 25.8439 4.64234L25.9386 4.13056C25.9491 4.07834 25.9596 4.02612 25.9649 3.97389C26.2857 4.11489 26.6276 4.17756 26.9536 4.15667C26.9168 3.93734 26.8432 3.72322 26.738 3.51956C27.2482 3.26366 27.6584 2.90855 27.9161 2.51688C27.732 2.46988 27.5322 2.44899 27.327 2.44377C27.6058 2.24532 27.8162 1.98943 27.9424 1.7231C27.6689 1.66565 27.3639 1.68654 27.0588 1.77532L27.0641 1.7701C27.3481 1.49854 27.4953 1.1382 27.5006 0.777866C27.306 0.772643 27.1114 0.803978 26.9273 0.87709C27.043 0.626421 27.0799 0.354863 27.043 0.09375C26.6802 0.135528 26.333 0.318307 26.0911 0.631643C26.049 0.683865 26.0175 0.736088 25.9859 0.788311C25.8807 0.652532 25.7545 0.537642 25.6125 0.448863C25.46 0.746533 25.4127 1.10687 25.5073 1.47243C25.297 1.30009 25.0603 1.17476 24.8131 1.11209C24.7447 1.49854 24.8131 1.92676 25.0287 2.30799C24.8867 2.2871 24.7447 2.27666 24.6027 2.2871C24.6448 2.53255 24.729 2.778 24.8604 3.00255L25.155 3.201C24.9236 3.389 24.729 3.59789 24.5817 3.82245C24.871 3.89556 25.1918 3.91122 25.5336 3.87467C25.5178 3.92167 25.5021 3.96867 25.4863 4.01567L25.3285 4.52745C25.2812 4.69979 25.2444 4.87212 25.2023 5.04446L25.0761 5.56668C25.0393 5.73902 25.013 5.91657 24.9814 6.09413C24.9183 6.44402 24.8447 6.79914 24.8184 7.15425C24.7816 7.50937 24.729 7.86448 24.7027 8.21959C24.6816 8.57471 24.6658 8.93504 24.6553 9.29016C24.6501 9.57738 24.6553 9.86461 24.6658 10.1518C24.6448 10.1257 24.6238 10.0944 24.6027 10.0683C24.2451 9.58261 23.8559 9.12305 23.4247 8.70526C22.9934 8.28748 22.5411 7.89581 22.052 7.55637C21.8101 7.38403 21.5576 7.22737 21.2999 7.07592C21.1684 7.00281 21.0422 6.92969 20.9107 6.8618L20.7109 6.76258C20.6425 6.73125 20.5794 6.69469 20.5636 6.55891C20.5583 6.51191 20.5426 6.46491 20.5215 6.42314C20.4269 6.2508 20.206 6.18291 20.0272 6.26647C19.8378 6.35525 19.7589 6.59025 19.8589 6.77303C19.9588 6.96103 20.1902 7.02892 20.3743 6.92969C20.4847 6.86703 20.5531 6.89836 20.6162 6.94014L20.8055 7.04981C20.9318 7.12292 21.0475 7.20648 21.1684 7.28481C21.4051 7.4467 21.6418 7.61903 21.8626 7.80181C22.3044 8.16737 22.7199 8.56949 23.0881 9.01338C23.4562 9.45205 23.7823 9.92205 24.0715 10.4129C24.3398 10.8882 24.5764 11.3738 24.7763 11.8804C24.9709 13.8753 25.4074 15.8441 26.0438 17.745L26.2436 18.356C25.7019 17.7398 25.1129 17.1706 24.4818 16.6588C24.4607 16.6379 24.4344 16.6222 24.4081 16.6013C20.653 12.9249 21.0264 10.8568 21.0264 10.8568C21.7469 13.139 22.215 13.6194 22.215 13.6194C24.6501 11.8282 20.8897 8.75227 20.8897 8.75227C20.248 11.6976 21.3998 13.8753 22.4359 15.16C17.9182 12.2199 14.9151 13.4262 14.9151 13.4262C14.9151 13.4262 16.251 14.1782 18.4651 16.5804C20.6793 18.9827 23.1354 17.2959 23.1354 17.2959C21.9363 15.9224 19.9903 14.6587 19.3066 14.2304C19.9693 14.4706 20.6109 14.7526 21.221 15.0869C21.7312 15.3741 22.2255 15.6874 22.6936 16.0373C23.1564 16.3872 23.5982 16.7632 24.0137 17.1706C24.8341 17.9852 25.5494 18.8939 26.1384 19.8757C26.433 20.3666 26.7012 20.8731 26.9326 21.3902C27.0168 21.5782 27.1009 21.7714 27.1745 21.9646C27.4322 23.0299 27.5059 24.0378 27.4585 24.9726C26.5382 25.427 25.6914 26.9153 24.5396 26.7221C23.3773 26.5289 22.641 27.5472 22.336 28.0799C19.2014 28.1791 15.5988 28.3097 14.4786 28.388C12.5747 28.5185 22.3149 28.8214 20.4952 29.1452C18.6755 29.469 23.0197 29.1034 25.9596 29.1661C28.8943 29.2288 25.3233 29.8659 23.9769 30.0957C21.5629 30.5082 31.566 30.4038 31.566 30.4038C29.2362 29.892 30.8718 30.0904 35.0792 29.939C39.2867 29.7875 33.9538 29.5525 31.2189 29.2288C28.4788 28.905 38.9553 28.6857 42.3055 28.3932C44.2988 28.1843 39.3919 28.0694 34.6112 28.0015ZM26.1332 2.33932C26.1279 2.34455 26.1227 2.34977 26.1174 2.35499C26.1122 2.34455 26.1069 2.32888 26.1069 2.31843C26.1122 2.32888 26.1227 2.3341 26.1332 2.33932Z" fill="white"/>
<path d="M3.30286 36.5611C3.8919 36.5977 4.18642 36.8327 4.18642 37.3758V38.8067C4.18642 39.3237 3.93398 39.5796 3.30286 39.5796H0L0.315558 39.1044V34.1014L0 33.6262H3.23448C3.86034 33.6262 4.12857 33.8821 4.12857 34.3991V35.7412C4.12331 36.2739 3.84983 36.5141 3.30286 36.5611ZM1.58832 36.1642H2.32988C2.69278 36.1642 2.86633 35.9606 2.86633 35.6629V34.9422C2.86633 34.6446 2.69278 34.4409 2.32988 34.4409H1.58832V36.1642ZM2.90841 37.4646C2.90841 37.1669 2.73485 36.9632 2.36144 36.9632H1.59358V38.7754H2.36144C2.73485 38.7754 2.90841 38.5717 2.90841 38.274V37.4646Z" fill="white"/>
<path d="M7.20534 39.109V34.1061L6.88978 33.6309H8.80416L8.47808 34.1061V38.78H9.44053L10.5134 38.3204V39.5894H6.88452L7.20534 39.109Z" fill="white"/>
<path d="M17.1925 39.109L17.5449 39.5842H15.5674L15.8409 39.109L15.7199 38.4353H14.3946L14.2736 39.109L14.5366 39.5842H12.6117L12.9746 39.109L14.1474 33.6309H16.0039L17.1925 39.109ZM14.5208 37.6259H15.5937L15.0573 34.597L14.5208 37.6259Z" fill="white"/>
<path d="M22.6043 34.8171C22.6043 34.5874 22.4623 34.4359 22.1888 34.4359H21.705C21.421 34.4359 21.2895 34.5874 21.2895 34.8171V38.3892C21.2895 38.6189 21.421 38.7704 21.705 38.7704H22.1888C22.4623 38.7704 22.6043 38.6189 22.6043 38.3892V37.282L23.8402 36.7128V38.8069C23.8402 39.3239 23.5878 39.5798 22.9462 39.5798H20.8898C20.2639 39.5798 20.0062 39.3239 20.0062 38.8069V34.3994C20.0062 33.8824 20.2587 33.6265 20.8898 33.6265H22.9462C23.5825 33.6265 23.8402 33.8824 23.8402 34.3994V35.7206L22.6043 36.2898V34.8171Z" fill="white"/>
<path d="M28.3688 39.5842H26.4545L26.7805 39.109V34.1061L26.4545 33.6309H28.3688L28.0638 34.1061V36.2315L29.2997 34.1061L29.2366 33.6309H31.1931L30.6356 34.1009L29.2577 36.0435L30.7671 39.1247L31.272 39.5947H29.2051L29.3366 39.1194L28.4951 37.1298L28.0585 37.7408V39.1194L28.3688 39.5842Z" fill="white"/>
<path d="M37.2039 34.9529L36.131 34.3732H35.9206V39.1046L36.2362 39.5798H34.3323L34.6479 39.1046V34.3732H34.4428L33.3594 34.9529V33.6265H37.2092V34.9529H37.2039Z" fill="white"/>
<path d="M42.064 37.5484C41.964 37.1828 41.8325 37.0053 41.4171 37.0053H41.212V39.1046L41.538 39.5798H39.6237L39.9392 39.1046V34.1017L39.6237 33.6265H42.8844C43.5103 33.6265 43.768 33.8824 43.768 34.3994V36.1175C43.768 36.6031 43.5839 36.8747 43.1421 36.9687L43.9047 39.1151L44.3517 39.5851H42.3532L42.5373 39.1098L42.064 37.5484ZM42.49 34.9372C42.49 34.6396 42.3164 34.4359 41.943 34.4359H41.212V36.1958H41.943C42.3164 36.1958 42.49 35.9921 42.49 35.6945V34.9372Z" fill="white"/>
<path d="M48.2749 36.195H49.3268L49.9158 35.9756V37.2342L49.3268 37.0149H48.2749V38.7748H49.4425L50.5049 38.3152V39.5842H46.6866L47.0022 39.109V34.1061L46.6866 33.6309H50.5049V34.8999L49.4425 34.4403H48.2749V36.195Z" fill="white"/>
<path d="M54.7701 36.195H55.8219L56.411 35.9756V37.2342L55.8219 37.0149H54.7701V38.7748H55.9376L57 38.3152V39.5842H53.1818L53.4973 39.109V34.1061L53.1818 33.6309H57V34.8999L55.9376 34.4403H54.7701V36.195Z" fill="white"/>
<path d="M9.49275 43.4763C9.49275 43.5547 9.47172 43.633 9.4349 43.7009C9.36653 43.8367 9.23505 43.9307 9.04572 43.9777C8.98786 43.9933 8.94053 43.9986 8.8932 43.9986C8.74594 43.9986 8.61445 43.9672 8.50401 43.9046V43.8784C8.65653 43.8837 8.78275 43.8419 8.87742 43.7531C8.96157 43.6748 8.99838 43.5755 8.99838 43.4554C8.99838 43.3301 8.96157 43.2361 8.8932 43.1682C8.82483 43.1003 8.7249 43.0638 8.60394 43.0638H8.39882V44.5782C8.39882 44.6252 8.41986 44.6618 8.45668 44.6931C8.49349 44.7244 8.54083 44.7401 8.59342 44.7401H8.63549V44.7662H7.69934V44.7401H7.74141C7.79401 44.7401 7.84134 44.7244 7.87816 44.6931C7.91497 44.6618 7.93601 44.6252 7.93601 44.5782V43.1317C7.93601 43.0899 7.91497 43.0533 7.87816 43.022C7.84134 42.9959 7.79401 42.9802 7.74141 42.9802H7.69934V42.9541H8.73016C8.9826 42.9541 9.17194 43.0011 9.29816 43.0899C9.42439 43.1891 9.49275 43.3197 9.49275 43.4763Z" fill="white"/>
<path d="M11.3283 43.0743H11.1968C11.1916 43.0743 11.1916 43.0743 11.1863 43.0743V44.5835C11.1863 44.6305 11.2073 44.6671 11.2442 44.6984C11.281 44.7297 11.3283 44.7454 11.3809 44.7454H11.423V44.7715H10.4868V44.7454H10.5289C10.6025 44.7454 10.6604 44.7193 10.6972 44.6671C10.713 44.6409 10.7235 44.6148 10.7235 44.5887V43.1526C10.7235 43.1056 10.7024 43.069 10.6656 43.0377C10.6288 43.0064 10.5815 42.9907 10.5289 42.9907H10.4868V42.9646H11.5439C11.7438 42.9646 11.9121 43.0012 12.0488 43.0743C12.1172 43.1108 12.175 43.163 12.2171 43.2257C12.2592 43.2884 12.2802 43.3772 12.2802 43.4816C12.2802 43.586 12.2382 43.6853 12.1487 43.7845C12.0646 43.8785 11.9384 43.9359 11.7753 43.9516C11.8963 43.9829 12.0015 44.0613 12.0909 44.1814C12.3118 44.4791 12.4748 44.6566 12.5853 44.7141C12.6379 44.7402 12.7062 44.7558 12.7851 44.7558V44.7819H12.4853C12.3065 44.7819 12.1593 44.7611 12.0383 44.7245C11.9226 44.6827 11.8279 44.6148 11.7596 44.5156C11.7227 44.4582 11.6333 44.3119 11.5019 44.0717C11.444 43.9673 11.3756 43.9098 11.2915 43.8994V43.8733H11.3862C11.4808 43.8733 11.5597 43.8524 11.6333 43.8054C11.7017 43.7584 11.7543 43.6853 11.7753 43.5756C11.7859 43.5391 11.7859 43.5129 11.7859 43.492C11.7859 43.351 11.7543 43.2466 11.6859 43.1839C11.6176 43.1213 11.5334 43.0899 11.423 43.0847C11.3967 43.0743 11.3704 43.0743 11.3283 43.0743Z" fill="white"/>
<path d="M13.5898 44.7446C13.6424 44.7446 13.6897 44.729 13.7266 44.6976C13.7634 44.6663 13.7844 44.6297 13.7844 44.5827V43.1414C13.7792 43.0944 13.7634 43.0631 13.7371 43.0422C13.6897 43.0056 13.6372 42.9847 13.5846 42.9847H13.5425V42.9586H14.7206C14.8205 42.9586 14.9046 42.9534 14.9677 42.9377C15.0309 42.9273 15.0729 42.9168 15.0887 42.9116V43.366H15.0572V43.3398C15.0572 43.2354 15.0098 43.1571 14.9152 43.1101C14.8678 43.0892 14.8152 43.0735 14.7574 43.0735H14.2472V43.8255H14.6522C14.7258 43.8255 14.7889 43.7994 14.8415 43.7576C14.8889 43.7158 14.9152 43.6636 14.9152 43.601V43.5801H14.9467V44.1754H14.9152V44.1545C14.9152 44.0918 14.8889 44.0396 14.8415 43.9978C14.7942 43.9561 14.7311 43.9352 14.6574 43.9352H14.2472V44.6611H14.6522C14.7995 44.6611 14.9257 44.6245 15.0309 44.5514C15.1308 44.4783 15.2097 44.3738 15.257 44.2433H15.2886L15.1466 44.7707H13.553V44.7446H13.5898Z" fill="white"/>
<path d="M19.0487 44.7451H19.096V44.7712H18.1704V44.7503H18.2177C18.2546 44.7503 18.2809 44.7346 18.3072 44.7137C18.3334 44.6928 18.344 44.6667 18.3387 44.6406L18.2177 43.7006L17.6392 44.5362C17.5656 44.6406 17.5235 44.7398 17.5235 44.8234H17.492L16.6978 43.7058L16.5769 44.6354C16.5716 44.6615 16.5821 44.6876 16.6084 44.7137C16.6347 44.7346 16.661 44.7503 16.6978 44.7503H16.7451V44.7712H16.1035V44.7451H16.1509C16.2087 44.7451 16.256 44.7294 16.2981 44.7033C16.3402 44.672 16.3665 44.6354 16.3717 44.5832L16.6294 42.9277H16.6557L17.6129 44.249L18.5333 42.9277H18.5596L18.8226 44.5832C18.8331 44.6354 18.8594 44.672 18.9015 44.7033C18.9435 44.7294 18.9909 44.7451 19.0487 44.7451Z" fill="white"/>
<path d="M20.0058 44.745C20.0584 44.745 20.1057 44.7293 20.1426 44.698C20.1794 44.6667 20.2004 44.6301 20.2004 44.5831V43.147C20.2004 43.1 20.1794 43.0634 20.1426 43.0321C20.1057 43.0008 20.0584 42.9851 20.0058 42.9851H19.9637V42.959H20.8999L20.8946 42.9851H20.8578C20.8052 42.9851 20.7579 43.0008 20.7211 43.0321C20.6843 43.0634 20.6632 43.1 20.6632 43.147V44.5831C20.6632 44.6301 20.6843 44.6667 20.7211 44.698C20.7579 44.7293 20.8052 44.745 20.8578 44.745H20.8946L20.8999 44.7711H19.9637V44.745H20.0058Z" fill="white"/>
<path d="M24.2295 42.9851H24.1769C24.1348 42.9851 24.098 42.9955 24.0664 43.0216C24.0349 43.0425 24.0191 43.0739 24.0191 43.1104V44.1183C24.0191 44.3324 23.9402 44.4996 23.7824 44.6249C23.6247 44.7502 23.409 44.8129 23.1303 44.8129C22.8042 44.8129 22.557 44.7502 22.3835 44.6301C22.2099 44.51 22.1258 44.3377 22.1258 44.1236V43.1209C22.1258 43.0687 22.0942 43.0321 22.0416 43.006C22.0153 42.9955 21.989 42.9903 21.9627 42.9903H21.9154V42.9642H22.8042V42.9903H22.7569C22.7096 42.9903 22.6727 43.0008 22.6412 43.0269C22.6096 43.0478 22.5939 43.0791 22.5939 43.1157V44.1027C22.5939 44.2854 22.6464 44.4317 22.7516 44.5361C22.8568 44.6405 23.0041 44.698 23.1934 44.698C23.3827 44.698 23.53 44.6458 23.6352 44.5466C23.7456 44.4473 23.7982 44.3115 23.8035 44.134V43.1104C23.7982 43.0582 23.7719 43.0217 23.7193 43.0008C23.693 42.9903 23.6667 42.9851 23.6404 42.9851H23.5931V42.959H24.2347V42.9851H24.2295Z" fill="white"/>
<path d="M28.0105 44.7451H28.0578V44.7712H27.1322V44.7503H27.1795C27.2163 44.7503 27.2426 44.7346 27.2689 44.7137C27.2952 44.6928 27.3057 44.6667 27.3005 44.6406L27.1795 43.7006L26.601 44.5362C26.5274 44.6406 26.4853 44.7398 26.4853 44.8234H26.4537L25.6596 43.7058L25.5386 44.6354C25.5334 44.6615 25.5439 44.6876 25.5702 44.7137C25.5965 44.7346 25.6228 44.7503 25.6596 44.7503H25.7069V44.7712H25.0653V44.7451H25.1126C25.1705 44.7451 25.2178 44.7294 25.2599 44.7033C25.302 44.672 25.3283 44.6354 25.3335 44.5832L25.5912 42.9277H25.6175L26.5747 44.249L27.4951 42.9277H27.5214L27.7843 44.5832C27.7949 44.6354 27.8212 44.672 27.8632 44.7033C27.9053 44.7294 27.9579 44.7451 28.0105 44.7451Z" fill="white"/>
<path d="M32.4495 43.2046C32.6599 43.3665 32.7651 43.5859 32.7651 43.8679C32.7651 44.1499 32.6599 44.3692 32.4495 44.5311C32.2392 44.693 31.9499 44.7765 31.587 44.7765H30.4668V44.7504H30.5089C30.5615 44.7504 30.6088 44.7348 30.6456 44.7034C30.6824 44.6721 30.7035 44.6355 30.7035 44.5885V43.142C30.7035 43.1002 30.6824 43.0636 30.6456 43.0375C30.6035 43.0114 30.5615 42.9957 30.5089 42.9957H30.4668V42.9696H31.587C31.9499 42.9592 32.2392 43.0427 32.4495 43.2046ZM31.545 44.6616C31.6922 44.6616 31.8184 44.6303 31.9289 44.5676C32.0341 44.505 32.1182 44.411 32.1761 44.2909C32.2339 44.1707 32.2602 44.0402 32.2602 43.8992C32.2602 43.7582 32.2444 43.6381 32.2076 43.5389C32.1761 43.4396 32.1235 43.3561 32.0656 43.2882C31.9394 43.1472 31.7658 43.0741 31.5397 43.0741H31.161V44.6669H31.545V44.6616Z" fill="white"/>
<path d="M33.8275 44.7446C33.8801 44.7446 33.9274 44.729 33.9642 44.6976C34.001 44.6663 34.0221 44.6297 34.0221 44.5827V43.1414C34.0168 43.0944 34.001 43.0631 33.9747 43.0422C33.9274 43.0056 33.8748 42.9847 33.8222 42.9847H33.7802V42.9586H34.9582C35.0582 42.9586 35.1423 42.9534 35.2054 42.9377C35.2685 42.9273 35.3106 42.9168 35.3264 42.9116V43.366H35.2948V43.3398C35.2948 43.2354 35.2475 43.1571 35.1528 43.1101C35.1055 43.0892 35.0529 43.0735 34.995 43.0735H34.4796V43.8255H34.8846C34.9582 43.8255 35.0213 43.7994 35.0739 43.7576C35.1213 43.7158 35.1476 43.6636 35.1476 43.601V43.5801H35.1791V44.1754H35.1476V44.1545C35.1476 44.0918 35.1213 44.0396 35.0739 43.9978C35.0266 43.9561 34.9635 43.9352 34.8899 43.9352H34.4796V44.6611H34.8846C35.0319 44.6611 35.1581 44.6245 35.2633 44.5514C35.3632 44.4783 35.4421 44.3738 35.4894 44.2433H35.521L35.379 44.7707H33.7854V44.7446H33.8275Z" fill="white"/>
<path d="M36.525 44.531C36.525 44.4056 36.5566 44.3012 36.6197 44.2124H36.646C36.646 44.2281 36.6407 44.2385 36.6407 44.2542C36.6407 44.3743 36.6933 44.4787 36.7932 44.5675C36.8932 44.6563 37.0352 44.7033 37.2087 44.7033C37.3455 44.7033 37.4559 44.6772 37.5295 44.6197C37.6084 44.5623 37.6453 44.4944 37.6453 44.4109C37.6453 44.3586 37.6242 44.3168 37.5874 44.2751C37.5506 44.2333 37.4875 44.1915 37.3981 44.1445L36.8616 43.8468C36.6618 43.7372 36.5618 43.5962 36.5618 43.4343C36.5618 43.4186 36.5618 43.3977 36.5671 43.3821C36.5776 43.2463 36.6407 43.1366 36.7564 43.0531C36.8721 42.9695 37.0247 42.9277 37.214 42.9277C37.3244 42.9277 37.4664 42.9382 37.6347 42.9538H37.8293L37.7873 43.3351H37.7557C37.7557 43.2463 37.7136 43.1732 37.6347 43.121C37.5558 43.0687 37.4507 43.0374 37.3192 43.0374C37.1614 43.0374 37.0404 43.0792 36.9721 43.1627C36.9352 43.2045 36.9142 43.2411 36.9142 43.2828C36.9142 43.3246 36.9247 43.356 36.9405 43.3821C36.9668 43.4291 37.0299 43.4761 37.1298 43.5283L37.7189 43.8468C37.903 43.9461 37.9976 44.0818 37.9976 44.2437C37.9976 44.4265 37.924 44.5675 37.7767 44.6615C37.6295 44.7607 37.4296 44.8077 37.1824 44.8077C37.0404 44.8077 36.9142 44.7921 36.7985 44.766C36.6828 44.7398 36.5934 44.6981 36.5408 44.6511C36.5355 44.6145 36.525 44.578 36.525 44.531Z" fill="white"/>
<path d="M39.092 44.745C39.1446 44.745 39.1919 44.7293 39.2287 44.698C39.2656 44.6667 39.2866 44.6301 39.2866 44.5831V43.147C39.2866 43.1 39.2656 43.0634 39.2287 43.0321C39.1919 43.0008 39.1446 42.9851 39.092 42.9851H39.0499V42.959H39.9861L39.9808 42.9851H39.944C39.8914 42.9851 39.8441 43.0008 39.8073 43.0321C39.7705 43.0634 39.7494 43.1 39.7494 43.147V44.5831C39.7494 44.6301 39.7705 44.6667 39.8073 44.698C39.8441 44.7293 39.8914 44.745 39.944 44.745H39.9808L39.9861 44.7711H39.0499V44.745H39.092Z" fill="white"/>
<path d="M42.1843 44.8075C41.8319 44.8075 41.5532 44.7239 41.3375 44.5516C41.1219 44.3792 41.0167 44.1547 41.0167 43.8622C41.0167 43.575 41.1219 43.3452 41.3375 43.1729C41.5479 43.0058 41.8372 42.917 42.2001 42.917C42.3631 42.917 42.5209 42.9327 42.6786 42.9588C42.8312 42.9849 42.9574 43.0162 43.0521 43.058L43.0573 43.5019H43.031C42.9784 43.3348 42.8838 43.2147 42.7575 43.1363C42.6261 43.0632 42.4735 43.0214 42.2947 43.0214C42.0475 43.0214 41.8529 43.0946 41.7215 43.246C41.59 43.3974 41.5216 43.6011 41.5216 43.857C41.5216 44.1181 41.5847 44.3218 41.7057 44.468C41.8266 44.6142 42.0002 44.6873 42.2264 44.6873C42.3894 44.6873 42.5261 44.6508 42.6313 44.5725C42.6839 44.5307 42.726 44.4837 42.747 44.4315V44.0346C42.747 43.998 42.7312 43.9667 42.7049 43.9458C42.6786 43.9249 42.6366 43.9145 42.584 43.9145H42.5366V43.8883H43.4044V43.9145H43.3571C43.3098 43.9145 43.2677 43.9249 43.2414 43.9458C43.2151 43.9667 43.1993 43.9928 43.1993 44.0346V44.4628C43.1204 44.5516 42.9889 44.6299 42.7996 44.6978C42.6208 44.7709 42.4157 44.8075 42.1843 44.8075Z" fill="white"/>
<path d="M46.7445 42.9852C46.6708 42.9852 46.6182 43.0113 46.5814 43.0635C46.5656 43.0844 46.5551 43.1105 46.5551 43.1418V44.4787C46.5551 44.5936 46.5656 44.6928 46.5814 44.7712L46.5919 44.8077H46.5656L45.0089 43.5648V44.5936C45.0089 44.6354 45.0299 44.672 45.0668 44.7033C45.1036 44.7346 45.1456 44.7503 45.1982 44.7503H45.2561V44.7764H44.3252V44.7503H44.383C44.4356 44.7503 44.483 44.7346 44.5198 44.7033C44.5566 44.672 44.5776 44.6354 44.5776 44.5884V43.2463C44.5776 43.1314 44.5671 43.0374 44.5513 42.9643L44.5461 42.9277H44.5724L46.1291 44.1706V43.1418C46.1291 43.0948 46.1081 43.0583 46.0713 43.027C46.0345 42.9956 45.9924 42.98 45.9398 42.98H45.8819V42.9538H46.8128V42.98H46.7445V42.9852Z" fill="white"/>
<path d="M47.817 44.531C47.817 44.4056 47.8486 44.3012 47.9117 44.2124H47.938C47.938 44.2281 47.9327 44.2385 47.9327 44.2542C47.9327 44.3743 47.9853 44.4787 48.0852 44.5675C48.1852 44.6563 48.3272 44.7033 48.5007 44.7033C48.6375 44.7033 48.7479 44.6772 48.8215 44.6197C48.9004 44.5623 48.9372 44.4944 48.9372 44.4109C48.9372 44.3586 48.9162 44.3168 48.8794 44.2751C48.8426 44.2333 48.7795 44.1915 48.6901 44.1445L48.1536 43.8468C47.9538 43.7372 47.8538 43.5962 47.8538 43.4343C47.8538 43.4186 47.8538 43.3977 47.8591 43.3821C47.8696 43.2463 47.9327 43.1366 48.0484 43.0531C48.1641 42.9695 48.3166 42.9277 48.506 42.9277C48.6164 42.9277 48.7584 42.9382 48.9267 42.9538H49.1213L49.0792 43.3351H49.0477C49.0477 43.2463 49.0056 43.1732 48.9267 43.121C48.8478 43.0687 48.7426 43.0374 48.6112 43.0374C48.4534 43.0374 48.3324 43.0792 48.2641 43.1627C48.2272 43.2045 48.2062 43.2411 48.2062 43.2828C48.2062 43.3246 48.2167 43.356 48.2325 43.3821C48.2588 43.4291 48.3219 43.4761 48.4218 43.5283L49.0109 43.8468C49.1949 43.9461 49.2896 44.0818 49.2896 44.2437C49.2896 44.4265 49.216 44.5675 49.0687 44.6615C48.9215 44.7607 48.7216 44.8077 48.4744 44.8077C48.3324 44.8077 48.2062 44.7921 48.0905 44.766C47.9748 44.7398 47.8854 44.6981 47.8328 44.6511C47.8223 44.6145 47.817 44.578 47.817 44.531Z" fill="white"/>
<path d="M5.42227 24.2742H3.9707V24.2481H4.00752C4.05485 24.2481 4.09167 24.2377 4.12848 24.2116C4.16004 24.1855 4.17582 24.1541 4.18107 24.1176V22.8851C4.18107 22.8486 4.16004 22.8172 4.12848 22.7911C4.09693 22.765 4.05485 22.7546 4.00752 22.7546H3.9707V22.7284H5.05412C5.11197 22.7284 5.16982 22.7232 5.23819 22.718C5.3013 22.7076 5.34864 22.7023 5.37493 22.6919V23.1045H5.34338V23.0836C5.34338 23.0052 5.31708 22.9478 5.26975 22.906C5.22241 22.8642 5.15404 22.8381 5.06464 22.8381H4.62286V23.4648H4.97523C5.0436 23.4648 5.10145 23.4439 5.14353 23.4073C5.1856 23.3708 5.20663 23.3186 5.20663 23.2611V23.2455H5.23819V23.7938H5.20663V23.7781C5.20663 23.6946 5.16982 23.6371 5.10145 23.6006C5.06463 23.5797 5.02256 23.5745 4.98049 23.5745H4.62286V24.1855H4.99101C5.11723 24.1855 5.22767 24.1489 5.31708 24.0862C5.40649 24.0236 5.4696 23.9296 5.51168 23.8147H5.53797L5.42227 24.2742Z" fill="white"/>
<path d="M6.51611 24.0649C6.51611 23.9553 6.54767 23.8561 6.60552 23.7777H6.63182C6.63182 23.7882 6.62656 23.7986 6.62656 23.8091C6.62656 23.9135 6.66863 24.0075 6.75804 24.0858C6.84745 24.1642 6.97367 24.206 7.13145 24.206C7.24716 24.206 7.33656 24.1851 7.39967 24.1381C7.46278 24.0911 7.49434 24.0441 7.49434 23.9866C7.49434 23.9292 7.47856 23.8874 7.44175 23.8508C7.40493 23.8195 7.34708 23.7777 7.26293 23.7307L6.82641 23.4957C6.64234 23.4017 6.54767 23.2764 6.54767 23.1249C6.54767 23.1093 6.54767 23.0936 6.55293 23.0779C6.56345 22.9578 6.6213 22.8586 6.72123 22.7907C6.82115 22.7228 6.94212 22.6863 7.07886 22.6863C7.2156 22.6863 7.3576 22.6915 7.51012 22.7072H7.67841L7.63634 23.0466H7.61004C7.61004 22.9631 7.57849 22.9004 7.51012 22.8534C7.44175 22.8064 7.3576 22.7855 7.24716 22.7855C7.13671 22.7855 7.05256 22.8064 6.98945 22.8429C6.92634 22.8795 6.89478 22.9317 6.89478 22.9944C6.89478 23.0466 6.92634 23.0884 6.98945 23.1302C7.01575 23.1458 7.05256 23.1667 7.09464 23.1876L7.58375 23.4435C7.75205 23.5323 7.83619 23.6472 7.83619 23.7986C7.83619 23.9605 7.76782 24.0806 7.63634 24.1694C7.4996 24.2582 7.32605 24.2999 7.11567 24.2999C6.98419 24.2999 6.86849 24.2895 6.76856 24.2634C6.66863 24.2373 6.595 24.2059 6.54767 24.1642C6.52137 24.1433 6.51611 24.1067 6.51611 24.0649Z" fill="white"/>
<path d="M10.5081 23.0881V23.0672C10.5081 22.9941 10.4818 22.9367 10.4344 22.8897C10.3871 22.8479 10.3187 22.8218 10.2293 22.8218H9.87169V24.1117C9.87169 24.1482 9.89272 24.1795 9.92428 24.2057C9.95584 24.2318 9.99791 24.2422 10.04 24.2422H10.0715V24.2683H9.21954V24.2422H9.25109C9.29843 24.2422 9.3405 24.2318 9.37206 24.2057C9.40361 24.1795 9.41939 24.1482 9.41939 24.1064V22.8165H9.06702C8.97761 22.8165 8.90924 22.8426 8.85665 22.8844C8.80932 22.9262 8.78302 22.9837 8.78302 23.062V23.0829H8.75146V22.6755C8.77776 22.686 8.83035 22.6912 8.89347 22.7016C8.96184 22.7121 9.01969 22.7121 9.07228 22.7121H10.2083C10.2977 22.7121 10.3713 22.7069 10.4292 22.6964C10.487 22.686 10.5186 22.6755 10.5291 22.6755V23.0829H10.5081V23.0881Z" fill="white"/>
<path d="M13.2584 22.9318C13.4478 23.0676 13.5372 23.2608 13.5372 23.501C13.5372 23.7412 13.4425 23.9345 13.2584 24.0702C13.0691 24.206 12.8114 24.2739 12.4801 24.2739H11.4387V24.2478H11.4808C11.5281 24.2478 11.5702 24.2321 11.6018 24.206C11.6333 24.1799 11.6544 24.1434 11.6544 24.1068V22.8796C11.6491 22.843 11.6333 22.8117 11.5965 22.7856C11.5649 22.7595 11.5229 22.749 11.4755 22.749H11.4387V22.7229H12.4801C12.8114 22.7229 13.0744 22.7908 13.2584 22.9318ZM12.4485 24.1747C12.6431 24.1747 12.7956 24.1172 12.9061 23.9971C13.0165 23.877 13.0744 23.7151 13.0744 23.501C13.0744 23.2921 13.0165 23.125 12.9061 23.0049C12.7956 22.8848 12.6431 22.8273 12.4485 22.8273H12.1014V24.1747H12.4485Z" fill="white"/>
<path d="M43.9409 22.4292C44.0619 22.4292 44.1829 22.4501 44.3038 22.4919C44.4248 22.5336 44.5195 22.5911 44.5878 22.6746C44.6562 22.753 44.693 22.847 44.693 22.9514C44.693 23.0402 44.6615 23.1446 44.5931 23.2543C44.5563 23.317 44.4774 23.4058 44.3512 23.5259C44.2723 23.599 44.1618 23.6878 44.0093 23.7818C43.862 23.881 43.7832 23.9332 43.7726 23.9384H44.409C44.4984 23.9384 44.5773 23.9175 44.6352 23.881C44.6983 23.8444 44.7509 23.7765 44.8087 23.6878H44.8403L44.6562 24.2727H43.1836V24.2465C43.2099 24.2204 43.2677 24.1682 43.3414 24.0951C43.4203 24.022 43.4781 23.9698 43.5149 23.9332C43.557 23.8966 43.6096 23.8444 43.6832 23.7713C43.7516 23.6982 43.8095 23.6408 43.8463 23.5938C43.8831 23.5468 43.9304 23.4893 43.983 23.4266C44.0356 23.3588 44.0724 23.3013 44.104 23.2491C44.1671 23.1238 44.2039 23.0089 44.2039 22.8992C44.2039 22.7895 44.1671 22.706 44.0987 22.6381C44.0303 22.5702 43.9357 22.5389 43.82 22.5389C43.6675 22.5389 43.557 22.5806 43.4834 22.6642C43.4097 22.7478 43.3729 22.8679 43.3729 23.0141H43.3414L43.1941 22.6172C43.3519 22.4919 43.6043 22.4292 43.9409 22.4292Z" fill="white"/>
<path d="M46.0818 22.6807C46.2343 22.5084 46.4446 22.4248 46.7129 22.4248C46.9811 22.4248 47.1915 22.5084 47.344 22.6807C47.4965 22.853 47.5754 23.0776 47.5754 23.37C47.5754 23.6573 47.4965 23.887 47.344 24.0594C47.1915 24.2317 46.9811 24.3153 46.7129 24.3153C46.4446 24.3153 46.2343 24.2317 46.0818 24.0594C45.9292 23.887 45.8503 23.6625 45.8503 23.37C45.8503 23.0828 45.9292 22.853 46.0818 22.6807ZM46.7181 22.5345C46.5498 22.5345 46.4341 22.6598 46.371 22.9053C46.3447 23.0306 46.3289 23.182 46.3289 23.3648C46.3289 23.6416 46.3605 23.8453 46.4289 23.9863C46.492 24.1273 46.5919 24.1952 46.7181 24.1952C46.8443 24.1952 46.939 24.1273 47.0074 23.9863C47.0705 23.8453 47.1073 23.6364 47.1073 23.3648C47.1073 23.0933 47.0758 22.8844 47.0074 22.7434C46.9338 22.6076 46.8391 22.5345 46.7181 22.5345Z" fill="white"/>
<path d="M49.3893 22.4292C49.5102 22.4292 49.6312 22.4501 49.7522 22.4919C49.8731 22.5336 49.9678 22.5911 50.0362 22.6746C50.1045 22.753 50.1414 22.847 50.1414 22.9514C50.1414 23.0402 50.1098 23.1446 50.0414 23.2543C50.0046 23.317 49.9257 23.4058 49.7995 23.5259C49.7206 23.599 49.6102 23.6878 49.4577 23.7818C49.3104 23.881 49.2315 23.9332 49.221 23.9384H49.8574C49.9468 23.9384 50.0257 23.9175 50.0835 23.881C50.1466 23.8444 50.1992 23.7765 50.2571 23.6878H50.2886L50.1045 24.2727H48.632V24.2465C48.6583 24.2204 48.7161 24.1682 48.7897 24.0951C48.8686 24.022 48.9265 23.9698 48.9633 23.9332C49.0054 23.8966 49.058 23.8444 49.1316 23.7713C49.2 23.6982 49.2578 23.6408 49.2946 23.5938C49.3314 23.5468 49.3788 23.4893 49.4314 23.4266C49.484 23.3588 49.5208 23.3013 49.5523 23.2491C49.6154 23.1238 49.6522 23.0089 49.6522 22.8992C49.6522 22.7895 49.6154 22.706 49.5471 22.6381C49.4787 22.5702 49.384 22.5389 49.2683 22.5389C49.1158 22.5389 49.0054 22.5806 48.9317 22.6642C48.8581 22.7478 48.8213 22.8679 48.8213 23.0141H48.7897L48.6425 22.6172C48.8003 22.4919 49.0527 22.4292 49.3893 22.4292Z" fill="white"/>
<path d="M51.5301 22.6807C51.6826 22.5084 51.893 22.4248 52.1612 22.4248C52.4295 22.4248 52.6398 22.5084 52.7923 22.6807C52.9449 22.853 53.0238 23.0776 53.0238 23.37C53.0238 23.6573 52.9449 23.887 52.7923 24.0594C52.6398 24.2317 52.4295 24.3153 52.1612 24.3153C51.893 24.3153 51.6826 24.2317 51.5301 24.0594C51.3776 23.887 51.2987 23.6625 51.2987 23.37C51.2987 23.0828 51.3776 22.853 51.5301 22.6807ZM52.1665 22.5345C51.9982 22.5345 51.8825 22.6598 51.8194 22.9053C51.7931 23.0306 51.7773 23.182 51.7773 23.3648C51.7773 23.6416 51.8089 23.8453 51.8772 23.9863C51.9403 24.1273 52.0403 24.1952 52.1665 24.1952C52.2927 24.1952 52.3874 24.1273 52.4557 23.9863C52.5189 23.8453 52.5557 23.6364 52.5557 23.3648C52.5557 23.0933 52.5241 22.8844 52.4557 22.7434C52.3821 22.6076 52.2874 22.5345 52.1665 22.5345Z" fill="white"/>
<path d="M37.4882 48.1958C35.9893 48.1175 34.4904 48.0757 32.9968 48.0444C31.7293 48.0183 30.4671 48.0078 29.1996 48.0026L29.0944 47.6057L28.2898 47.3916L27.7007 47.9765L27.706 48.0026C26.4753 48.0078 25.2447 48.0183 24.014 48.0444C22.5151 48.0705 21.0162 48.1123 19.5226 48.1958C21.0215 48.2742 22.5204 48.3159 24.014 48.3473C25.2815 48.3734 26.5437 48.3838 27.8112 48.3891L27.9164 48.7859L28.721 49.0001L29.3101 48.4152L29.3048 48.3943C30.5355 48.3891 31.7661 48.3786 32.9968 48.3525C34.4904 48.3159 35.9893 48.2742 37.4882 48.1958Z" fill="white"/>
</svg>
