<svg width="51" height="50" viewBox="0 0 51 50" fill="none" xmlns="http://www.w3.org/2000/svg">
<g clip-path="url(#clip0_17901_2155)">
<path d="M49.426 47.0703L43.155 40.7993C41.5658 39.2101 38.9894 39.2101 37.4002 40.7993L31.1582 47.0413L49.426 47.0703Z" fill="#C6865C"/>
<path d="M13.2293 35.1929V42.8711H3.47852C2.31885 42.8711 1.37891 43.811 1.37891 44.9707C1.37891 46.1304 2.31885 47.0703 3.47852 47.0703H13.9323C16.3119 47.0703 18.241 45.1412 18.241 42.762V35.6445L13.2293 35.1929Z" fill="#79B2FF"/>
<path d="M18.1059 2.92969H13.489C12.4895 2.92969 11.6797 3.73955 11.6797 4.739V7.27997H19.9152V4.739C19.9152 3.73955 19.1054 2.92969 18.1059 2.92969Z" fill="#FFC15A"/>
<path d="M15.9069 14.331C13.8413 14.331 12.167 12.6563 12.167 10.5911V7.27991H19.6469V10.5911C19.6469 12.6563 17.9722 14.331 15.9069 14.331Z" fill="#F2D1A5"/>
<path d="M10.1304 26.0906V19.6361C10.1304 17.0997 12.1869 15.0432 14.7233 15.0432C16.1923 15.0432 17.5728 15.7459 18.4373 16.9342L21.6538 21.355H28.4264C29.6147 21.355 30.5783 22.3182 30.5783 23.5069C30.5783 24.6952 29.6147 25.6584 28.4264 25.6584H19.2506L17.0617 23.1979L17.9757 24.3652V30.0666H23.6565C26.0361 30.0666 27.9649 31.9957 27.9649 34.375V44.9707C27.9649 46.1303 27.0249 47.0703 25.8652 47.0703C24.706 47.0703 23.7656 46.1303 23.7656 44.9707V35.4686H15.3298C12.4581 35.4686 10.1304 33.1409 10.1304 30.2696C10.1304 30.0563 10.1304 24.3652 10.1304 24.3652" fill="#79B2FF"/>
<path d="M17.9757 30.2692V24.3652L17.0617 23.1979L19.2502 25.6584H28.4264C29.6147 25.6584 30.5779 24.6952 30.5779 23.5069C30.5779 22.3186 29.6147 21.3554 28.4264 21.3554H21.6538L18.4373 16.9342C17.5728 15.7463 16.1927 15.0432 14.7233 15.0432C12.1869 15.0432 10.1304 17.0997 10.1304 19.6361V26.0906V30.2692H17.9757Z" fill="#FFCB7C"/>
<path d="M37.8896 8.61015C37.8896 10.4263 38.8399 12.0197 40.2696 12.9231C41.6994 12.0197 42.6496 10.4263 42.6496 8.61015C42.6496 6.79359 41.6994 5.2002 40.2696 4.29688C38.8399 5.2002 37.8896 6.79359 37.8896 8.61015Z" fill="#00730C"/>
<path d="M42.1459 19.0147C40.5308 20.6295 39.9589 22.8916 40.427 24.966C42.5015 25.4337 44.7632 24.8619 46.3783 23.2471C47.9931 21.632 48.5649 19.3702 48.0972 17.2958C46.0228 16.8277 43.7607 17.3995 42.1459 19.0147Z" fill="#00730C"/>
<path d="M38.6266 15.427C40.0403 16.8407 40.5408 18.8205 40.1311 20.6367C38.3153 21.046 36.3355 20.5455 34.9218 19.1318C33.5081 17.7181 33.0076 15.7383 33.4169 13.9225C35.2331 13.5128 37.2129 14.0132 38.6266 15.427Z" fill="#00730C"/>
<path d="M38.2046 25.9227C39.9818 27.7004 40.6113 30.1895 40.0963 32.4726C37.8132 32.9876 35.3241 32.3581 33.5464 30.5809C31.7692 28.8032 31.1397 26.3141 31.6547 24.031C33.9378 23.5164 36.4269 24.1455 38.2046 25.9227Z" fill="#00730C"/>
<path d="M50.1163 46.3799L43.8453 40.1089C43.1091 39.3723 42.1992 38.9115 41.2463 38.7265V26.0773C41.4512 26.0945 41.6553 26.1028 41.859 26.1028C43.7949 26.1028 45.6634 25.343 47.0687 23.9376C48.8712 22.1352 49.6116 19.5721 49.0497 17.0807C48.9669 16.713 48.6797 16.4261 48.3119 16.3429C45.8209 15.7814 43.2574 16.5218 41.4554 18.3243C41.3837 18.3956 41.3146 18.4689 41.2463 18.5425V13.4316C42.7459 12.2845 43.6263 10.5202 43.6263 8.60978C43.6263 6.51398 42.5666 4.5929 40.7916 3.47138C40.4727 3.26996 40.0668 3.26996 39.7479 3.47138C37.9729 4.5929 36.9132 6.51398 36.9132 8.60978C36.9132 10.5202 37.7937 12.2845 39.2932 13.4316V14.7133C37.6872 13.1229 35.4129 12.471 33.2023 12.9696C32.8345 13.0528 32.5473 13.34 32.4645 13.7074C31.9636 15.929 32.624 18.2148 34.2311 19.8223C35.4846 21.0758 37.1509 21.7533 38.8774 21.7533C39.0159 21.7533 39.1544 21.7476 39.2932 21.7392V25.6615C39.1662 25.5146 39.0338 25.3712 38.895 25.2323C36.9552 23.2929 34.2048 22.485 31.5223 23.0614C31.3052 21.5466 29.9998 20.3785 28.4267 20.3785H22.1511L19.2271 16.3597C18.8136 15.7909 18.2986 15.3149 17.7184 14.9452C19.4224 14.2334 20.6233 12.55 20.6233 10.5911V8.25654H22.129C22.6684 8.25654 23.1055 7.81937 23.1055 7.27997C23.1055 6.74057 22.6684 6.30341 22.129 6.30341H20.8919V4.739C20.8919 3.20282 19.6422 1.95312 18.106 1.95312H13.4891C11.9529 1.95312 10.7032 3.20282 10.7032 4.739V6.30341H9.46607C8.92667 6.30341 8.48951 6.74057 8.48951 7.27997C8.48951 7.81937 8.92667 8.25654 9.46607 8.25654H11.1903V10.5911C11.1903 12.1117 11.9143 13.4659 13.0351 14.3292C10.7871 15.0459 9.15403 17.1536 9.15403 19.6362V30.2693C9.15403 32.5546 10.4026 34.5528 12.2527 35.6205V41.8946H3.47852C1.7825 41.8946 0.402344 43.2747 0.402344 44.9707C0.402344 46.6668 1.7825 48.0469 3.47852 48.0469H4.73584C5.27524 48.0469 5.71241 47.6097 5.71241 47.0703C5.71241 46.5309 5.27524 46.0938 4.73584 46.0938H3.47852C2.85939 46.0938 2.35547 45.5899 2.35547 44.9707C2.35547 44.3516 2.85939 43.8477 3.47852 43.8477H13.2293C13.7687 43.8477 14.2058 43.4105 14.2058 42.8711V36.3407C14.5705 36.4083 14.9459 36.4453 15.33 36.4453H17.2645V42.7616C17.2645 44.5992 15.7695 46.0938 13.9323 46.0938H12.5483C12.0089 46.0938 11.5718 46.5309 11.5718 47.0703C11.5718 47.6097 12.0089 48.0469 12.5483 48.0469H13.9323C16.8468 48.0469 19.2176 45.6761 19.2176 42.7616V36.4453H22.7893V44.9707C22.7893 46.6668 24.1695 48.0469 25.8655 48.0469C27.5619 48.0469 28.9416 46.6668 28.9416 44.9707V34.375C28.9416 31.4606 26.5712 29.0898 23.6568 29.0898H18.9525V26.5881C19.0478 26.6186 19.1482 26.635 19.2508 26.635H28.4267C29.2239 26.635 29.9522 26.3348 30.5053 25.8419C30.5644 27.8626 31.385 29.8001 32.8559 31.2714C34.3841 32.7996 36.4154 33.6254 38.52 33.6254C38.7771 33.6254 39.035 33.6125 39.2932 33.5877V38.7299C38.3456 38.9168 37.4419 39.3761 36.7095 40.1089L30.4675 46.3509C30.0861 46.732 30.0861 47.3503 30.4675 47.7318C30.8486 48.1133 31.4674 48.1133 31.8484 47.7318L38.0904 41.4902C39.2963 40.284 41.2582 40.284 42.4644 41.4902L48.7354 47.7608C48.9261 47.9515 49.176 48.0469 49.4258 48.0469C49.6757 48.0469 49.9255 47.9515 50.1163 47.7608C50.4977 47.3793 50.4977 46.761 50.1163 46.3799ZM39.2776 19.7827C37.9241 19.8975 36.5897 19.4183 35.6124 18.4414C34.6355 17.4641 34.1556 16.1301 34.2712 14.7762C35.6246 14.661 36.959 15.1405 37.9363 16.1175C38.9133 17.0948 39.3928 18.4292 39.2776 19.7827ZM42.8363 19.7052C44.0101 18.5318 45.6222 17.9699 47.2495 18.1435C47.4227 19.7701 46.8612 21.3829 45.6878 22.5563C44.514 23.7301 42.9019 24.2916 41.2746 24.1181C41.257 23.9525 41.249 23.7873 41.2463 23.6225V23.4326C41.2734 22.0455 41.8281 20.7134 42.8363 19.7052ZM40.2698 5.51148C41.1582 6.28853 41.6732 7.407 41.6732 8.61016C41.6732 9.81293 41.1582 10.9314 40.2698 11.7085C39.3813 10.9314 38.8663 9.81331 38.8663 8.61016C38.8663 7.407 39.3813 6.28853 40.2698 5.51148ZM18.6702 10.5911C18.6702 12.1147 17.4304 13.3545 15.9068 13.3545C14.3828 13.3545 13.1434 12.1147 13.1434 10.5911V8.25654H18.6702V10.5911ZM12.6563 4.739C12.6563 4.27971 13.0298 3.90625 13.4891 3.90625H18.106C18.5653 3.90625 18.9387 4.27971 18.9387 4.739V6.30341H12.6563V4.739ZM23.6568 31.0429C25.4939 31.0429 26.9885 32.5379 26.9885 34.375V44.9707C26.9885 45.5899 26.485 46.0938 25.8655 46.0938C25.2463 46.0938 24.7424 45.5899 24.7424 44.9707V35.4687C24.7424 34.9297 24.3053 34.4921 23.7659 34.4921H15.3296C13.2659 34.4921 11.5439 33.0033 11.1793 31.0429H23.6568ZM28.4267 24.6819H19.6887L17.7917 22.5491C17.4331 22.1459 16.8159 22.11 16.4126 22.4682C16.0098 22.8268 15.9736 23.444 16.3321 23.8472L16.9993 24.5968V29.0898H11.1072V19.6362C11.1072 17.6422 12.7295 16.0198 14.7235 16.0198C15.8763 16.0198 16.9696 16.5764 17.6478 17.5087L20.8644 21.9296C21.0483 22.1825 21.3416 22.3316 21.654 22.3316H28.4267C29.0748 22.3316 29.602 22.8588 29.602 23.5069C29.602 24.1547 29.0744 24.6819 28.4267 24.6819ZM39.252 31.6284C37.4057 31.8485 35.5689 31.2222 34.2372 29.8905C32.9055 28.5588 32.2784 26.7216 32.4988 24.8753C34.3448 24.654 36.1823 25.2819 37.514 26.6136C38.6588 27.7584 39.281 29.2771 39.2932 30.8537V30.9918C39.2902 31.2035 39.2772 31.416 39.252 31.6284Z" fill="black"/>
<path d="M8.64182 46.0938C8.38471 46.0938 8.13408 46.1983 7.95136 46.3799C7.76978 46.5614 7.66602 46.8136 7.66602 47.0703C7.66602 47.327 7.76978 47.5792 7.95136 47.7608C8.13408 47.9423 8.38471 48.0469 8.64182 48.0469C8.89855 48.0469 9.15032 47.9423 9.33304 47.7608C9.51462 47.5792 9.61914 47.327 9.61914 47.0703C9.61914 46.8136 9.51462 46.5614 9.33304 46.3799C9.15032 46.1983 8.89855 46.0938 8.64182 46.0938Z" fill="black"/>
</g>
<defs>
<clipPath id="clip0_17901_2155">
<rect width="50" height="50" fill="white" transform="translate(0.5)"/>
</clipPath>
</defs>
</svg>
