<svg width="51" height="50" viewBox="0 0 51 50" fill="none" xmlns="http://www.w3.org/2000/svg">
<g clip-path="url(#clip0_17901_1249)">
<path d="M45.433 19.4338H5.34441C5.03787 19.4338 4.85076 19.7708 5.01277 20.0309L12.4234 31.9337C14.0384 34.5277 17.2245 35.6816 20.1325 34.7258L40.8902 27.9031C43.2368 27.1318 44.9586 25.1235 45.3579 22.6922L45.8184 19.8878C45.8575 19.6499 45.674 19.4338 45.433 19.4338Z" fill="#E19E81"/>
<path d="M45.433 19.4338H42.5033C42.7443 19.4338 42.9278 19.65 42.8888 19.8877L42.4282 22.6921C42.0289 25.1234 40.307 27.1317 37.9605 27.903L17.2028 34.7257C16.9998 34.7925 16.7954 34.8478 16.5903 34.8942C17.7351 35.1535 18.9564 35.1123 20.1325 34.7257L40.8902 27.903C43.2368 27.1318 44.9586 25.1235 45.3579 22.6921L45.8185 19.8877C45.8575 19.65 45.674 19.4338 45.433 19.4338Z" fill="#E33629"/>
<path d="M31.6021 16.7401C31.6021 16.7401 30.9263 6.39053 40.2845 4.72207C40.4777 4.6876 40.6522 4.84404 40.6396 5.04004C40.5242 6.84043 39.5655 14.5388 31.6021 16.7401Z" fill="#6DE470"/>
<path d="M40.2843 4.72207C39.3071 4.89629 38.4407 5.16631 37.67 5.50821C37.4602 7.54444 36.4524 12.754 31.6129 15.5284C31.5719 16.2753 31.6019 16.7401 31.6019 16.7401C39.5654 14.5388 40.524 6.84034 40.6394 5.03995C40.652 4.84395 40.4775 4.6876 40.2843 4.72207Z" fill="#00730C"/>
<path d="M18.2017 14.538C18.2017 14.538 21.7121 4.77793 30.9594 6.9792C31.1502 7.02461 31.2479 7.2376 31.1581 7.4123C30.3339 9.01728 26.3827 15.6944 18.2017 14.538Z" fill="#6DE470"/>
<path d="M30.9597 6.97915C29.452 6.62027 28.0978 6.58081 26.8855 6.76372C27.2571 6.81568 27.638 6.88589 28.03 6.97915C28.2208 7.02456 28.3185 7.23755 28.2287 7.41226C27.5241 8.78423 24.5339 13.8619 18.5703 14.585C26.5017 15.4933 30.3466 8.99302 31.1584 7.41226C31.2481 7.23755 31.1505 7.02456 30.9597 6.97915Z" fill="#00730C"/>
<path d="M13.7151 18.7502C13.7151 18.7502 9.6381 9.21274 17.9104 4.53169C18.0811 4.43511 18.2977 4.52466 18.351 4.71362C18.8404 6.45015 20.4947 14.0296 13.7151 18.7502Z" fill="#6DE470"/>
<path d="M18.3509 4.71356C18.2976 4.5245 18.0811 4.43495 17.9104 4.53163C17.0595 5.01317 16.3411 5.54666 15.7336 6.11522C16.15 8.541 16.3202 13.0246 13.0898 16.7059C13.3744 17.9522 13.7149 18.7502 13.7149 18.7502C20.4947 14.0296 18.8404 6.45008 18.3509 4.71356Z" fill="#00730C"/>
<path d="M10.9092 19.4338H41.7686C41.7686 19.4338 36.2194 11.6213 26.8778 11.6213C17.5362 11.6213 10.9092 19.4338 10.9092 19.4338Z" fill="#C6865C"/>
<path d="M26.878 11.6213C26.3802 11.6213 25.8905 11.6448 25.4087 11.6868C33.865 12.4332 38.8391 19.4338 38.8391 19.4338H41.7688C41.7688 19.4338 36.2196 11.6213 26.878 11.6213Z" fill="#BE652B"/>
<path d="M48.7723 27.0238L8.78037 40.5689C8.01416 40.8285 7.18252 40.4176 6.92305 39.6514C6.66348 38.8852 7.07432 38.0535 7.84053 37.7941L47.8324 24.2489C48.5986 23.9893 49.4303 24.4001 49.6897 25.1663C49.9493 25.9326 49.5385 26.7642 48.7723 27.0238Z" fill="#D2D2D2"/>
<path d="M6.86992 45.5081C9.98343 45.5081 12.5074 42.9842 12.5074 39.8707C12.5074 36.7571 9.98343 34.2332 6.86992 34.2332C3.75642 34.2332 1.23242 36.7571 1.23242 39.8707C1.23242 42.9842 3.75642 45.5081 6.86992 45.5081Z" fill="#43809F"/>
<path d="M6.87012 34.2332C6.36328 34.2332 5.87256 34.3011 5.40527 34.4265C7.8083 35.0715 9.57793 37.264 9.57793 39.8707C9.57793 42.4773 7.8084 44.6698 5.40527 45.3148C5.87256 45.4402 6.36328 45.5081 6.87012 45.5081C9.98359 45.5081 12.5076 42.9841 12.5076 39.8707C12.5076 36.7572 9.98359 34.2332 6.87012 34.2332Z" fill="#3B7191"/>
<path d="M6.86992 42.0995C8.10086 42.0995 9.09873 41.1016 9.09873 39.8707C9.09873 38.6397 8.10086 37.6418 6.86992 37.6418C5.63898 37.6418 4.64111 38.6397 4.64111 39.8707C4.64111 41.1016 5.63898 42.0995 6.86992 42.0995Z" fill="#F3F3F3"/>
<path d="M50.3833 24.9318C50.1954 24.3761 49.8021 23.9267 49.2755 23.6667C48.7491 23.4068 48.153 23.3674 47.597 23.5556L45.71 24.1947C45.8781 23.7469 46.0034 23.2829 46.0812 22.8113L46.5411 20.0067C46.5946 19.6806 46.5026 19.3494 46.2889 19.0977C46.0752 18.8461 45.763 18.7016 45.4326 18.7016H42.1319C41.8901 18.3943 41.4633 17.8794 40.861 17.255C40.5802 16.9638 40.1165 16.9555 39.8255 17.2362C39.5344 17.517 39.526 17.9806 39.8067 18.2718C39.9521 18.4225 40.0864 18.5665 40.2095 18.7016H12.6447C14.8986 16.5684 20.1972 12.3542 26.8777 12.3542C31.5901 12.3542 35.2899 14.4731 37.5638 16.2508C37.8824 16.4997 38.3427 16.4434 38.5919 16.1248C38.841 15.806 38.7847 15.3459 38.4659 15.0967C38.1296 14.8338 37.7633 14.5639 37.3699 14.294C40.7346 10.9689 41.2826 6.45965 41.3705 5.08807C41.3911 4.76873 41.2662 4.46317 41.0277 4.24959C40.7893 4.03602 40.4716 3.94569 40.1554 4.00135C34.8637 4.94559 32.578 8.48133 31.5956 11.549C30.9174 11.3573 30.2083 11.2002 29.4698 11.0875C30.7369 9.69559 31.5007 8.34871 31.8095 7.74774C31.9558 7.46326 31.9632 7.13328 31.8299 6.84246C31.6966 6.55174 31.442 6.34207 31.1295 6.26688C27.6694 5.44305 24.5747 6.08826 21.9314 8.18387C20.9294 8.9783 20.1153 9.89393 19.4738 10.7656C19.88 7.88377 19.306 5.40321 19.0562 4.51834C18.9701 4.20946 18.7508 3.9619 18.4543 3.83934C18.1581 3.71668 17.8283 3.73709 17.5493 3.89481C11.1347 7.52518 11.6934 13.9243 12.3929 16.9425C11.5078 17.7209 10.8913 18.3627 10.5807 18.7018H5.34473C4.93652 18.7018 4.56006 18.9235 4.36211 19.2805C4.16436 19.6369 4.17559 20.073 4.39082 20.418L6.3165 23.5109C6.53037 23.8544 6.98184 23.9592 7.32539 23.7456C7.66885 23.5318 7.77383 23.0802 7.56006 22.7367L5.95996 20.1664H45.0305L44.6356 22.5736C44.5013 23.3888 44.1893 24.1753 43.7327 24.8643L16.4542 34.103C15.0333 33.7045 13.828 32.8036 13.0456 31.5468L9.21172 25.3891C8.99785 25.0456 8.54619 24.9407 8.20283 25.1545C7.85938 25.3682 7.75439 25.82 7.96816 26.1634L11.8021 32.321C12.4515 33.364 13.3343 34.2105 14.3737 34.8077L11.6924 35.7158C10.5233 34.3608 8.7958 33.5007 6.87002 33.5007C3.35752 33.5007 0.5 36.3581 0.5 39.8704C0.5 43.3827 3.35752 46.2402 6.86992 46.2402C10.3823 46.2402 13.2399 43.3828 13.2399 39.8704C13.2399 39.8575 13.2391 39.8448 13.239 39.8319L28.0727 34.8079C28.4558 34.6781 28.6611 34.2624 28.5313 33.8792C28.4016 33.496 27.9859 33.2905 27.6026 33.4205L13.0546 38.3477C12.936 37.8662 12.7622 37.4066 12.5408 36.9749L16.7071 35.5638C16.7148 35.5614 16.7225 35.5589 16.73 35.5561L44.4398 26.1715C44.4448 26.1697 44.4498 26.1682 44.4547 26.1664L48.067 24.943C48.2524 24.8802 48.4514 24.8934 48.6269 24.98C48.8021 25.0666 48.9331 25.2161 48.9954 25.4007C49.0218 25.4785 49.0351 25.558 49.0351 25.637C49.0351 25.9506 48.8349 26.229 48.5373 26.3301L30.5627 32.4179C30.1796 32.5477 29.9742 32.9635 30.104 33.3467C30.2337 33.7299 30.6494 33.9351 31.0327 33.8053L31.8008 33.5452L36.4597 44.3183C36.9645 45.4858 38.1126 46.2402 39.3847 46.2402C41.039 46.2402 42.4346 44.9482 42.5619 43.2988L43.6244 29.5405L49.0075 27.7173C49.9002 27.4144 50.4998 26.5785 50.4998 25.637C50.5 25.3984 50.4608 25.1612 50.3833 24.9318ZM39.8586 5.55584C39.6695 7.24012 38.934 10.8558 36.0959 13.4841C35.1711 12.9416 34.1322 12.4284 32.9886 12.0035C33.8109 9.44285 35.6705 6.51317 39.8586 5.55584ZM30.2361 7.57342C29.7701 8.38211 28.9018 9.68826 27.5907 10.9057C27.3553 10.8959 27.1182 10.8893 26.8777 10.8893C24.4781 10.8893 22.2596 11.3926 20.3058 12.1185C21.9752 9.6286 25.1187 6.60965 30.2361 7.57342ZM17.785 5.45965C18.1373 6.98738 18.6162 10.3205 17.1772 13.5596C16.3584 14.0115 15.6197 14.4788 14.9738 14.9255C14.506 15.249 14.0703 15.5719 13.6674 15.8863C13.1032 12.8311 13.248 8.31951 17.785 5.45965ZM6.86992 44.7754C4.16523 44.7754 1.96484 42.575 1.96484 39.8704C1.96484 37.1658 4.16523 34.9654 6.86992 34.9654C9.57461 34.9654 11.7751 37.1658 11.7751 39.8704C11.775 42.575 9.57461 44.7754 6.86992 44.7754ZM41.1017 43.1861C41.0328 44.0773 40.2787 44.7754 39.3849 44.7754C38.6976 44.7754 38.077 44.3678 37.8043 43.7369L33.193 33.0737L42.116 30.0515L41.1017 43.1861Z" fill="black"/>
<path d="M6.86982 36.9093C5.23701 36.9093 3.90869 38.2376 3.90869 39.8704C3.90869 41.5032 5.23711 42.8316 6.86982 42.8316C8.50273 42.8316 9.83105 41.5032 9.83105 39.8704C9.83105 38.2376 8.50264 36.9093 6.86982 36.9093ZM6.86982 41.3667C6.04473 41.3667 5.37354 40.6954 5.37354 39.8704C5.37354 39.0454 6.04473 38.3741 6.86982 38.3741C7.69492 38.3741 8.36621 39.0454 8.36621 39.8704C8.36621 40.6954 7.69492 41.3667 6.86982 41.3667Z" fill="black"/>
</g>
<defs>
<clipPath id="clip0_17901_1249">
<rect width="50" height="50" fill="white" transform="translate(0.5)"/>
</clipPath>
</defs>
</svg>
