<svg width="375" height="141" viewBox="0 0 375 141" fill="none" xmlns="http://www.w3.org/2000/svg">
<g filter="url(#filter0_bdii_673_25675)">
<rect x="255" y="59.5" width="105" height="20" rx="3" fill="white" fill-opacity="0.603" shape-rendering="crispEdges"/>
</g>
<path d="M264.34 72.57C263.993 72.57 263.82 72.3933 263.82 72.04V65.91C263.82 65.5567 263.993 65.38 264.34 65.38C264.687 65.38 264.86 65.5567 264.86 65.91V72.04C264.86 72.3933 264.687 72.57 264.34 72.57ZM266.896 72.57C266.556 72.57 266.386 72.4 266.386 72.06V68.06C266.386 67.72 266.549 67.55 266.876 67.55C267.202 67.55 267.366 67.72 267.366 68.06V68.49C267.499 68.19 267.699 67.96 267.966 67.8C268.239 67.64 268.569 67.5467 268.956 67.52C269.202 67.5 269.336 67.6333 269.356 67.92C269.382 68.2133 269.239 68.3733 268.926 68.4L268.736 68.42C267.849 68.5067 267.406 68.9633 267.406 69.79V72.06C267.406 72.4 267.236 72.57 266.896 72.57ZM270.626 72.57C270.286 72.57 270.116 72.4 270.116 72.06V68.06C270.116 67.72 270.28 67.55 270.606 67.55C270.933 67.55 271.096 67.72 271.096 68.06V68.49C271.23 68.19 271.43 67.96 271.696 67.8C271.97 67.64 272.3 67.5467 272.686 67.52C272.933 67.5 273.066 67.6333 273.086 67.92C273.113 68.2133 272.97 68.3733 272.656 68.4L272.466 68.42C271.58 68.5067 271.136 68.9633 271.136 69.79V72.06C271.136 72.4 270.966 72.57 270.626 72.57ZM274.347 66.53C274.147 66.53 273.99 66.48 273.877 66.38C273.77 66.28 273.717 66.14 273.717 65.96C273.717 65.58 273.927 65.39 274.347 65.39C274.767 65.39 274.977 65.58 274.977 65.96C274.977 66.34 274.767 66.53 274.347 66.53ZM274.347 72.56C274.013 72.56 273.847 72.3767 273.847 72.01V68.11C273.847 67.75 274.013 67.57 274.347 67.57C274.687 67.57 274.857 67.75 274.857 68.11V72.01C274.857 72.3767 274.687 72.56 274.347 72.56ZM278.488 74.39C278.128 74.39 277.778 74.3533 277.438 74.28C277.105 74.2067 276.802 74.0867 276.528 73.92C276.408 73.8533 276.335 73.77 276.308 73.67C276.282 73.57 276.292 73.4733 276.338 73.38C276.392 73.2867 276.462 73.2167 276.548 73.17C276.642 73.13 276.742 73.14 276.848 73.2C277.142 73.36 277.418 73.4667 277.678 73.52C277.945 73.58 278.192 73.61 278.418 73.61C279.352 73.61 279.818 73.1433 279.818 72.21V71.44C279.678 71.7333 279.458 71.9633 279.158 72.13C278.865 72.2967 278.535 72.38 278.168 72.38C277.728 72.38 277.345 72.28 277.018 72.08C276.692 71.8733 276.438 71.59 276.258 71.23C276.078 70.8633 275.988 70.4367 275.988 69.95C275.988 69.47 276.078 69.05 276.258 68.69C276.438 68.3233 276.692 68.04 277.018 67.84C277.345 67.6333 277.728 67.53 278.168 67.53C278.535 67.53 278.862 67.6133 279.148 67.78C279.442 67.94 279.658 68.16 279.798 68.44V68.06C279.798 67.72 279.965 67.55 280.298 67.55C280.632 67.55 280.798 67.72 280.798 68.06V72.09C280.798 72.8567 280.602 73.43 280.208 73.81C279.815 74.1967 279.242 74.39 278.488 74.39ZM278.408 71.59C278.835 71.59 279.175 71.4433 279.428 71.15C279.682 70.8567 279.808 70.4567 279.808 69.95C279.808 69.4433 279.682 69.0467 279.428 68.76C279.175 68.4667 278.835 68.32 278.408 68.32C277.982 68.32 277.642 68.4667 277.388 68.76C277.135 69.0467 277.008 69.4433 277.008 69.95C277.008 70.4567 277.135 70.8567 277.388 71.15C277.642 71.4433 277.982 71.59 278.408 71.59ZM283.776 72.59C283.436 72.59 283.133 72.5233 282.866 72.39C282.599 72.2567 282.386 72.0767 282.226 71.85C282.073 71.6233 281.996 71.3667 281.996 71.08C281.996 70.72 282.086 70.4367 282.266 70.23C282.453 70.0233 282.756 69.8733 283.176 69.78C283.603 69.6867 284.176 69.64 284.896 69.64H285.236V69.38C285.236 69 285.156 68.7267 284.996 68.56C284.836 68.3933 284.573 68.31 284.206 68.31C283.993 68.31 283.769 68.3367 283.536 68.39C283.309 68.4433 283.073 68.5333 282.826 68.66C282.686 68.7267 282.569 68.7367 282.476 68.69C282.389 68.6433 282.329 68.57 282.296 68.47C282.263 68.37 282.266 68.2667 282.306 68.16C282.346 68.0533 282.429 67.9733 282.556 67.92C282.849 67.7867 283.139 67.69 283.426 67.63C283.713 67.5633 283.983 67.53 284.236 67.53C284.903 67.53 285.396 67.69 285.716 68.01C286.036 68.3233 286.196 68.8167 286.196 69.49V72.06C286.196 72.4 286.039 72.57 285.726 72.57C285.406 72.57 285.246 72.4 285.246 72.06V71.69C285.126 71.97 284.939 72.19 284.686 72.35C284.433 72.51 284.129 72.59 283.776 72.59ZM283.976 71.87C284.336 71.87 284.636 71.7433 284.876 71.49C285.116 71.2367 285.236 70.9167 285.236 70.53V70.26H284.906C284.419 70.26 284.036 70.2833 283.756 70.33C283.483 70.3767 283.286 70.4567 283.166 70.57C283.053 70.6767 282.996 70.8267 282.996 71.02C282.996 71.2733 283.083 71.48 283.256 71.64C283.429 71.7933 283.669 71.87 283.976 71.87ZM289.667 72.59C289.054 72.59 288.597 72.4333 288.297 72.12C287.997 71.8067 287.847 71.3533 287.847 70.76V68.4H287.247C286.967 68.4 286.827 68.27 286.827 68.01C286.827 67.75 286.967 67.62 287.247 67.62H287.847V66.59C287.847 66.25 288.017 66.08 288.357 66.08C288.69 66.08 288.857 66.25 288.857 66.59V67.62H290.027C290.307 67.62 290.447 67.75 290.447 68.01C290.447 68.27 290.307 68.4 290.027 68.4H288.857V70.68C288.857 71.0333 288.93 71.3 289.077 71.48C289.23 71.66 289.477 71.75 289.817 71.75C289.937 71.75 290.04 71.74 290.127 71.72C290.214 71.6933 290.29 71.6767 290.357 71.67C290.43 71.67 290.49 71.6967 290.537 71.75C290.584 71.7967 290.607 71.89 290.607 72.03C290.607 72.1367 290.587 72.2333 290.547 72.32C290.514 72.4 290.45 72.4533 290.357 72.48C290.277 72.5133 290.167 72.54 290.027 72.56C289.894 72.58 289.774 72.59 289.667 72.59ZM291.827 66.53C291.627 66.53 291.471 66.48 291.357 66.38C291.251 66.28 291.197 66.14 291.197 65.96C291.197 65.58 291.407 65.39 291.827 65.39C292.247 65.39 292.457 65.58 292.457 65.96C292.457 66.34 292.247 66.53 291.827 66.53ZM291.827 72.56C291.494 72.56 291.327 72.3767 291.327 72.01V68.11C291.327 67.75 291.494 67.57 291.827 67.57C292.167 67.57 292.337 67.75 292.337 68.11V72.01C292.337 72.3767 292.167 72.56 291.827 72.56ZM295.879 72.59C295.385 72.59 294.959 72.4867 294.599 72.28C294.239 72.0733 293.959 71.7833 293.759 71.41C293.565 71.03 293.469 70.58 293.469 70.06C293.469 69.54 293.565 69.0933 293.759 68.72C293.959 68.34 294.239 68.0467 294.599 67.84C294.959 67.6333 295.385 67.53 295.879 67.53C296.359 67.53 296.779 67.6333 297.139 67.84C297.499 68.0467 297.779 68.34 297.979 68.72C298.179 69.0933 298.279 69.54 298.279 70.06C298.279 70.58 298.179 71.03 297.979 71.41C297.779 71.7833 297.499 72.0733 297.139 72.28C296.779 72.4867 296.359 72.59 295.879 72.59ZM295.879 71.81C296.292 71.81 296.625 71.66 296.879 71.36C297.132 71.06 297.259 70.6267 297.259 70.06C297.259 69.4933 297.132 69.0633 296.879 68.77C296.625 68.47 296.292 68.32 295.879 68.32C295.459 68.32 295.122 68.47 294.869 68.77C294.615 69.0633 294.489 69.4933 294.489 70.06C294.489 70.6267 294.615 71.06 294.869 71.36C295.122 71.66 295.459 71.81 295.879 71.81ZM299.913 72.57C299.58 72.57 299.413 72.4 299.413 72.06V68.06C299.413 67.72 299.576 67.55 299.903 67.55C300.23 67.55 300.393 67.72 300.393 68.06V68.43C300.56 68.1367 300.786 67.9133 301.073 67.76C301.366 67.6067 301.693 67.53 302.053 67.53C303.206 67.53 303.783 68.1833 303.783 69.49V72.06C303.783 72.4 303.616 72.57 303.283 72.57C302.943 72.57 302.773 72.4 302.773 72.06V69.55C302.773 69.13 302.69 68.8233 302.523 68.63C302.363 68.4367 302.11 68.34 301.763 68.34C301.356 68.34 301.03 68.47 300.783 68.73C300.543 68.9833 300.423 69.32 300.423 69.74V72.06C300.423 72.4 300.253 72.57 299.913 72.57ZM310.032 72.59C309.305 72.59 308.735 72.4233 308.322 72.09C307.908 71.7567 307.702 71.3133 307.702 70.76C307.702 70.3067 307.825 69.9133 308.072 69.58C308.318 69.2467 308.678 68.9333 309.152 68.64L309.272 68.57C308.985 68.27 308.782 67.9967 308.662 67.75C308.548 67.4967 308.492 67.2367 308.492 66.97C308.492 66.49 308.658 66.1033 308.992 65.81C309.325 65.51 309.768 65.36 310.322 65.36C310.822 65.36 311.225 65.4933 311.532 65.76C311.838 66.0267 311.992 66.3867 311.992 66.84C311.992 67.1867 311.888 67.51 311.682 67.81C311.482 68.1033 311.132 68.4067 310.632 68.72L312.142 70.38C312.368 69.92 312.515 69.35 312.582 68.67C312.622 68.39 312.772 68.25 313.032 68.25C313.332 68.25 313.465 68.4067 313.432 68.72C313.392 69.1733 313.312 69.59 313.192 69.97C313.072 70.35 312.922 70.69 312.742 70.99L313.612 71.91C313.765 72.0633 313.802 72.2133 313.722 72.36C313.648 72.5 313.515 72.57 313.322 72.57C313.202 72.57 313.102 72.5467 313.022 72.5C312.948 72.46 312.868 72.3933 312.782 72.3L312.202 71.67C311.922 71.9633 311.595 72.19 311.222 72.35C310.848 72.51 310.452 72.59 310.032 72.59ZM310.322 66.1C310.055 66.1 309.838 66.18 309.672 66.34C309.512 66.4933 309.432 66.6967 309.432 66.95C309.432 67.1433 309.475 67.32 309.562 67.48C309.655 67.64 309.825 67.86 310.072 68.14C310.458 67.9 310.732 67.6867 310.892 67.5C311.052 67.3133 311.132 67.1067 311.132 66.88C311.132 66.6333 311.055 66.4433 310.902 66.31C310.755 66.17 310.562 66.1 310.322 66.1ZM310.082 71.78C310.708 71.78 311.225 71.55 311.632 71.09L309.822 69.16L309.762 69.2C309.375 69.4467 309.102 69.68 308.942 69.9C308.782 70.1133 308.702 70.3733 308.702 70.68C308.702 71.0267 308.818 71.2967 309.052 71.49C309.292 71.6833 309.635 71.78 310.082 71.78ZM318.158 72.57C317.812 72.57 317.638 72.3933 317.638 72.04V65.98C317.638 65.6267 317.815 65.45 318.168 65.45H320.558C321.318 65.45 321.905 65.64 322.318 66.02C322.732 66.3933 322.938 66.92 322.938 67.6C322.938 68.2867 322.732 68.82 322.318 69.2C321.905 69.5733 321.318 69.76 320.558 69.76H318.678V72.04C318.678 72.3933 318.505 72.57 318.158 72.57ZM318.678 68.93H320.408C321.422 68.93 321.928 68.4867 321.928 67.6C321.928 66.72 321.422 66.28 320.408 66.28H318.678V68.93ZM324.357 72.57C324.017 72.57 323.847 72.4 323.847 72.06V68.06C323.847 67.72 324.01 67.55 324.337 67.55C324.663 67.55 324.827 67.72 324.827 68.06V68.49C324.96 68.19 325.16 67.96 325.427 67.8C325.7 67.64 326.03 67.5467 326.417 67.52C326.663 67.5 326.797 67.6333 326.817 67.92C326.843 68.2133 326.7 68.3733 326.387 68.4L326.197 68.42C325.31 68.5067 324.867 68.9633 324.867 69.79V72.06C324.867 72.4 324.697 72.57 324.357 72.57ZM329.238 72.59C328.945 72.59 328.642 72.5567 328.328 72.49C328.015 72.4233 327.732 72.31 327.478 72.15C327.365 72.0833 327.295 72 327.268 71.9C327.242 71.8 327.248 71.7067 327.288 71.62C327.328 71.5333 327.392 71.4733 327.478 71.44C327.572 71.4 327.675 71.41 327.788 71.47C328.048 71.61 328.298 71.71 328.538 71.77C328.778 71.83 329.015 71.86 329.248 71.86C329.602 71.86 329.868 71.7967 330.048 71.67C330.228 71.5433 330.318 71.3733 330.318 71.16C330.318 70.9867 330.258 70.8533 330.138 70.76C330.018 70.66 329.838 70.5833 329.598 70.53L328.648 70.34C327.808 70.1667 327.388 69.7333 327.388 69.04C327.388 68.58 327.572 68.2133 327.938 67.94C328.305 67.6667 328.785 67.53 329.378 67.53C329.978 67.53 330.495 67.6767 330.928 67.97C331.035 68.0367 331.098 68.12 331.118 68.22C331.138 68.3133 331.125 68.4033 331.078 68.49C331.032 68.57 330.962 68.6267 330.868 68.66C330.782 68.6933 330.678 68.68 330.558 68.62C330.358 68.5 330.158 68.4133 329.958 68.36C329.758 68.3 329.565 68.27 329.378 68.27C329.032 68.27 328.768 68.3367 328.588 68.47C328.408 68.5967 328.318 68.77 328.318 68.99C328.318 69.3233 328.538 69.5367 328.978 69.63L329.928 69.82C330.362 69.9067 330.688 70.0533 330.908 70.26C331.135 70.4667 331.248 70.7467 331.248 71.1C331.248 71.5667 331.065 71.9333 330.698 72.2C330.332 72.46 329.845 72.59 329.238 72.59ZM332.872 66.53C332.672 66.53 332.515 66.48 332.402 66.38C332.295 66.28 332.242 66.14 332.242 65.96C332.242 65.58 332.452 65.39 332.872 65.39C333.292 65.39 333.502 65.58 333.502 65.96C333.502 66.34 333.292 66.53 332.872 66.53ZM332.872 72.56C332.539 72.56 332.372 72.3767 332.372 72.01V68.11C332.372 67.75 332.539 67.57 332.872 67.57C333.212 67.57 333.382 67.75 333.382 68.11V72.01C333.382 72.3767 333.212 72.56 332.872 72.56ZM335.304 72.57C334.97 72.57 334.804 72.4 334.804 72.06V68.06C334.804 67.72 334.967 67.55 335.294 67.55C335.62 67.55 335.784 67.72 335.784 68.06V68.43C335.95 68.1367 336.177 67.9133 336.464 67.76C336.757 67.6067 337.084 67.53 337.444 67.53C338.597 67.53 339.174 68.1833 339.174 69.49V72.06C339.174 72.4 339.007 72.57 338.674 72.57C338.334 72.57 338.164 72.4 338.164 72.06V69.55C338.164 69.13 338.08 68.8233 337.914 68.63C337.754 68.4367 337.5 68.34 337.154 68.34C336.747 68.34 336.42 68.47 336.174 68.73C335.934 68.9833 335.814 69.32 335.814 69.74V72.06C335.814 72.4 335.644 72.57 335.304 72.57ZM342.775 74.39C342.415 74.39 342.065 74.3533 341.725 74.28C341.392 74.2067 341.089 74.0867 340.815 73.92C340.695 73.8533 340.622 73.77 340.595 73.67C340.569 73.57 340.579 73.4733 340.625 73.38C340.679 73.2867 340.749 73.2167 340.835 73.17C340.929 73.13 341.029 73.14 341.135 73.2C341.429 73.36 341.705 73.4667 341.965 73.52C342.232 73.58 342.479 73.61 342.705 73.61C343.639 73.61 344.105 73.1433 344.105 72.21V71.44C343.965 71.7333 343.745 71.9633 343.445 72.13C343.152 72.2967 342.822 72.38 342.455 72.38C342.015 72.38 341.632 72.28 341.305 72.08C340.979 71.8733 340.725 71.59 340.545 71.23C340.365 70.8633 340.275 70.4367 340.275 69.95C340.275 69.47 340.365 69.05 340.545 68.69C340.725 68.3233 340.979 68.04 341.305 67.84C341.632 67.6333 342.015 67.53 342.455 67.53C342.822 67.53 343.149 67.6133 343.435 67.78C343.729 67.94 343.945 68.16 344.085 68.44V68.06C344.085 67.72 344.252 67.55 344.585 67.55C344.919 67.55 345.085 67.72 345.085 68.06V72.09C345.085 72.8567 344.889 73.43 344.495 73.81C344.102 74.1967 343.529 74.39 342.775 74.39ZM342.695 71.59C343.122 71.59 343.462 71.4433 343.715 71.15C343.969 70.8567 344.095 70.4567 344.095 69.95C344.095 69.4433 343.969 69.0467 343.715 68.76C343.462 68.4667 343.122 68.32 342.695 68.32C342.269 68.32 341.929 68.4667 341.675 68.76C341.422 69.0467 341.295 69.4433 341.295 69.95C341.295 70.4567 341.422 70.8567 341.675 71.15C341.929 71.4433 342.269 71.59 342.695 71.59ZM348.793 72.59C347.993 72.59 347.363 72.3667 346.903 71.92C346.443 71.4667 346.213 70.85 346.213 70.07C346.213 69.57 346.313 69.13 346.513 68.75C346.72 68.3633 347.003 68.0633 347.363 67.85C347.723 67.6367 348.136 67.53 348.603 67.53C349.276 67.53 349.806 67.7467 350.193 68.18C350.58 68.6067 350.773 69.1967 350.773 69.95C350.773 70.1767 350.64 70.29 350.373 70.29H347.193C347.266 71.3033 347.803 71.81 348.803 71.81C349.003 71.81 349.213 71.7867 349.433 71.74C349.653 71.6867 349.866 71.5933 350.073 71.46C350.213 71.38 350.333 71.3533 350.433 71.38C350.54 71.4 350.616 71.4567 350.663 71.55C350.71 71.6367 350.716 71.7367 350.683 71.85C350.656 71.9567 350.58 72.05 350.453 72.13C350.226 72.2833 349.96 72.4 349.653 72.48C349.353 72.5533 349.066 72.59 348.793 72.59ZM348.643 68.24C348.223 68.24 347.89 68.37 347.643 68.63C347.396 68.89 347.246 69.2367 347.193 69.67H349.923C349.903 69.2167 349.783 68.8667 349.563 68.62C349.343 68.3667 349.036 68.24 348.643 68.24Z" fill="#00730C"/>
<path d="M263 73.53H351.163V73.92H263V73.53Z" fill="#00730C"/>
<path d="M283 139.5L310.5 120L311.5 82" stroke="#676767" stroke-width="0.5"/>
<circle cx="4" cy="4" r="3.5" transform="matrix(-1 0 0 1 289.5 132.5)" fill="white" stroke="#086D52"/>
<g filter="url(#filter1_bdii_673_25675)">
<rect x="205" y="16.5" width="80" height="20" rx="3" fill="white" fill-opacity="0.603" shape-rendering="crispEdges"/>
</g>
<path d="M216.85 29.5C216.497 29.5 216.32 29.3233 216.32 28.97V22.94C216.32 22.5867 216.493 22.41 216.84 22.41C217.187 22.41 217.36 22.5867 217.36 22.94V28.61H220.46C220.767 28.61 220.92 28.7567 220.92 29.05C220.92 29.35 220.767 29.5 220.46 29.5H216.85ZM223.288 29.59C222.948 29.59 222.644 29.5233 222.378 29.39C222.111 29.2567 221.898 29.0767 221.738 28.85C221.584 28.6233 221.508 28.3667 221.508 28.08C221.508 27.72 221.598 27.4367 221.778 27.23C221.964 27.0233 222.268 26.8733 222.688 26.78C223.114 26.6867 223.688 26.64 224.408 26.64H224.748V26.38C224.748 26 224.668 25.7267 224.508 25.56C224.348 25.3933 224.084 25.31 223.718 25.31C223.504 25.31 223.281 25.3367 223.048 25.39C222.821 25.4433 222.584 25.5333 222.338 25.66C222.198 25.7267 222.081 25.7367 221.988 25.69C221.901 25.6433 221.841 25.57 221.808 25.47C221.774 25.37 221.778 25.2667 221.818 25.16C221.858 25.0533 221.941 24.9733 222.068 24.92C222.361 24.7867 222.651 24.69 222.938 24.63C223.224 24.5633 223.494 24.53 223.748 24.53C224.414 24.53 224.908 24.69 225.228 25.01C225.548 25.3233 225.708 25.8167 225.708 26.49V29.06C225.708 29.4 225.551 29.57 225.238 29.57C224.918 29.57 224.758 29.4 224.758 29.06V28.69C224.638 28.97 224.451 29.19 224.198 29.35C223.944 29.51 223.641 29.59 223.288 29.59ZM223.488 28.87C223.848 28.87 224.148 28.7433 224.388 28.49C224.628 28.2367 224.748 27.9167 224.748 27.53V27.26H224.418C223.931 27.26 223.548 27.2833 223.268 27.33C222.994 27.3767 222.798 27.4567 222.678 27.57C222.564 27.6767 222.508 27.8267 222.508 28.02C222.508 28.2733 222.594 28.48 222.768 28.64C222.941 28.7933 223.181 28.87 223.488 28.87ZM227.599 29.57C227.265 29.57 227.099 29.4 227.099 29.06V25.06C227.099 24.72 227.262 24.55 227.589 24.55C227.915 24.55 228.079 24.72 228.079 25.06V25.43C228.245 25.1367 228.472 24.9133 228.759 24.76C229.052 24.6067 229.379 24.53 229.739 24.53C230.892 24.53 231.469 25.1833 231.469 26.49V29.06C231.469 29.4 231.302 29.57 230.969 29.57C230.629 29.57 230.459 29.4 230.459 29.06V26.55C230.459 26.13 230.375 25.8233 230.209 25.63C230.049 25.4367 229.795 25.34 229.449 25.34C229.042 25.34 228.715 25.47 228.469 25.73C228.229 25.9833 228.109 26.32 228.109 26.74V29.06C228.109 29.4 227.939 29.57 227.599 29.57ZM234.72 29.59C234.294 29.59 233.917 29.49 233.59 29.29C233.27 29.0833 233.02 28.79 232.84 28.41C232.66 28.03 232.57 27.58 232.57 27.06C232.57 26.54 232.66 26.0933 232.84 25.72C233.02 25.34 233.27 25.0467 233.59 24.84C233.91 24.6333 234.287 24.53 234.72 24.53C235.087 24.53 235.414 24.61 235.7 24.77C235.987 24.93 236.2 25.1467 236.34 25.42V22.89C236.34 22.55 236.507 22.38 236.84 22.38C237.18 22.38 237.35 22.55 237.35 22.89V29.06C237.35 29.4 237.184 29.57 236.85 29.57C236.517 29.57 236.35 29.4 236.35 29.06V28.68C236.204 28.96 235.987 29.1833 235.7 29.35C235.414 29.51 235.087 29.59 234.72 29.59ZM234.98 28.81C235.394 28.81 235.727 28.66 235.98 28.36C236.234 28.06 236.36 27.6267 236.36 27.06C236.36 26.4933 236.234 26.0633 235.98 25.77C235.727 25.47 235.394 25.32 234.98 25.32C234.56 25.32 234.224 25.47 233.97 25.77C233.717 26.0633 233.59 26.4933 233.59 27.06C233.59 27.6267 233.717 28.06 233.97 28.36C234.224 28.66 234.56 28.81 234.98 28.81ZM240.479 29.59C240.185 29.59 239.882 29.5567 239.569 29.49C239.255 29.4233 238.972 29.31 238.719 29.15C238.605 29.0833 238.535 29 238.509 28.9C238.482 28.8 238.489 28.7067 238.529 28.62C238.569 28.5333 238.632 28.4733 238.719 28.44C238.812 28.4 238.915 28.41 239.029 28.47C239.289 28.61 239.539 28.71 239.779 28.77C240.019 28.83 240.255 28.86 240.489 28.86C240.842 28.86 241.109 28.7967 241.289 28.67C241.469 28.5433 241.559 28.3733 241.559 28.16C241.559 27.9867 241.499 27.8533 241.379 27.76C241.259 27.66 241.079 27.5833 240.839 27.53L239.889 27.34C239.049 27.1667 238.629 26.7333 238.629 26.04C238.629 25.58 238.812 25.2133 239.179 24.94C239.545 24.6667 240.025 24.53 240.619 24.53C241.219 24.53 241.735 24.6767 242.169 24.97C242.275 25.0367 242.339 25.12 242.359 25.22C242.379 25.3133 242.365 25.4033 242.319 25.49C242.272 25.57 242.202 25.6267 242.109 25.66C242.022 25.6933 241.919 25.68 241.799 25.62C241.599 25.5 241.399 25.4133 241.199 25.36C240.999 25.3 240.805 25.27 240.619 25.27C240.272 25.27 240.009 25.3367 239.829 25.47C239.649 25.5967 239.559 25.77 239.559 25.99C239.559 26.3233 239.779 26.5367 240.219 26.63L241.169 26.82C241.602 26.9067 241.929 27.0533 242.149 27.26C242.375 27.4667 242.489 27.7467 242.489 28.1C242.489 28.5667 242.305 28.9333 241.939 29.2C241.572 29.46 241.085 29.59 240.479 29.59ZM245.902 29.59C245.102 29.59 244.472 29.3667 244.012 28.92C243.552 28.4667 243.322 27.85 243.322 27.07C243.322 26.57 243.422 26.13 243.622 25.75C243.829 25.3633 244.112 25.0633 244.472 24.85C244.832 24.6367 245.246 24.53 245.712 24.53C246.386 24.53 246.916 24.7467 247.302 25.18C247.689 25.6067 247.882 26.1967 247.882 26.95C247.882 27.1767 247.749 27.29 247.482 27.29H244.302C244.376 28.3033 244.912 28.81 245.912 28.81C246.112 28.81 246.322 28.7867 246.542 28.74C246.762 28.6867 246.976 28.5933 247.182 28.46C247.322 28.38 247.442 28.3533 247.542 28.38C247.649 28.4 247.726 28.4567 247.772 28.55C247.819 28.6367 247.826 28.7367 247.792 28.85C247.766 28.9567 247.689 29.05 247.562 29.13C247.336 29.2833 247.069 29.4 246.762 29.48C246.462 29.5533 246.176 29.59 245.902 29.59ZM245.752 25.24C245.332 25.24 244.999 25.37 244.752 25.63C244.506 25.89 244.356 26.2367 244.302 26.67H247.032C247.012 26.2167 246.892 25.8667 246.672 25.62C246.452 25.3667 246.146 25.24 245.752 25.24ZM250.543 29.59C250.203 29.59 249.9 29.5233 249.633 29.39C249.367 29.2567 249.153 29.0767 248.993 28.85C248.84 28.6233 248.763 28.3667 248.763 28.08C248.763 27.72 248.853 27.4367 249.033 27.23C249.22 27.0233 249.523 26.8733 249.943 26.78C250.37 26.6867 250.943 26.64 251.663 26.64H252.003V26.38C252.003 26 251.923 25.7267 251.763 25.56C251.603 25.3933 251.34 25.31 250.973 25.31C250.76 25.31 250.537 25.3367 250.303 25.39C250.077 25.4433 249.84 25.5333 249.593 25.66C249.453 25.7267 249.337 25.7367 249.243 25.69C249.157 25.6433 249.097 25.57 249.063 25.47C249.03 25.37 249.033 25.2667 249.073 25.16C249.113 25.0533 249.197 24.9733 249.323 24.92C249.617 24.7867 249.907 24.69 250.193 24.63C250.48 24.5633 250.75 24.53 251.003 24.53C251.67 24.53 252.163 24.69 252.483 25.01C252.803 25.3233 252.963 25.8167 252.963 26.49V29.06C252.963 29.4 252.807 29.57 252.493 29.57C252.173 29.57 252.013 29.4 252.013 29.06V28.69C251.893 28.97 251.707 29.19 251.453 29.35C251.2 29.51 250.897 29.59 250.543 29.59ZM250.743 28.87C251.103 28.87 251.403 28.7433 251.643 28.49C251.883 28.2367 252.003 27.9167 252.003 27.53V27.26H251.673C251.187 27.26 250.803 27.2833 250.523 27.33C250.25 27.3767 250.053 27.4567 249.933 27.57C249.82 27.6767 249.763 27.8267 249.763 28.02C249.763 28.2733 249.85 28.48 250.023 28.64C250.197 28.7933 250.437 28.87 250.743 28.87ZM254.855 31.37C254.521 31.37 254.355 31.2 254.355 30.86V25.06C254.355 24.72 254.518 24.55 254.845 24.55C255.178 24.55 255.345 24.72 255.345 25.06V25.44C255.491 25.16 255.708 24.94 255.995 24.78C256.281 24.6133 256.608 24.53 256.975 24.53C257.408 24.53 257.785 24.6333 258.105 24.84C258.431 25.0467 258.681 25.34 258.855 25.72C259.035 26.0933 259.125 26.54 259.125 27.06C259.125 27.58 259.035 28.03 258.855 28.41C258.681 28.79 258.431 29.0833 258.105 29.29C257.785 29.49 257.408 29.59 256.975 29.59C256.615 29.59 256.291 29.5133 256.005 29.36C255.725 29.2 255.511 28.9833 255.365 28.71V30.86C255.365 31.2 255.195 31.37 254.855 31.37ZM256.725 28.81C257.145 28.81 257.478 28.66 257.725 28.36C257.978 28.06 258.105 27.6267 258.105 27.06C258.105 26.4933 257.978 26.0633 257.725 25.77C257.478 25.47 257.145 25.32 256.725 25.32C256.305 25.32 255.968 25.47 255.715 25.77C255.468 26.0633 255.345 26.4933 255.345 27.06C255.345 27.6267 255.468 28.06 255.715 28.36C255.968 28.66 256.305 28.81 256.725 28.81ZM260.763 23.53C260.563 23.53 260.406 23.48 260.293 23.38C260.186 23.28 260.133 23.14 260.133 22.96C260.133 22.58 260.343 22.39 260.763 22.39C261.183 22.39 261.393 22.58 261.393 22.96C261.393 23.34 261.183 23.53 260.763 23.53ZM260.763 29.56C260.429 29.56 260.263 29.3767 260.263 29.01V25.11C260.263 24.75 260.429 24.57 260.763 24.57C261.103 24.57 261.273 24.75 261.273 25.11V29.01C261.273 29.3767 261.103 29.56 260.763 29.56ZM263.194 29.57C262.861 29.57 262.694 29.4 262.694 29.06V25.06C262.694 24.72 262.858 24.55 263.184 24.55C263.511 24.55 263.674 24.72 263.674 25.06V25.43C263.841 25.1367 264.068 24.9133 264.354 24.76C264.648 24.6067 264.974 24.53 265.334 24.53C266.488 24.53 267.064 25.1833 267.064 26.49V29.06C267.064 29.4 266.898 29.57 266.564 29.57C266.224 29.57 266.054 29.4 266.054 29.06V26.55C266.054 26.13 265.971 25.8233 265.804 25.63C265.644 25.4367 265.391 25.34 265.044 25.34C264.638 25.34 264.311 25.47 264.064 25.73C263.824 25.9833 263.704 26.32 263.704 26.74V29.06C263.704 29.4 263.534 29.57 263.194 29.57ZM270.666 31.39C270.306 31.39 269.956 31.3533 269.616 31.28C269.283 31.2067 268.979 31.0867 268.706 30.92C268.586 30.8533 268.513 30.77 268.486 30.67C268.459 30.57 268.469 30.4733 268.516 30.38C268.569 30.2867 268.639 30.2167 268.726 30.17C268.819 30.13 268.919 30.14 269.026 30.2C269.319 30.36 269.596 30.4667 269.856 30.52C270.123 30.58 270.369 30.61 270.596 30.61C271.529 30.61 271.996 30.1433 271.996 29.21V28.44C271.856 28.7333 271.636 28.9633 271.336 29.13C271.043 29.2967 270.713 29.38 270.346 29.38C269.906 29.38 269.523 29.28 269.196 29.08C268.869 28.8733 268.616 28.59 268.436 28.23C268.256 27.8633 268.166 27.4367 268.166 26.95C268.166 26.47 268.256 26.05 268.436 25.69C268.616 25.3233 268.869 25.04 269.196 24.84C269.523 24.6333 269.906 24.53 270.346 24.53C270.713 24.53 271.039 24.6133 271.326 24.78C271.619 24.94 271.836 25.16 271.976 25.44V25.06C271.976 24.72 272.143 24.55 272.476 24.55C272.809 24.55 272.976 24.72 272.976 25.06V29.09C272.976 29.8567 272.779 30.43 272.386 30.81C271.993 31.1967 271.419 31.39 270.666 31.39ZM270.586 28.59C271.013 28.59 271.353 28.4433 271.606 28.15C271.859 27.8567 271.986 27.4567 271.986 26.95C271.986 26.4433 271.859 26.0467 271.606 25.76C271.353 25.4667 271.013 25.32 270.586 25.32C270.159 25.32 269.819 25.4667 269.566 25.76C269.313 26.0467 269.186 26.4433 269.186 26.95C269.186 27.4567 269.313 27.8567 269.566 28.15C269.819 28.4433 270.159 28.59 270.586 28.59Z" fill="#00730C"/>
<path d="M215.5 30.53H273.686V30.92H215.5V30.53Z" fill="#00730C"/>
<path d="M238.5 77V39" stroke="#676767" stroke-width="0.5"/>
<circle cx="4" cy="4" r="3.5" transform="matrix(-1 0 0 1 242.5 73.5)" fill="white" stroke="#086D52"/>
<g filter="url(#filter2_bdii_673_25675)">
<rect x="90" y="16.5" width="96" height="20" rx="3" fill="white" fill-opacity="0.603" shape-rendering="crispEdges"/>
</g>
<path d="M99.35 29.5C98.9967 29.5 98.82 29.3233 98.82 28.97V22.94C98.82 22.5867 98.9933 22.41 99.34 22.41C99.6867 22.41 99.86 22.5867 99.86 22.94V28.61H102.96C103.267 28.61 103.42 28.7567 103.42 29.05C103.42 29.35 103.267 29.5 102.96 29.5H99.35ZM105.788 29.59C105.448 29.59 105.144 29.5233 104.878 29.39C104.611 29.2567 104.398 29.0767 104.238 28.85C104.084 28.6233 104.008 28.3667 104.008 28.08C104.008 27.72 104.098 27.4367 104.278 27.23C104.464 27.0233 104.768 26.8733 105.188 26.78C105.614 26.6867 106.188 26.64 106.908 26.64H107.248V26.38C107.248 26 107.168 25.7267 107.008 25.56C106.848 25.3933 106.584 25.31 106.218 25.31C106.004 25.31 105.781 25.3367 105.548 25.39C105.321 25.4433 105.084 25.5333 104.838 25.66C104.698 25.7267 104.581 25.7367 104.488 25.69C104.401 25.6433 104.341 25.57 104.308 25.47C104.274 25.37 104.278 25.2667 104.318 25.16C104.358 25.0533 104.441 24.9733 104.568 24.92C104.861 24.7867 105.151 24.69 105.438 24.63C105.724 24.5633 105.994 24.53 106.248 24.53C106.914 24.53 107.408 24.69 107.728 25.01C108.048 25.3233 108.208 25.8167 108.208 26.49V29.06C108.208 29.4 108.051 29.57 107.738 29.57C107.418 29.57 107.258 29.4 107.258 29.06V28.69C107.138 28.97 106.951 29.19 106.698 29.35C106.444 29.51 106.141 29.59 105.788 29.59ZM105.988 28.87C106.348 28.87 106.648 28.7433 106.888 28.49C107.128 28.2367 107.248 27.9167 107.248 27.53V27.26H106.918C106.431 27.26 106.048 27.2833 105.768 27.33C105.494 27.3767 105.298 27.4567 105.178 27.57C105.064 27.6767 105.008 27.8267 105.008 28.02C105.008 28.2733 105.094 28.48 105.268 28.64C105.441 28.7933 105.681 28.87 105.988 28.87ZM111.33 29.57C111.037 29.57 110.833 29.4233 110.72 29.13L109.25 25.24C109.17 25.04 109.17 24.8767 109.25 24.75C109.337 24.6167 109.48 24.55 109.68 24.55C109.8 24.55 109.897 24.58 109.97 24.64C110.043 24.6933 110.11 24.8 110.17 24.96L111.36 28.32L112.6 24.92C112.693 24.6733 112.86 24.55 113.1 24.55C113.347 24.55 113.513 24.6733 113.6 24.92L114.82 28.34L116.04 24.94C116.093 24.7867 116.16 24.6833 116.24 24.63C116.327 24.5767 116.423 24.55 116.53 24.55C116.73 24.55 116.857 24.62 116.91 24.76C116.97 24.9 116.967 25.06 116.9 25.24L115.43 29.13C115.31 29.4233 115.11 29.57 114.83 29.57C114.53 29.57 114.327 29.4233 114.22 29.13L113.07 26.01L111.93 29.13C111.823 29.4233 111.623 29.57 111.33 29.57ZM118.507 29.57C118.174 29.57 118.007 29.4 118.007 29.06V25.06C118.007 24.72 118.17 24.55 118.497 24.55C118.824 24.55 118.987 24.72 118.987 25.06V25.43C119.154 25.1367 119.38 24.9133 119.667 24.76C119.96 24.6067 120.287 24.53 120.647 24.53C121.8 24.53 122.377 25.1833 122.377 26.49V29.06C122.377 29.4 122.21 29.57 121.877 29.57C121.537 29.57 121.367 29.4 121.367 29.06V26.55C121.367 26.13 121.284 25.8233 121.117 25.63C120.957 25.4367 120.704 25.34 120.357 25.34C119.95 25.34 119.624 25.47 119.377 25.73C119.137 25.9833 119.017 26.32 119.017 26.74V29.06C119.017 29.4 118.847 29.57 118.507 29.57ZM127.015 29.57C126.695 29.57 126.535 29.4067 126.535 29.08V22.87C126.535 22.5433 126.695 22.38 127.015 22.38C127.155 22.38 127.262 22.4067 127.335 22.46C127.415 22.5133 127.489 22.6 127.555 22.72L130.015 27.32L132.475 22.72C132.542 22.6 132.612 22.5133 132.685 22.46C132.765 22.4067 132.872 22.38 133.005 22.38C133.312 22.38 133.465 22.5433 133.465 22.87V29.08C133.465 29.4067 133.312 29.57 133.005 29.57C132.692 29.57 132.535 29.4067 132.535 29.08V24.34L130.435 28.21C130.382 28.31 130.325 28.3833 130.265 28.43C130.205 28.4767 130.122 28.5 130.015 28.5C129.902 28.5 129.812 28.4767 129.745 28.43C129.685 28.3767 129.629 28.3033 129.575 28.21L127.475 24.35V29.08C127.475 29.4067 127.322 29.57 127.015 29.57ZM136.579 29.59C136.239 29.59 135.935 29.5233 135.669 29.39C135.402 29.2567 135.189 29.0767 135.029 28.85C134.875 28.6233 134.799 28.3667 134.799 28.08C134.799 27.72 134.889 27.4367 135.069 27.23C135.255 27.0233 135.559 26.8733 135.979 26.78C136.405 26.6867 136.979 26.64 137.699 26.64H138.039V26.38C138.039 26 137.959 25.7267 137.799 25.56C137.639 25.3933 137.375 25.31 137.009 25.31C136.795 25.31 136.572 25.3367 136.339 25.39C136.112 25.4433 135.875 25.5333 135.629 25.66C135.489 25.7267 135.372 25.7367 135.279 25.69C135.192 25.6433 135.132 25.57 135.099 25.47C135.065 25.37 135.069 25.2667 135.109 25.16C135.149 25.0533 135.232 24.9733 135.359 24.92C135.652 24.7867 135.942 24.69 136.229 24.63C136.515 24.5633 136.785 24.53 137.039 24.53C137.705 24.53 138.199 24.69 138.519 25.01C138.839 25.3233 138.999 25.8167 138.999 26.49V29.06C138.999 29.4 138.842 29.57 138.529 29.57C138.209 29.57 138.049 29.4 138.049 29.06V28.69C137.929 28.97 137.742 29.19 137.489 29.35C137.235 29.51 136.932 29.59 136.579 29.59ZM136.779 28.87C137.139 28.87 137.439 28.7433 137.679 28.49C137.919 28.2367 138.039 27.9167 138.039 27.53V27.26H137.709C137.222 27.26 136.839 27.2833 136.559 27.33C136.285 27.3767 136.089 27.4567 135.969 27.57C135.855 27.6767 135.799 27.8267 135.799 28.02C135.799 28.2733 135.885 28.48 136.059 28.64C136.232 28.7933 136.472 28.87 136.779 28.87ZM140.89 23.53C140.69 23.53 140.533 23.48 140.42 23.38C140.313 23.28 140.26 23.14 140.26 22.96C140.26 22.58 140.47 22.39 140.89 22.39C141.31 22.39 141.52 22.58 141.52 22.96C141.52 23.34 141.31 23.53 140.89 23.53ZM140.89 29.56C140.556 29.56 140.39 29.3767 140.39 29.01V25.11C140.39 24.75 140.556 24.57 140.89 24.57C141.23 24.57 141.4 24.75 141.4 25.11V29.01C141.4 29.3767 141.23 29.56 140.89 29.56ZM143.321 29.57C142.988 29.57 142.821 29.4 142.821 29.06V25.06C142.821 24.72 142.985 24.55 143.311 24.55C143.638 24.55 143.801 24.72 143.801 25.06V25.43C143.968 25.1367 144.195 24.9133 144.481 24.76C144.775 24.6067 145.101 24.53 145.461 24.53C146.615 24.53 147.191 25.1833 147.191 26.49V29.06C147.191 29.4 147.025 29.57 146.691 29.57C146.351 29.57 146.181 29.4 146.181 29.06V26.55C146.181 26.13 146.098 25.8233 145.931 25.63C145.771 25.4367 145.518 25.34 145.171 25.34C144.765 25.34 144.438 25.47 144.191 25.73C143.951 25.9833 143.831 26.32 143.831 26.74V29.06C143.831 29.4 143.661 29.57 143.321 29.57ZM150.663 29.59C150.05 29.59 149.593 29.4333 149.293 29.12C148.993 28.8067 148.843 28.3533 148.843 27.76V25.4H148.243C147.963 25.4 147.823 25.27 147.823 25.01C147.823 24.75 147.963 24.62 148.243 24.62H148.843V23.59C148.843 23.25 149.013 23.08 149.353 23.08C149.686 23.08 149.853 23.25 149.853 23.59V24.62H151.023C151.303 24.62 151.443 24.75 151.443 25.01C151.443 25.27 151.303 25.4 151.023 25.4H149.853V27.68C149.853 28.0333 149.926 28.3 150.073 28.48C150.226 28.66 150.473 28.75 150.813 28.75C150.933 28.75 151.036 28.74 151.123 28.72C151.21 28.6933 151.286 28.6767 151.353 28.67C151.426 28.67 151.486 28.6967 151.533 28.75C151.58 28.7967 151.603 28.89 151.603 29.03C151.603 29.1367 151.583 29.2333 151.543 29.32C151.51 29.4 151.446 29.4533 151.353 29.48C151.273 29.5133 151.163 29.54 151.023 29.56C150.89 29.58 150.77 29.59 150.663 29.59ZM154.477 29.59C153.677 29.59 153.047 29.3667 152.587 28.92C152.127 28.4667 151.897 27.85 151.897 27.07C151.897 26.57 151.997 26.13 152.197 25.75C152.403 25.3633 152.687 25.0633 153.047 24.85C153.407 24.6367 153.82 24.53 154.287 24.53C154.96 24.53 155.49 24.7467 155.877 25.18C156.263 25.6067 156.457 26.1967 156.457 26.95C156.457 27.1767 156.323 27.29 156.057 27.29H152.877C152.95 28.3033 153.487 28.81 154.487 28.81C154.687 28.81 154.897 28.7867 155.117 28.74C155.337 28.6867 155.55 28.5933 155.757 28.46C155.897 28.38 156.017 28.3533 156.117 28.38C156.223 28.4 156.3 28.4567 156.347 28.55C156.393 28.6367 156.4 28.7367 156.367 28.85C156.34 28.9567 156.263 29.05 156.137 29.13C155.91 29.2833 155.643 29.4 155.337 29.48C155.037 29.5533 154.75 29.59 154.477 29.59ZM154.327 25.24C153.907 25.24 153.573 25.37 153.327 25.63C153.08 25.89 152.93 26.2367 152.877 26.67H155.607C155.587 26.2167 155.467 25.8667 155.247 25.62C155.027 25.3667 154.72 25.24 154.327 25.24ZM158.058 29.57C157.724 29.57 157.558 29.4 157.558 29.06V25.06C157.558 24.72 157.721 24.55 158.048 24.55C158.374 24.55 158.538 24.72 158.538 25.06V25.43C158.704 25.1367 158.931 24.9133 159.218 24.76C159.511 24.6067 159.838 24.53 160.198 24.53C161.351 24.53 161.928 25.1833 161.928 26.49V29.06C161.928 29.4 161.761 29.57 161.428 29.57C161.088 29.57 160.918 29.4 160.918 29.06V26.55C160.918 26.13 160.834 25.8233 160.668 25.63C160.508 25.4367 160.254 25.34 159.908 25.34C159.501 25.34 159.174 25.47 158.928 25.73C158.688 25.9833 158.568 26.32 158.568 26.74V29.06C158.568 29.4 158.398 29.57 158.058 29.57ZM164.879 29.59C164.539 29.59 164.236 29.5233 163.969 29.39C163.703 29.2567 163.489 29.0767 163.329 28.85C163.176 28.6233 163.099 28.3667 163.099 28.08C163.099 27.72 163.189 27.4367 163.369 27.23C163.556 27.0233 163.859 26.8733 164.279 26.78C164.706 26.6867 165.279 26.64 165.999 26.64H166.339V26.38C166.339 26 166.259 25.7267 166.099 25.56C165.939 25.3933 165.676 25.31 165.309 25.31C165.096 25.31 164.873 25.3367 164.639 25.39C164.413 25.4433 164.176 25.5333 163.929 25.66C163.789 25.7267 163.673 25.7367 163.579 25.69C163.493 25.6433 163.433 25.57 163.399 25.47C163.366 25.37 163.369 25.2667 163.409 25.16C163.449 25.0533 163.533 24.9733 163.659 24.92C163.953 24.7867 164.243 24.69 164.529 24.63C164.816 24.5633 165.086 24.53 165.339 24.53C166.006 24.53 166.499 24.69 166.819 25.01C167.139 25.3233 167.299 25.8167 167.299 26.49V29.06C167.299 29.4 167.143 29.57 166.829 29.57C166.509 29.57 166.349 29.4 166.349 29.06V28.69C166.229 28.97 166.043 29.19 165.789 29.35C165.536 29.51 165.233 29.59 164.879 29.59ZM165.079 28.87C165.439 28.87 165.739 28.7433 165.979 28.49C166.219 28.2367 166.339 27.9167 166.339 27.53V27.26H166.009C165.523 27.26 165.139 27.2833 164.859 27.33C164.586 27.3767 164.389 27.4567 164.269 27.57C164.156 27.6767 164.099 27.8267 164.099 28.02C164.099 28.2733 164.186 28.48 164.359 28.64C164.533 28.7933 164.773 28.87 165.079 28.87ZM170.84 29.59C170.34 29.59 169.907 29.4867 169.54 29.28C169.18 29.0667 168.9 28.77 168.7 28.39C168.5 28.0033 168.4 27.55 168.4 27.03C168.4 26.2567 168.62 25.6467 169.06 25.2C169.5 24.7533 170.094 24.53 170.84 24.53C171.074 24.53 171.317 24.5667 171.57 24.64C171.83 24.7067 172.07 24.82 172.29 24.98C172.397 25.0467 172.457 25.1333 172.47 25.24C172.49 25.34 172.474 25.4367 172.42 25.53C172.374 25.6167 172.304 25.6767 172.21 25.71C172.117 25.7367 172.01 25.7167 171.89 25.65C171.73 25.5367 171.567 25.4567 171.4 25.41C171.234 25.3567 171.074 25.33 170.92 25.33C170.447 25.33 170.08 25.48 169.82 25.78C169.567 26.0733 169.44 26.4933 169.44 27.04C169.44 27.5867 169.567 28.0167 169.82 28.33C170.08 28.6367 170.447 28.79 170.92 28.79C171.074 28.79 171.23 28.7667 171.39 28.72C171.557 28.6733 171.724 28.5933 171.89 28.48C172.01 28.4133 172.114 28.3967 172.2 28.43C172.294 28.4633 172.36 28.5267 172.4 28.62C172.447 28.7067 172.46 28.8033 172.44 28.91C172.427 29.01 172.367 29.0933 172.26 29.16C172.047 29.3133 171.814 29.4233 171.56 29.49C171.314 29.5567 171.074 29.59 170.84 29.59ZM175.551 29.59C174.751 29.59 174.121 29.3667 173.661 28.92C173.201 28.4667 172.971 27.85 172.971 27.07C172.971 26.57 173.071 26.13 173.271 25.75C173.477 25.3633 173.761 25.0633 174.121 24.85C174.481 24.6367 174.894 24.53 175.361 24.53C176.034 24.53 176.564 24.7467 176.951 25.18C177.337 25.6067 177.531 26.1967 177.531 26.95C177.531 27.1767 177.397 27.29 177.131 27.29H173.951C174.024 28.3033 174.561 28.81 175.561 28.81C175.761 28.81 175.971 28.7867 176.191 28.74C176.411 28.6867 176.624 28.5933 176.831 28.46C176.971 28.38 177.091 28.3533 177.191 28.38C177.297 28.4 177.374 28.4567 177.421 28.55C177.467 28.6367 177.474 28.7367 177.441 28.85C177.414 28.9567 177.337 29.05 177.211 29.13C176.984 29.2833 176.717 29.4 176.411 29.48C176.111 29.5533 175.824 29.59 175.551 29.59ZM175.401 25.24C174.981 25.24 174.647 25.37 174.401 25.63C174.154 25.89 174.004 26.2367 173.951 26.67H176.681C176.661 26.2167 176.541 25.8667 176.321 25.62C176.101 25.3667 175.794 25.24 175.401 25.24Z" fill="#00730C"/>
<path d="M98 30.53H177.921V30.92H98V30.53Z" fill="#00730C"/>
<path d="M133.5 78V40" stroke="#676767" stroke-width="0.5"/>
<circle cx="4" cy="4" r="3.5" transform="matrix(-1 0 0 1 137.5 74.5)" fill="white" stroke="#086D52"/>
<g filter="url(#filter3_bdii_673_25675)">
<rect x="15" y="59.5" width="80" height="20" rx="3" fill="white" fill-opacity="0.603" shape-rendering="crispEdges"/>
</g>
<path d="M24.85 72.5C24.4967 72.5 24.32 72.3233 24.32 71.97V65.94C24.32 65.5867 24.4933 65.41 24.84 65.41C25.1867 65.41 25.36 65.5867 25.36 65.94V71.61H28.46C28.7667 71.61 28.92 71.7567 28.92 72.05C28.92 72.35 28.7667 72.5 28.46 72.5H24.85ZM31.2876 72.59C30.9476 72.59 30.6442 72.5233 30.3776 72.39C30.1109 72.2567 29.8976 72.0767 29.7376 71.85C29.5842 71.6233 29.5076 71.3667 29.5076 71.08C29.5076 70.72 29.5976 70.4367 29.7776 70.23C29.9642 70.0233 30.2676 69.8733 30.6876 69.78C31.1142 69.6867 31.6876 69.64 32.4076 69.64H32.7476V69.38C32.7476 69 32.6676 68.7267 32.5076 68.56C32.3476 68.3933 32.0842 68.31 31.7176 68.31C31.5042 68.31 31.2809 68.3367 31.0476 68.39C30.8209 68.4433 30.5842 68.5333 30.3376 68.66C30.1976 68.7267 30.0809 68.7367 29.9876 68.69C29.9009 68.6433 29.8409 68.57 29.8076 68.47C29.7742 68.37 29.7776 68.2667 29.8176 68.16C29.8576 68.0533 29.9409 67.9733 30.0676 67.92C30.3609 67.7867 30.6509 67.69 30.9376 67.63C31.2242 67.5633 31.4942 67.53 31.7476 67.53C32.4142 67.53 32.9076 67.69 33.2276 68.01C33.5476 68.3233 33.7076 68.8167 33.7076 69.49V72.06C33.7076 72.4 33.5509 72.57 33.2376 72.57C32.9176 72.57 32.7576 72.4 32.7576 72.06V71.69C32.6376 71.97 32.4509 72.19 32.1976 72.35C31.9442 72.51 31.6409 72.59 31.2876 72.59ZM31.4876 71.87C31.8476 71.87 32.1476 71.7433 32.3876 71.49C32.6276 71.2367 32.7476 70.9167 32.7476 70.53V70.26H32.4176C31.9309 70.26 31.5476 70.2833 31.2676 70.33C30.9942 70.3767 30.7976 70.4567 30.6776 70.57C30.5642 70.6767 30.5076 70.8267 30.5076 71.02C30.5076 71.2733 30.5942 71.48 30.7676 71.64C30.9409 71.7933 31.1809 71.87 31.4876 71.87ZM35.5987 72.57C35.2653 72.57 35.0987 72.4 35.0987 72.06V68.06C35.0987 67.72 35.262 67.55 35.5887 67.55C35.9153 67.55 36.0787 67.72 36.0787 68.06V68.43C36.2453 68.1367 36.472 67.9133 36.7587 67.76C37.052 67.6067 37.3787 67.53 37.7387 67.53C38.892 67.53 39.4687 68.1833 39.4687 69.49V72.06C39.4687 72.4 39.302 72.57 38.9687 72.57C38.6287 72.57 38.4587 72.4 38.4587 72.06V69.55C38.4587 69.13 38.3753 68.8233 38.2087 68.63C38.0487 68.4367 37.7953 68.34 37.4487 68.34C37.042 68.34 36.7153 68.47 36.4687 68.73C36.2287 68.9833 36.1087 69.32 36.1087 69.74V72.06C36.1087 72.4 35.9387 72.57 35.5987 72.57ZM42.7204 72.59C42.2937 72.59 41.9171 72.49 41.5904 72.29C41.2704 72.0833 41.0204 71.79 40.8404 71.41C40.6604 71.03 40.5704 70.58 40.5704 70.06C40.5704 69.54 40.6604 69.0933 40.8404 68.72C41.0204 68.34 41.2704 68.0467 41.5904 67.84C41.9104 67.6333 42.2871 67.53 42.7204 67.53C43.0871 67.53 43.4137 67.61 43.7004 67.77C43.9871 67.93 44.2004 68.1467 44.3404 68.42V65.89C44.3404 65.55 44.5071 65.38 44.8404 65.38C45.1804 65.38 45.3504 65.55 45.3504 65.89V72.06C45.3504 72.4 45.1837 72.57 44.8504 72.57C44.5171 72.57 44.3504 72.4 44.3504 72.06V71.68C44.2037 71.96 43.9871 72.1833 43.7004 72.35C43.4137 72.51 43.0871 72.59 42.7204 72.59ZM42.9804 71.81C43.3937 71.81 43.7271 71.66 43.9804 71.36C44.2337 71.06 44.3604 70.6267 44.3604 70.06C44.3604 69.4933 44.2337 69.0633 43.9804 68.77C43.7271 68.47 43.3937 68.32 42.9804 68.32C42.5604 68.32 42.2237 68.47 41.9704 68.77C41.7171 69.0633 41.5904 69.4933 41.5904 70.06C41.5904 70.6267 41.7171 71.06 41.9704 71.36C42.2237 71.66 42.5604 71.81 42.9804 71.81ZM48.4786 72.59C48.1853 72.59 47.8819 72.5567 47.5686 72.49C47.2553 72.4233 46.9719 72.31 46.7186 72.15C46.6053 72.0833 46.5353 72 46.5086 71.9C46.4819 71.8 46.4886 71.7067 46.5286 71.62C46.5686 71.5333 46.6319 71.4733 46.7186 71.44C46.8119 71.4 46.9153 71.41 47.0286 71.47C47.2886 71.61 47.5386 71.71 47.7786 71.77C48.0186 71.83 48.2553 71.86 48.4886 71.86C48.8419 71.86 49.1086 71.7967 49.2886 71.67C49.4686 71.5433 49.5586 71.3733 49.5586 71.16C49.5586 70.9867 49.4986 70.8533 49.3786 70.76C49.2586 70.66 49.0786 70.5833 48.8386 70.53L47.8886 70.34C47.0486 70.1667 46.6286 69.7333 46.6286 69.04C46.6286 68.58 46.8119 68.2133 47.1786 67.94C47.5453 67.6667 48.0253 67.53 48.6186 67.53C49.2186 67.53 49.7353 67.6767 50.1686 67.97C50.2753 68.0367 50.3386 68.12 50.3586 68.22C50.3786 68.3133 50.3653 68.4033 50.3186 68.49C50.2719 68.57 50.2019 68.6267 50.1086 68.66C50.0219 68.6933 49.9186 68.68 49.7986 68.62C49.5986 68.5 49.3986 68.4133 49.1986 68.36C48.9986 68.3 48.8053 68.27 48.6186 68.27C48.2719 68.27 48.0086 68.3367 47.8286 68.47C47.6486 68.5967 47.5586 68.77 47.5586 68.99C47.5586 69.3233 47.7786 69.5367 48.2186 69.63L49.1686 69.82C49.6019 69.9067 49.9286 70.0533 50.1486 70.26C50.3753 70.4667 50.4886 70.7467 50.4886 71.1C50.4886 71.5667 50.3053 71.9333 49.9386 72.2C49.5719 72.46 49.0853 72.59 48.4786 72.59ZM53.9023 72.59C53.1023 72.59 52.4723 72.3667 52.0123 71.92C51.5523 71.4667 51.3223 70.85 51.3223 70.07C51.3223 69.57 51.4223 69.13 51.6223 68.75C51.829 68.3633 52.1123 68.0633 52.4723 67.85C52.8323 67.6367 53.2457 67.53 53.7123 67.53C54.3857 67.53 54.9157 67.7467 55.3023 68.18C55.689 68.6067 55.8823 69.1967 55.8823 69.95C55.8823 70.1767 55.749 70.29 55.4823 70.29H52.3023C52.3757 71.3033 52.9123 71.81 53.9123 71.81C54.1123 71.81 54.3223 71.7867 54.5423 71.74C54.7623 71.6867 54.9757 71.5933 55.1823 71.46C55.3223 71.38 55.4423 71.3533 55.5423 71.38C55.649 71.4 55.7257 71.4567 55.7723 71.55C55.819 71.6367 55.8257 71.7367 55.7923 71.85C55.7657 71.9567 55.689 72.05 55.5623 72.13C55.3357 72.2833 55.069 72.4 54.7623 72.48C54.4623 72.5533 54.1757 72.59 53.9023 72.59ZM53.7523 68.24C53.3323 68.24 52.999 68.37 52.7523 68.63C52.5057 68.89 52.3557 69.2367 52.3023 69.67H55.0323C55.0123 69.2167 54.8923 68.8667 54.6723 68.62C54.4523 68.3667 54.1457 68.24 53.7523 68.24ZM59.1334 72.59C58.6334 72.59 58.2001 72.4867 57.8334 72.28C57.4734 72.0667 57.1934 71.77 56.9934 71.39C56.7934 71.0033 56.6934 70.55 56.6934 70.03C56.6934 69.2567 56.9134 68.6467 57.3534 68.2C57.7934 67.7533 58.3868 67.53 59.1334 67.53C59.3668 67.53 59.6101 67.5667 59.8634 67.64C60.1234 67.7067 60.3634 67.82 60.5834 67.98C60.6901 68.0467 60.7501 68.1333 60.7634 68.24C60.7834 68.34 60.7668 68.4367 60.7134 68.53C60.6668 68.6167 60.5968 68.6767 60.5034 68.71C60.4101 68.7367 60.3034 68.7167 60.1834 68.65C60.0234 68.5367 59.8601 68.4567 59.6934 68.41C59.5268 68.3567 59.3668 68.33 59.2134 68.33C58.7401 68.33 58.3734 68.48 58.1134 68.78C57.8601 69.0733 57.7334 69.4933 57.7334 70.04C57.7334 70.5867 57.8601 71.0167 58.1134 71.33C58.3734 71.6367 58.7401 71.79 59.2134 71.79C59.3668 71.79 59.5234 71.7667 59.6834 71.72C59.8501 71.6733 60.0168 71.5933 60.1834 71.48C60.3034 71.4133 60.4068 71.3967 60.4934 71.43C60.5868 71.4633 60.6534 71.5267 60.6934 71.62C60.7401 71.7067 60.7534 71.8033 60.7334 71.91C60.7201 72.01 60.6601 72.0933 60.5534 72.16C60.3401 72.3133 60.1068 72.4233 59.8534 72.49C59.6068 72.5567 59.3668 72.59 59.1334 72.59ZM63.1723 72.59C62.8323 72.59 62.529 72.5233 62.2623 72.39C61.9957 72.2567 61.7823 72.0767 61.6223 71.85C61.469 71.6233 61.3923 71.3667 61.3923 71.08C61.3923 70.72 61.4823 70.4367 61.6623 70.23C61.849 70.0233 62.1523 69.8733 62.5723 69.78C62.999 69.6867 63.5723 69.64 64.2923 69.64H64.6323V69.38C64.6323 69 64.5523 68.7267 64.3923 68.56C64.2323 68.3933 63.969 68.31 63.6023 68.31C63.389 68.31 63.1657 68.3367 62.9323 68.39C62.7057 68.4433 62.469 68.5333 62.2223 68.66C62.0823 68.7267 61.9657 68.7367 61.8723 68.69C61.7857 68.6433 61.7257 68.57 61.6923 68.47C61.659 68.37 61.6623 68.2667 61.7023 68.16C61.7423 68.0533 61.8257 67.9733 61.9523 67.92C62.2457 67.7867 62.5357 67.69 62.8223 67.63C63.109 67.5633 63.379 67.53 63.6323 67.53C64.299 67.53 64.7923 67.69 65.1123 68.01C65.4323 68.3233 65.5923 68.8167 65.5923 69.49V72.06C65.5923 72.4 65.4357 72.57 65.1223 72.57C64.8023 72.57 64.6423 72.4 64.6423 72.06V71.69C64.5223 71.97 64.3357 72.19 64.0823 72.35C63.829 72.51 63.5257 72.59 63.1723 72.59ZM63.3723 71.87C63.7323 71.87 64.0323 71.7433 64.2723 71.49C64.5123 71.2367 64.6323 70.9167 64.6323 70.53V70.26H64.3023C63.8157 70.26 63.4323 70.2833 63.1523 70.33C62.879 70.3767 62.6823 70.4567 62.5623 70.57C62.449 70.6767 62.3923 70.8267 62.3923 71.02C62.3923 71.2733 62.479 71.48 62.6523 71.64C62.8257 71.7933 63.0657 71.87 63.3723 71.87ZM67.4834 74.37C67.1501 74.37 66.9834 74.2 66.9834 73.86V68.06C66.9834 67.72 67.1468 67.55 67.4734 67.55C67.8068 67.55 67.9734 67.72 67.9734 68.06V68.44C68.1201 68.16 68.3368 67.94 68.6234 67.78C68.9101 67.6133 69.2368 67.53 69.6034 67.53C70.0368 67.53 70.4134 67.6333 70.7334 67.84C71.0601 68.0467 71.3101 68.34 71.4834 68.72C71.6634 69.0933 71.7534 69.54 71.7534 70.06C71.7534 70.58 71.6634 71.03 71.4834 71.41C71.3101 71.79 71.0601 72.0833 70.7334 72.29C70.4134 72.49 70.0368 72.59 69.6034 72.59C69.2434 72.59 68.9201 72.5133 68.6334 72.36C68.3534 72.2 68.1401 71.9833 67.9934 71.71V73.86C67.9934 74.2 67.8234 74.37 67.4834 74.37ZM69.3534 71.81C69.7734 71.81 70.1068 71.66 70.3534 71.36C70.6068 71.06 70.7334 70.6267 70.7334 70.06C70.7334 69.4933 70.6068 69.0633 70.3534 68.77C70.1068 68.47 69.7734 68.32 69.3534 68.32C68.9334 68.32 68.5968 68.47 68.3434 68.77C68.0968 69.0633 67.9734 69.4933 67.9734 70.06C67.9734 70.6267 68.0968 71.06 68.3434 71.36C68.5968 71.66 68.9334 71.81 69.3534 71.81ZM73.3916 66.53C73.1916 66.53 73.035 66.48 72.9216 66.38C72.815 66.28 72.7616 66.14 72.7616 65.96C72.7616 65.58 72.9716 65.39 73.3916 65.39C73.8116 65.39 74.0216 65.58 74.0216 65.96C74.0216 66.34 73.8116 66.53 73.3916 66.53ZM73.3916 72.56C73.0583 72.56 72.8916 72.3767 72.8916 72.01V68.11C72.8916 67.75 73.0583 67.57 73.3916 67.57C73.7316 67.57 73.9016 67.75 73.9016 68.11V72.01C73.9016 72.3767 73.7316 72.56 73.3916 72.56ZM75.8233 72.57C75.4899 72.57 75.3233 72.4 75.3233 72.06V68.06C75.3233 67.72 75.4866 67.55 75.8133 67.55C76.1399 67.55 76.3033 67.72 76.3033 68.06V68.43C76.4699 68.1367 76.6966 67.9133 76.9833 67.76C77.2766 67.6067 77.6033 67.53 77.9633 67.53C79.1166 67.53 79.6933 68.1833 79.6933 69.49V72.06C79.6933 72.4 79.5266 72.57 79.1933 72.57C78.8533 72.57 78.6833 72.4 78.6833 72.06V69.55C78.6833 69.13 78.5999 68.8233 78.4333 68.63C78.2733 68.4367 78.0199 68.34 77.6733 68.34C77.2666 68.34 76.9399 68.47 76.6933 68.73C76.4533 68.9833 76.3333 69.32 76.3333 69.74V72.06C76.3333 72.4 76.1633 72.57 75.8233 72.57ZM83.295 74.39C82.935 74.39 82.585 74.3533 82.245 74.28C81.9117 74.2067 81.6083 74.0867 81.335 73.92C81.215 73.8533 81.1417 73.77 81.115 73.67C81.0883 73.57 81.0983 73.4733 81.145 73.38C81.1983 73.2867 81.2683 73.2167 81.355 73.17C81.4483 73.13 81.5483 73.14 81.655 73.2C81.9483 73.36 82.225 73.4667 82.485 73.52C82.7517 73.58 82.9983 73.61 83.225 73.61C84.1583 73.61 84.625 73.1433 84.625 72.21V71.44C84.485 71.7333 84.265 71.9633 83.965 72.13C83.6717 72.2967 83.3417 72.38 82.975 72.38C82.535 72.38 82.1517 72.28 81.825 72.08C81.4983 71.8733 81.245 71.59 81.065 71.23C80.885 70.8633 80.795 70.4367 80.795 69.95C80.795 69.47 80.885 69.05 81.065 68.69C81.245 68.3233 81.4983 68.04 81.825 67.84C82.1517 67.6333 82.535 67.53 82.975 67.53C83.3417 67.53 83.6683 67.6133 83.955 67.78C84.2483 67.94 84.465 68.16 84.605 68.44V68.06C84.605 67.72 84.7717 67.55 85.105 67.55C85.4383 67.55 85.605 67.72 85.605 68.06V72.09C85.605 72.8567 85.4083 73.43 85.015 73.81C84.6217 74.1967 84.0483 74.39 83.295 74.39ZM83.215 71.59C83.6417 71.59 83.9817 71.4433 84.235 71.15C84.4883 70.8567 84.615 70.4567 84.615 69.95C84.615 69.4433 84.4883 69.0467 84.235 68.76C83.9817 68.4667 83.6417 68.32 83.215 68.32C82.7883 68.32 82.4483 68.4667 82.195 68.76C81.9417 69.0467 81.815 69.4433 81.815 69.95C81.815 70.4567 81.9417 70.8567 82.195 71.15C82.4483 71.4433 82.7883 71.59 83.215 71.59Z" fill="#00730C"/>
<path d="M23.5 73.53H86.315V73.92H23.5V73.53Z" fill="#00730C"/>
<path d="M92 139.5L64.5 120L63.5 82" stroke="#676767" stroke-width="0.5"/>
<circle cx="89.5" cy="136.5" r="3.5" fill="white" stroke="#086D52"/>
<defs>
<filter id="filter0_bdii_673_25675" x="231.79" y="36.29" width="151.42" height="66.42" filterUnits="userSpaceOnUse" color-interpolation-filters="sRGB">
<feFlood flood-opacity="0" result="BackgroundImageFix"/>
<feGaussianBlur in="BackgroundImageFix" stdDeviation="11.605"/>
<feComposite in2="SourceAlpha" operator="in" result="effect1_backgroundBlur_673_25675"/>
<feColorMatrix in="SourceAlpha" type="matrix" values="0 0 0 0 0 0 0 0 0 0 0 0 0 0 0 0 0 0 127 0" result="hardAlpha"/>
<feOffset dx="1" dy="2"/>
<feGaussianBlur stdDeviation="9"/>
<feComposite in2="hardAlpha" operator="out"/>
<feColorMatrix type="matrix" values="0 0 0 0 0 0 0 0 0 0 0 0 0 0 0 0 0 0 0.12 0"/>
<feBlend mode="normal" in2="effect1_backgroundBlur_673_25675" result="effect2_dropShadow_673_25675"/>
<feBlend mode="normal" in="SourceGraphic" in2="effect2_dropShadow_673_25675" result="shape"/>
<feColorMatrix in="SourceAlpha" type="matrix" values="0 0 0 0 0 0 0 0 0 0 0 0 0 0 0 0 0 0 127 0" result="hardAlpha"/>
<feOffset dx="-7.03333" dy="7.03333"/>
<feGaussianBlur stdDeviation="3.51667"/>
<feComposite in2="hardAlpha" operator="arithmetic" k2="-1" k3="1"/>
<feColorMatrix type="matrix" values="0 0 0 0 1 0 0 0 0 1 0 0 0 0 1 0 0 0 0.183 0"/>
<feBlend mode="normal" in2="shape" result="effect3_innerShadow_673_25675"/>
<feColorMatrix in="SourceAlpha" type="matrix" values="0 0 0 0 0 0 0 0 0 0 0 0 0 0 0 0 0 0 127 0" result="hardAlpha"/>
<feOffset dx="7.03333" dy="-7.03333"/>
<feGaussianBlur stdDeviation="3.51667"/>
<feComposite in2="hardAlpha" operator="arithmetic" k2="-1" k3="1"/>
<feColorMatrix type="matrix" values="0 0 0 0 0.76 0 0 0 0 0.76 0 0 0 0 0.76 0 0 0 0.183 0"/>
<feBlend mode="normal" in2="effect3_innerShadow_673_25675" result="effect4_innerShadow_673_25675"/>
</filter>
<filter id="filter1_bdii_673_25675" x="181.79" y="-6.71" width="126.42" height="66.42" filterUnits="userSpaceOnUse" color-interpolation-filters="sRGB">
<feFlood flood-opacity="0" result="BackgroundImageFix"/>
<feGaussianBlur in="BackgroundImageFix" stdDeviation="11.605"/>
<feComposite in2="SourceAlpha" operator="in" result="effect1_backgroundBlur_673_25675"/>
<feColorMatrix in="SourceAlpha" type="matrix" values="0 0 0 0 0 0 0 0 0 0 0 0 0 0 0 0 0 0 127 0" result="hardAlpha"/>
<feOffset dx="1" dy="2"/>
<feGaussianBlur stdDeviation="9"/>
<feComposite in2="hardAlpha" operator="out"/>
<feColorMatrix type="matrix" values="0 0 0 0 0 0 0 0 0 0 0 0 0 0 0 0 0 0 0.12 0"/>
<feBlend mode="normal" in2="effect1_backgroundBlur_673_25675" result="effect2_dropShadow_673_25675"/>
<feBlend mode="normal" in="SourceGraphic" in2="effect2_dropShadow_673_25675" result="shape"/>
<feColorMatrix in="SourceAlpha" type="matrix" values="0 0 0 0 0 0 0 0 0 0 0 0 0 0 0 0 0 0 127 0" result="hardAlpha"/>
<feOffset dx="-7.03333" dy="7.03333"/>
<feGaussianBlur stdDeviation="3.51667"/>
<feComposite in2="hardAlpha" operator="arithmetic" k2="-1" k3="1"/>
<feColorMatrix type="matrix" values="0 0 0 0 1 0 0 0 0 1 0 0 0 0 1 0 0 0 0.183 0"/>
<feBlend mode="normal" in2="shape" result="effect3_innerShadow_673_25675"/>
<feColorMatrix in="SourceAlpha" type="matrix" values="0 0 0 0 0 0 0 0 0 0 0 0 0 0 0 0 0 0 127 0" result="hardAlpha"/>
<feOffset dx="7.03333" dy="-7.03333"/>
<feGaussianBlur stdDeviation="3.51667"/>
<feComposite in2="hardAlpha" operator="arithmetic" k2="-1" k3="1"/>
<feColorMatrix type="matrix" values="0 0 0 0 0.76 0 0 0 0 0.76 0 0 0 0 0.76 0 0 0 0.183 0"/>
<feBlend mode="normal" in2="effect3_innerShadow_673_25675" result="effect4_innerShadow_673_25675"/>
</filter>
<filter id="filter2_bdii_673_25675" x="66.79" y="-6.71" width="142.42" height="66.42" filterUnits="userSpaceOnUse" color-interpolation-filters="sRGB">
<feFlood flood-opacity="0" result="BackgroundImageFix"/>
<feGaussianBlur in="BackgroundImageFix" stdDeviation="11.605"/>
<feComposite in2="SourceAlpha" operator="in" result="effect1_backgroundBlur_673_25675"/>
<feColorMatrix in="SourceAlpha" type="matrix" values="0 0 0 0 0 0 0 0 0 0 0 0 0 0 0 0 0 0 127 0" result="hardAlpha"/>
<feOffset dx="1" dy="2"/>
<feGaussianBlur stdDeviation="9"/>
<feComposite in2="hardAlpha" operator="out"/>
<feColorMatrix type="matrix" values="0 0 0 0 0 0 0 0 0 0 0 0 0 0 0 0 0 0 0.12 0"/>
<feBlend mode="normal" in2="effect1_backgroundBlur_673_25675" result="effect2_dropShadow_673_25675"/>
<feBlend mode="normal" in="SourceGraphic" in2="effect2_dropShadow_673_25675" result="shape"/>
<feColorMatrix in="SourceAlpha" type="matrix" values="0 0 0 0 0 0 0 0 0 0 0 0 0 0 0 0 0 0 127 0" result="hardAlpha"/>
<feOffset dx="-7.03333" dy="7.03333"/>
<feGaussianBlur stdDeviation="3.51667"/>
<feComposite in2="hardAlpha" operator="arithmetic" k2="-1" k3="1"/>
<feColorMatrix type="matrix" values="0 0 0 0 1 0 0 0 0 1 0 0 0 0 1 0 0 0 0.183 0"/>
<feBlend mode="normal" in2="shape" result="effect3_innerShadow_673_25675"/>
<feColorMatrix in="SourceAlpha" type="matrix" values="0 0 0 0 0 0 0 0 0 0 0 0 0 0 0 0 0 0 127 0" result="hardAlpha"/>
<feOffset dx="7.03333" dy="-7.03333"/>
<feGaussianBlur stdDeviation="3.51667"/>
<feComposite in2="hardAlpha" operator="arithmetic" k2="-1" k3="1"/>
<feColorMatrix type="matrix" values="0 0 0 0 0.76 0 0 0 0 0.76 0 0 0 0 0.76 0 0 0 0.183 0"/>
<feBlend mode="normal" in2="effect3_innerShadow_673_25675" result="effect4_innerShadow_673_25675"/>
</filter>
<filter id="filter3_bdii_673_25675" x="-8.21" y="36.29" width="126.42" height="66.42" filterUnits="userSpaceOnUse" color-interpolation-filters="sRGB">
<feFlood flood-opacity="0" result="BackgroundImageFix"/>
<feGaussianBlur in="BackgroundImageFix" stdDeviation="11.605"/>
<feComposite in2="SourceAlpha" operator="in" result="effect1_backgroundBlur_673_25675"/>
<feColorMatrix in="SourceAlpha" type="matrix" values="0 0 0 0 0 0 0 0 0 0 0 0 0 0 0 0 0 0 127 0" result="hardAlpha"/>
<feOffset dx="1" dy="2"/>
<feGaussianBlur stdDeviation="9"/>
<feComposite in2="hardAlpha" operator="out"/>
<feColorMatrix type="matrix" values="0 0 0 0 0 0 0 0 0 0 0 0 0 0 0 0 0 0 0.12 0"/>
<feBlend mode="normal" in2="effect1_backgroundBlur_673_25675" result="effect2_dropShadow_673_25675"/>
<feBlend mode="normal" in="SourceGraphic" in2="effect2_dropShadow_673_25675" result="shape"/>
<feColorMatrix in="SourceAlpha" type="matrix" values="0 0 0 0 0 0 0 0 0 0 0 0 0 0 0 0 0 0 127 0" result="hardAlpha"/>
<feOffset dx="-7.03333" dy="7.03333"/>
<feGaussianBlur stdDeviation="3.51667"/>
<feComposite in2="hardAlpha" operator="arithmetic" k2="-1" k3="1"/>
<feColorMatrix type="matrix" values="0 0 0 0 1 0 0 0 0 1 0 0 0 0 1 0 0 0 0.183 0"/>
<feBlend mode="normal" in2="shape" result="effect3_innerShadow_673_25675"/>
<feColorMatrix in="SourceAlpha" type="matrix" values="0 0 0 0 0 0 0 0 0 0 0 0 0 0 0 0 0 0 127 0" result="hardAlpha"/>
<feOffset dx="7.03333" dy="-7.03333"/>
<feGaussianBlur stdDeviation="3.51667"/>
<feComposite in2="hardAlpha" operator="arithmetic" k2="-1" k3="1"/>
<feColorMatrix type="matrix" values="0 0 0 0 0.76 0 0 0 0 0.76 0 0 0 0 0.76 0 0 0 0.183 0"/>
<feBlend mode="normal" in2="effect3_innerShadow_673_25675" result="effect4_innerShadow_673_25675"/>
</filter>
</defs>
</svg>
