<svg width="198" height="100" viewBox="0 0 198 100" fill="none" xmlns="http://www.w3.org/2000/svg">
<g filter="url(#filter0_d_14205_4183)">
<rect x="28.5" y="19" width="137" height="40" rx="5" fill="white"/>
<g clip-path="url(#clip0_14205_4183)">
<path d="M69.6719 34.8984C69.9955 34.8984 70.2578 34.6361 70.2578 34.3125C70.2578 33.9889 69.9955 33.7266 69.6719 33.7266C69.3483 33.7266 69.0859 33.9889 69.0859 34.3125C69.0859 34.6361 69.3483 34.8984 69.6719 34.8984Z" fill="#00730C"/>
<path d="M72.0156 34.8984C72.3392 34.8984 72.6016 34.6361 72.6016 34.3125C72.6016 33.9889 72.3392 33.7266 72.0156 33.7266C71.692 33.7266 71.4297 33.9889 71.4297 34.3125C71.4297 34.6361 71.692 34.8984 72.0156 34.8984Z" fill="#00730C"/>
<path d="M74.3594 34.8984C74.683 34.8984 74.9453 34.6361 74.9453 34.3125C74.9453 33.9889 74.683 33.7266 74.3594 33.7266C74.0358 33.7266 73.7734 33.9889 73.7734 34.3125C73.7734 34.6361 74.0358 34.8984 74.3594 34.8984Z" fill="#00730C"/>
<path d="M71.6724 47.7891C72.637 47.7891 73.4219 47.0005 73.4219 46.0312V43.6875C73.4219 43.4354 73.2607 43.2116 73.0216 43.1318L69.5143 41.9599C69.3426 41.9025 69.1542 41.9277 69.0036 42.0281L67.5121 43.0224C65.9114 42.2629 64.0195 40.3877 63.267 38.8155L64.261 37.3245C64.3613 37.1739 64.3865 36.9854 64.3292 36.8138L63.1573 33.3065C63.0774 33.0674 62.8536 32.9062 62.6016 32.9062H60.2578C59.2886 32.9062 58.5 33.6911 58.5 34.6557C58.5 37.8931 59.972 41.2157 62.5387 43.7716C65.1025 46.3248 68.4316 47.7891 71.6724 47.7891ZM60.2578 34.0781H62.1796L63.1268 36.9131L62.1141 38.4323C62.007 38.5928 61.9859 38.7957 62.0576 38.9749C62.4472 39.949 63.227 41.0446 64.2532 42.0598C65.2727 43.0684 66.3736 43.8396 67.3532 44.2315C67.5323 44.3031 67.7354 44.282 67.8959 44.175L69.415 43.1622L72.25 44.1095V46.0312C72.25 46.3598 71.9963 46.6172 71.6724 46.6172C65.5039 46.6172 59.6719 40.8041 59.6719 34.6557C59.6719 34.3318 59.9293 34.0781 60.2578 34.0781Z" fill="#00730C"/>
<path d="M69.4477 40.7132C69.6666 40.8039 69.9186 40.7537 70.0862 40.5862L72.2583 38.4141H74.3594C76.6425 38.4141 78.5 36.5741 78.5 34.3125C78.5 32.0509 76.6425 30.2109 74.3594 30.2109H69.6719C67.4103 30.2109 65.5703 32.0509 65.5703 34.3125C65.5703 36.3752 67.1009 38.0871 69.0859 38.3723V40.1719C69.0859 40.4089 69.2287 40.6225 69.4477 40.7132ZM66.7422 34.3125C66.7422 32.6971 68.0564 31.3828 69.6719 31.3828H74.3594C75.9963 31.3828 77.3281 32.6971 77.3281 34.3125C77.3281 35.9279 75.9963 37.2422 74.3594 37.2422H72.0156C71.8602 37.2422 71.7112 37.3039 71.6013 37.4138L70.2578 38.7573V37.8281C70.2578 37.5045 69.9955 37.2422 69.6719 37.2422C68.0564 37.2422 66.7422 35.9279 66.7422 34.3125Z" fill="#00730C"/>
</g>
<path d="M94.17 43.64C93.1433 43.64 92.2613 43.4347 91.524 43.024C90.796 42.604 90.236 42.016 89.844 41.26C89.452 40.4947 89.256 39.594 89.256 38.558C89.256 37.522 89.452 36.626 89.844 35.87C90.236 35.114 90.796 34.5307 91.524 34.12C92.2613 33.7 93.1433 33.49 94.17 33.49C94.6833 33.49 95.1873 33.5553 95.682 33.686C96.1767 33.8167 96.6107 34.0033 96.984 34.246C97.2267 34.4047 97.3713 34.596 97.418 34.82C97.4647 35.0347 97.4367 35.2353 97.334 35.422C97.2313 35.5993 97.0773 35.7207 96.872 35.786C96.6667 35.842 96.438 35.786 96.186 35.618C95.8967 35.4313 95.584 35.296 95.248 35.212C94.912 35.128 94.5713 35.086 94.226 35.086C93.2273 35.086 92.4667 35.3893 91.944 35.996C91.4213 36.5933 91.16 37.4473 91.16 38.558C91.16 39.6687 91.4213 40.5273 91.944 41.134C92.4667 41.7407 93.2273 42.044 94.226 42.044C94.5807 42.044 94.9307 42.002 95.276 41.918C95.6213 41.8247 95.948 41.6847 96.256 41.498C96.508 41.3393 96.732 41.288 96.928 41.344C97.124 41.4 97.2687 41.5167 97.362 41.694C97.4647 41.862 97.4973 42.0487 97.46 42.254C97.4227 42.4593 97.2967 42.6413 97.082 42.8C96.7087 43.0707 96.2607 43.2807 95.738 43.43C95.2247 43.57 94.702 43.64 94.17 43.64ZM100.934 43.64C100.439 43.64 99.9955 43.5467 99.6035 43.36C99.2209 43.164 98.9175 42.9027 98.6935 42.576C98.4789 42.2493 98.3715 41.8807 98.3715 41.47C98.3715 40.966 98.5022 40.5693 98.7635 40.28C99.0249 39.9813 99.4495 39.7667 100.038 39.636C100.626 39.5053 101.414 39.44 102.404 39.44H102.894V39.146C102.894 38.6793 102.791 38.3433 102.586 38.138C102.38 37.9327 102.035 37.83 101.55 37.83C101.279 37.83 100.985 37.8627 100.668 37.928C100.36 37.9933 100.033 38.1053 99.6875 38.264C99.4635 38.3667 99.2769 38.3807 99.1275 38.306C98.9782 38.222 98.8755 38.096 98.8195 37.928C98.7729 37.7507 98.7822 37.5733 98.8475 37.396C98.9222 37.2187 99.0669 37.088 99.2815 37.004C99.7109 36.8267 100.122 36.7007 100.514 36.626C100.915 36.5513 101.279 36.514 101.606 36.514C102.604 36.514 103.346 36.7473 103.832 37.214C104.317 37.6713 104.56 38.3853 104.56 39.356V42.716C104.56 43.3133 104.289 43.612 103.748 43.612C103.197 43.612 102.922 43.3133 102.922 42.716V42.408C102.763 42.7907 102.511 43.094 102.166 43.318C101.82 43.5327 101.41 43.64 100.934 43.64ZM101.298 42.436C101.755 42.436 102.133 42.2773 102.432 41.96C102.74 41.6427 102.894 41.2413 102.894 40.756V40.448H102.418C101.54 40.448 100.929 40.518 100.584 40.658C100.248 40.7887 100.08 41.0313 100.08 41.386C100.08 41.694 100.187 41.946 100.402 42.142C100.616 42.338 100.915 42.436 101.298 42.436ZM108.674 43.64C107.115 43.64 106.336 42.7673 106.336 41.022V34.4C106.336 33.812 106.625 33.518 107.204 33.518C107.792 33.518 108.086 33.812 108.086 34.4V40.938C108.086 41.778 108.436 42.198 109.136 42.198C109.21 42.198 109.28 42.198 109.346 42.198C109.411 42.1887 109.476 42.1793 109.542 42.17C109.672 42.1513 109.761 42.1887 109.808 42.282C109.854 42.366 109.878 42.5433 109.878 42.814C109.878 43.0473 109.831 43.2293 109.738 43.36C109.644 43.4907 109.49 43.57 109.276 43.598C109.08 43.626 108.879 43.64 108.674 43.64ZM113.144 43.64C111.586 43.64 110.806 42.7673 110.806 41.022V34.4C110.806 33.812 111.096 33.518 111.674 33.518C112.262 33.518 112.556 33.812 112.556 34.4V40.938C112.556 41.778 112.906 42.198 113.606 42.198C113.681 42.198 113.751 42.198 113.816 42.198C113.882 42.1887 113.947 42.1793 114.012 42.17C114.143 42.1513 114.232 42.1887 114.278 42.282C114.325 42.366 114.348 42.5433 114.348 42.814C114.348 43.0473 114.302 43.2293 114.208 43.36C114.115 43.4907 113.961 43.57 113.746 43.598C113.55 43.626 113.35 43.64 113.144 43.64ZM123.348 43.64C121.995 43.64 120.959 43.29 120.24 42.59C119.531 41.8807 119.176 40.8353 119.176 39.454V34.428C119.176 33.8213 119.475 33.518 120.072 33.518C120.669 33.518 120.968 33.8213 120.968 34.428V39.44C120.968 40.3267 121.169 40.994 121.57 41.442C121.981 41.8807 122.573 42.1 123.348 42.1C124.925 42.1 125.714 41.2133 125.714 39.44V34.428C125.714 33.8213 126.013 33.518 126.61 33.518C127.198 33.518 127.492 33.8213 127.492 34.428V39.454C127.492 40.8353 127.142 41.8807 126.442 42.59C125.742 43.29 124.711 43.64 123.348 43.64ZM131.92 43.64C131.519 43.64 131.094 43.598 130.646 43.514C130.198 43.43 129.797 43.2853 129.442 43.08C129.246 42.968 129.125 42.8327 129.078 42.674C129.031 42.506 129.036 42.352 129.092 42.212C129.157 42.0627 129.26 41.9553 129.4 41.89C129.549 41.8247 129.722 41.8387 129.918 41.932C130.291 42.1093 130.641 42.2353 130.968 42.31C131.295 42.3753 131.617 42.408 131.934 42.408C132.382 42.408 132.713 42.3333 132.928 42.184C133.152 42.0253 133.264 41.82 133.264 41.568C133.264 41.176 132.975 40.924 132.396 40.812L130.996 40.546C129.811 40.322 129.218 39.706 129.218 38.698C129.218 38.25 129.339 37.8627 129.582 37.536C129.834 37.2093 130.179 36.9573 130.618 36.78C131.057 36.6027 131.561 36.514 132.13 36.514C132.951 36.514 133.684 36.696 134.328 37.06C134.505 37.1533 134.608 37.284 134.636 37.452C134.673 37.6107 134.655 37.7647 134.58 37.914C134.515 38.054 134.407 38.1567 134.258 38.222C134.109 38.278 133.936 38.2593 133.74 38.166C133.451 38.0167 133.171 37.9093 132.9 37.844C132.639 37.7787 132.387 37.746 132.144 37.746C131.687 37.746 131.346 37.8253 131.122 37.984C130.907 38.1427 130.8 38.3527 130.8 38.614C130.8 39.0247 131.066 39.2767 131.598 39.37L132.998 39.636C133.605 39.748 134.062 39.9533 134.37 40.252C134.687 40.5507 134.846 40.952 134.846 41.456C134.846 42.1373 134.58 42.674 134.048 43.066C133.516 43.4487 132.807 43.64 131.92 43.64Z" fill="#00730C"/>
</g>
<defs>
<filter id="filter0_d_14205_4183" x="0.5" y="0" width="197" height="100" filterUnits="userSpaceOnUse" color-interpolation-filters="sRGB">
<feFlood flood-opacity="0" result="BackgroundImageFix"/>
<feColorMatrix in="SourceAlpha" type="matrix" values="0 0 0 0 0 0 0 0 0 0 0 0 0 0 0 0 0 0 127 0" result="hardAlpha"/>
<feOffset dx="2" dy="11"/>
<feGaussianBlur stdDeviation="15"/>
<feColorMatrix type="matrix" values="0 0 0 0 0.2 0 0 0 0 0.2 0 0 0 0 0.2 0 0 0 0.08 0"/>
<feBlend mode="normal" in2="BackgroundImageFix" result="effect1_dropShadow_14205_4183"/>
<feBlend mode="normal" in="SourceGraphic" in2="effect1_dropShadow_14205_4183" result="shape"/>
</filter>
<clipPath id="clip0_14205_4183">
<rect width="20" height="20" fill="white" transform="translate(58.5 29)"/>
</clipPath>
</defs>
</svg>
