<svg width="20" height="19" viewBox="0 0 20 19" fill="#ffffff" xmlns="http://www.w3.org/2000/svg">
<path d="M11.1719 5.39844C11.4955 5.39844 11.7578 5.1361 11.7578 4.8125C11.7578 4.4889 11.4955 4.22656 11.1719 4.22656C10.8483 4.22656 10.5859 4.4889 10.5859 4.8125C10.5859 5.1361 10.8483 5.39844 11.1719 5.39844Z" fill="#ffffff"/>
<path d="M13.5156 5.39844C13.8392 5.39844 14.1016 5.1361 14.1016 4.8125C14.1016 4.4889 13.8392 4.22656 13.5156 4.22656C13.192 4.22656 12.9297 4.4889 12.9297 4.8125C12.9297 5.1361 13.192 5.39844 13.5156 5.39844Z" fill="#ffffff"/>
<path d="M15.8594 5.39844C16.183 5.39844 16.4453 5.1361 16.4453 4.8125C16.4453 4.4889 16.183 4.22656 15.8594 4.22656C15.5358 4.22656 15.2734 4.4889 15.2734 4.8125C15.2734 5.1361 15.5358 5.39844 15.8594 5.39844Z" fill="#ffffff"/>
<path d="M13.1724 18.2891C14.137 18.2891 14.9219 17.5005 14.9219 16.5312V14.1875C14.9219 13.9354 14.7607 13.7116 14.5216 13.6318L11.0143 12.4599C10.8426 12.4025 10.6542 12.4277 10.5036 12.5281L9.01211 13.5224C7.41141 12.7629 5.51949 10.8877 4.76699 9.31547L5.76098 7.82449C5.86133 7.67394 5.88652 7.48543 5.82918 7.31379L4.6573 3.80648C4.57742 3.56742 4.35363 3.40625 4.10156 3.40625H1.75781C0.788555 3.40625 0 4.19105 0 5.15574C0 8.39313 1.47203 11.7157 4.03867 14.2716C6.6025 16.8248 9.93164 18.2891 13.1724 18.2891ZM1.75781 4.57812H3.67957L4.62684 7.41313L3.61406 8.93227C3.50703 9.09281 3.4859 9.29574 3.55758 9.47488C3.94723 10.449 4.72699 11.5446 5.7532 12.5598C6.77266 13.5684 7.87359 14.3396 8.85324 14.7315C9.03234 14.8031 9.23535 14.782 9.39586 14.675L10.915 13.6622L13.75 14.6095V16.5312C13.75 16.8598 13.4963 17.1172 13.1724 17.1172C7.00391 17.1172 1.17188 11.3041 1.17188 5.15574C1.17188 4.83184 1.42926 4.57812 1.75781 4.57812Z" fill="#ffffff"/>
<path d="M10.9477 11.2132C11.1666 11.3039 11.4186 11.2537 11.5862 11.0862L13.7583 8.91406H15.8594C18.1425 8.91406 20 7.0741 20 4.8125C20 2.5509 18.1425 0.710938 15.8594 0.710938H11.1719C8.91027 0.710938 7.07031 2.5509 7.07031 4.8125C7.07031 6.8752 8.6009 8.58715 10.5859 8.87234V10.6719C10.5859 10.9089 10.7287 11.1225 10.9477 11.2132ZM8.24219 4.8125C8.24219 3.19707 9.55645 1.88281 11.1719 1.88281H15.8594C17.4963 1.88281 18.8281 3.19707 18.8281 4.8125C18.8281 6.42793 17.4963 7.74219 15.8594 7.74219H13.5156C13.3602 7.74219 13.2112 7.80391 13.1013 7.91379L11.7578 9.25731V8.32812C11.7578 8.00453 11.4955 7.74219 11.1719 7.74219C9.55645 7.74219 8.24219 6.42793 8.24219 4.8125Z" fill="#ffffff"/>
</svg>
