<svg width="25" height="25" viewBox="0 0 25 25" fill="#ffffff" xmlns="http://www.w3.org/2000/svg">
<g id="star 3" clip-path="url(#clip0_14378_38617)">
<path id="Vector" d="M22.1051 7.71171L15.5748 7.10604L12.9807 1.08245C12.7991 0.660669 12.2011 0.660669 12.0195 1.08245L9.42547 7.10599L2.89513 7.71171C2.43785 7.75409 2.25309 8.32284 2.59806 8.62592L7.52522 12.9543L6.08327 19.3523C5.98229 19.8003 6.46613 20.1517 6.86096 19.9173L12.5001 16.5689L18.1393 19.9173C18.5342 20.1518 19.0179 19.8003 18.917 19.3523L17.475 12.9543L22.4022 8.62592C22.7472 8.32284 22.5624 7.75409 22.1051 7.71171Z" fill="#ffffff"/>
<g id="Group">
<path id="Vector_2" d="M5.82412 0.875081C6.15703 1.33748 7.09668 3.32333 7.63389 4.48065C7.71836 4.66259 7.49009 4.82694 7.34434 4.6891C6.41724 3.81254 4.83203 2.29144 4.49912 1.82899C4.23569 1.46312 4.31875 0.952962 4.68467 0.689534C5.05053 0.426105 5.56069 0.509211 5.82412 0.875081Z" fill="#ffffff"/>
<path id="Vector_3" d="M19.1757 0.875081C18.8428 1.33748 17.9031 3.32333 17.3659 4.48065C17.2814 4.66259 17.5097 4.82694 17.6554 4.6891C18.5825 3.81254 20.1677 2.29139 20.5007 1.82899C20.7641 1.46312 20.681 0.952962 20.3151 0.689534C19.9492 0.426105 19.4391 0.509211 19.1757 0.875081Z" fill="#ffffff"/>
<path id="Vector_4" d="M24.4368 14.435C23.8951 14.2584 21.7176 13.9665 20.4518 13.8064C20.2528 13.7812 20.1656 14.0486 20.3412 14.1456C21.458 14.7625 23.3888 15.8106 23.9305 15.9872C24.3592 16.127 24.82 15.8929 24.9597 15.4642C25.0995 15.0356 24.8654 14.5748 24.4368 14.435Z" fill="#ffffff"/>
<path id="Vector_5" d="M0.563407 14.435C1.10511 14.2584 3.2826 13.9665 4.54838 13.8064C4.74735 13.7812 4.83456 14.0486 4.65902 14.1456C3.54217 14.7625 1.61136 15.8106 1.06966 15.9872C0.641043 16.127 0.180252 15.8929 0.0404564 15.4642C-0.0993387 15.0356 0.134793 14.5748 0.563407 14.435Z" fill="#ffffff"/>
<path id="Vector_6" d="M11.7085 23.6478C11.7085 23.0781 12.1062 20.9174 12.3464 19.6643C12.3842 19.4674 12.6655 19.4674 12.7032 19.6643C12.9435 20.9174 13.3412 23.0781 13.3412 23.6478C13.3412 24.0987 12.9757 24.4641 12.5249 24.4641C12.074 24.4642 11.7085 24.0987 11.7085 23.6478Z" fill="#ffffff"/>
</g>
<path id="Vector_7" d="M13.924 3.27288L12.9807 1.08245C12.7991 0.660669 12.2011 0.660669 12.0195 1.08245L9.42542 7.10599L2.89513 7.71171C2.43785 7.75409 2.25309 8.32284 2.59806 8.62592L7.52522 12.9543L6.08327 19.3523C5.98229 19.8003 6.46613 20.1517 6.86096 19.9173L7.6115 19.4716C8.84192 11.5068 12.301 5.65999 13.924 3.27288Z" fill="#ffffff"/>
</g>
<defs>
<clipPath id="clip0_14378_38617">
<rect width="25" height="25" fill="#ffffff"/>
</clipPath>
</defs>
</svg>
